<svg width="36" height="37" viewBox="0 0 36 37" fill="none" xmlns="http://www.w3.org/2000/svg">
<path d="M6.70596 9.23283L6.97218 9.10508C5.99814 7.9681 5.95594 7.4571 6.13127 7.22715C6.72543 6.44787 8.46573 5.6622 11.0015 5.6622C12.4703 5.67114 13.9265 5.92825 15.3068 6.42232C17.5795 7.22395 19.0049 7.8148 19.9529 8.20763C20.6255 8.51413 21.3241 8.76206 22.0407 8.94859C22.4536 9.03684 22.8746 9.08392 23.2972 9.08911C23.515 9.08936 23.7323 9.07012 23.9465 9.03162C23.8329 8.78571 23.7128 8.5302 23.5829 8.25873C23.3942 7.86249 23.1839 7.47655 22.953 7.10259C22.7816 7.0865 22.6113 7.05983 22.4433 7.02275C21.8474 6.85712 21.2664 6.64348 20.7062 6.38399C19.7322 5.98477 18.2776 5.38434 15.9691 4.56355C14.3771 3.99598 12.698 3.70108 11.0047 3.69165C8.1443 3.69165 5.68319 4.5891 4.57603 6.02629C3.54354 7.37087 4.30007 8.90068 5.20593 10.044C5.6925 9.74457 6.1954 9.47163 6.71242 9.22644" fill="white"/>
<path d="M26.8069 6.72567L26.9238 6.97798C27.4628 6.51808 28.0861 6.08053 28.5472 6.08053C28.6359 6.07804 28.7226 6.10757 28.7907 6.16357C30.0894 7.16641 31.1446 11.0053 29.6057 15.3233C28.8004 17.5845 28.2095 19.0153 27.8199 19.9606C27.5104 20.6341 27.2616 21.333 27.0764 22.0493C26.9323 22.6704 26.9026 23.3119 26.9888 23.9433L27.768 23.576C28.1644 23.3832 28.5503 23.17 28.9238 22.9372C28.9238 22.7871 28.966 22.6178 29.005 22.4358C29.1745 21.8397 29.3917 21.2577 29.6544 20.6952C30.0537 19.7371 30.6544 18.2743 31.4726 15.9716C33.2486 10.9957 32.0927 6.19231 30.0083 4.59224C29.5975 4.27185 29.0876 4.09941 28.5634 4.10359C27.6478 4.10359 26.755 4.6114 26.0017 5.19905C26.3074 5.68796 26.5849 6.19337 26.8329 6.71289" fill="white"/>
<path d="M29.2939 26.8018L29.0244 26.9295C29.9984 28.0665 30.0439 28.5775 29.8686 28.8074C29.2711 29.5835 27.5341 30.3724 24.9983 30.3724C23.5294 30.365 22.0729 30.1079 20.6931 29.6123C18.4203 28.8106 16.9982 28.2198 16.0469 27.8301C15.3755 27.52 14.6767 27.271 13.9592 27.086C13.5601 27.001 13.1532 26.9561 12.7449 26.9519C12.515 26.9521 12.2857 26.9735 12.0598 27.0157L12.4202 27.7759C12.6153 28.1735 12.8321 28.5605 13.0696 28.9352C13.2386 28.9515 13.4066 28.9771 13.5728 29.0118C14.1688 29.1769 14.7499 29.3906 15.3099 29.6506C16.2839 30.0498 17.7385 30.6502 20.047 31.471C21.6345 32.0328 23.308 32.3234 24.9951 32.3302C27.4757 32.3302 30.3166 31.4359 31.4238 29.9987C32.4563 28.6541 31.6997 27.1243 30.7939 25.981C30.3076 26.281 29.8047 26.5539 29.2874 26.7986" fill="white"/>
<path d="M9.19319 29.3086C9.14448 29.2064 9.09905 29.1138 9.0536 29.0116C8.48216 29.5226 7.89446 30.0017 7.52757 30.0017C7.40643 29.9999 7.29046 29.9531 7.20289 29.8708C5.90416 28.8679 4.85544 25.029 6.39118 20.7078C7.19639 18.4499 7.78407 17.019 8.17693 16.0705C8.48684 15.3983 8.73566 14.7004 8.92047 13.985C9.06457 13.3639 9.09427 12.7224 9.00814 12.0911C8.75813 12.206 8.49838 12.3274 8.22889 12.4583C7.83179 12.6499 7.44592 12.8631 7.07305 13.0971C7.07305 13.244 7.03084 13.4165 6.99188 13.5921C6.83053 14.1876 6.61872 14.7688 6.35872 15.3295C5.95937 16.2877 5.35871 17.7536 4.53727 20.0563C2.76775 25.0322 3.92038 29.8388 6.00483 31.4357C6.43132 31.7784 6.96393 31.9677 7.51461 31.9723C8.4367 31.9723 9.21594 31.4581 9.99193 30.8001C9.69463 30.3197 9.42368 29.824 9.18023 29.315" fill="white"/>
<path d="M3.79353 19.7817L3.90395 19.4624C2.42016 19.3698 2.04351 19.2196 1.98182 18.7693C1.76753 17.1373 3.74807 13.688 7.89425 11.7207C10.0631 10.6891 11.495 10.0951 12.4398 9.69903C13.1347 9.44006 13.8041 9.11936 14.4398 8.7409C14.9859 8.40333 15.4645 7.97037 15.8522 7.46339L15.0308 7.16637C14.6233 7.02116 14.2082 6.8975 13.7872 6.7959C13.6671 6.89491 13.5275 6.99711 13.3619 7.11527C12.8247 7.41916 12.2633 7.67977 11.6833 7.89455C10.7093 8.29377 9.26117 8.90059 7.04684 9.95134C2.27078 12.2189 -0.313677 16.4315 0.0304848 19.0344C0.270749 20.8708 1.84545 21.27 3.31301 21.3978C3.44373 20.8493 3.60303 20.3078 3.79028 19.7754" fill="white"/>
<path d="M16.2291 3.8128L16.5116 3.915C16.6285 2.4331 16.9564 2.04346 17.2421 1.99875C17.3232 1.99375 17.4045 1.99375 17.4856 1.99875C19.4078 1.99875 22.5604 4.26632 24.3039 7.92318C25.3332 10.0917 25.9273 11.5194 26.3267 12.4679C26.5798 13.1533 26.8949 13.8149 27.2683 14.4448C27.6021 14.9837 28.0335 15.4578 28.5411 15.8437C28.632 15.5914 28.7294 15.3263 28.8268 15.0453C28.9757 14.6262 29.1025 14.1998 29.2066 13.7678C29.1004 13.6382 29.0017 13.5028 28.9112 13.3622C28.6059 12.8248 28.3453 12.2641 28.132 11.6854C27.7293 10.7273 27.1222 9.26456 26.0702 7.05447C23.8949 2.47781 20.0214 0.0090332 17.4791 0.0090332C17.312 0.00981585 17.145 0.0204805 16.9792 0.0409704C15.3006 0.264534 14.7583 1.86142 14.583 3.31458C15.1329 3.4453 15.6749 3.60631 16.2064 3.79684" fill="white"/>
<path d="M35.9664 17.0001C35.7457 15.3234 34.1482 14.7804 32.6904 14.6016C32.5605 15.1625 32.399 15.7159 32.2066 16.2591C32.1741 16.3517 32.1417 16.438 32.1125 16.5242C33.5898 16.6424 33.9794 16.9713 34.0184 17.2588C34.2326 18.8908 32.2521 22.3401 28.1059 24.3106C25.937 25.339 24.5052 25.9362 23.5603 26.3291C22.8661 26.5894 22.1968 26.91 21.5603 27.2872C21.0136 27.6239 20.5348 28.057 20.1479 28.5647L20.9694 28.8585C21.3767 29.0036 21.7918 29.1262 22.213 29.2258C22.3331 29.13 22.4727 29.0278 22.6415 28.9064C23.1784 28.6019 23.7398 28.3413 24.3201 28.1272C25.2942 27.7279 26.7422 27.1211 28.9533 26.0704C33.7261 23.8028 36.3139 19.5902 35.9697 16.9873" fill="white"/>
<path d="M19.7677 32.2213L19.4852 32.1223C19.3683 33.601 19.0372 33.9907 18.7514 34.0386C18.6718 34.049 18.5915 34.0543 18.5112 34.0545C16.5858 34.0545 13.4364 31.787 11.6929 28.1301C10.6636 25.9647 10.0695 24.5339 9.67011 23.5886C9.41341 22.8949 9.09505 22.2248 8.71877 21.5861C8.39082 21.0497 7.96482 20.5776 7.46226 20.1936L7.17654 20.9793C7.03135 21.3987 6.9078 21.8251 6.8064 22.2568C6.89731 22.3686 6.99147 22.5027 7.09537 22.656C7.40114 23.1942 7.66176 23.756 7.87461 24.3359C8.27722 25.294 8.88436 26.7536 9.93308 28.9637C12.1117 33.5372 15.9851 35.99 18.5274 36.0091C18.6947 36.0089 18.8618 35.9972 19.0274 35.974C20.7028 35.7536 21.245 34.1567 21.4236 32.7036C20.8737 32.5729 20.3317 32.4118 19.8001 32.2213" fill="white"/>
</svg>
