<svg width="166" height="47" viewBox="0 0 166 47" fill="none" xmlns="http://www.w3.org/2000/svg">
<g clip-path="url(#clip0_856_89)">
<path d="M5.848 9.156C4.576 9.156 3.524 8.736 2.692 7.896C1.868 7.056 1.456 6.024 1.456 4.8C1.456 3.576 1.868 2.544 2.692 1.704C3.524 0.863999 4.576 0.443999 5.848 0.443999C6.616 0.443999 7.32 0.627999 7.96 0.995999C8.608 1.364 9.112 1.86 9.472 2.484L8.5 3.048C8.26 2.584 7.9 2.216 7.42 1.944C6.948 1.664 6.424 1.524 5.848 1.524C4.88 1.524 4.088 1.836 3.472 2.46C2.864 3.084 2.56 3.864 2.56 4.8C2.56 5.728 2.864 6.504 3.472 7.128C4.088 7.752 4.88 8.064 5.848 8.064C6.424 8.064 6.948 7.928 7.42 7.656C7.9 7.376 8.26 7.008 8.5 6.552L9.472 7.104C9.12 7.728 8.62 8.228 7.972 8.604C7.324 8.972 6.616 9.156 5.848 9.156ZM11.7071 4.008C12.0511 3.264 12.6751 2.892 13.5791 2.892V3.984C13.0671 3.96 12.6271 4.096 12.2591 4.392C11.8911 4.688 11.7071 5.164 11.7071 5.82V9H10.6631V3H11.7071V4.008ZM15.0045 6.48C15.1085 7.016 15.3525 7.432 15.7365 7.728C16.1285 8.024 16.6085 8.172 17.1765 8.172C17.9685 8.172 18.5445 7.88 18.9045 7.296L19.7925 7.8C19.2085 8.704 18.3285 9.156 17.1525 9.156C16.2005 9.156 15.4245 8.86 14.8245 8.268C14.2325 7.668 13.9365 6.912 13.9365 6C13.9365 5.096 14.2285 4.344 14.8125 3.744C15.3965 3.144 16.1525 2.844 17.0805 2.844C17.9605 2.844 18.6765 3.156 19.2285 3.78C19.7885 4.396 20.0685 5.14 20.0685 6.012C20.0685 6.164 20.0565 6.32 20.0325 6.48H15.0045ZM17.0805 3.828C16.5205 3.828 16.0565 3.988 15.6885 4.308C15.3205 4.62 15.0925 5.04 15.0045 5.568H19.0125C18.9245 5 18.7005 4.568 18.3405 4.272C17.9805 3.976 17.5605 3.828 17.0805 3.828ZM26.2248 3H27.2688V9H26.2248V7.968C25.7048 8.76 24.9488 9.156 23.9568 9.156C23.1168 9.156 22.4008 8.852 21.8088 8.244C21.2168 7.628 20.9208 6.88 20.9208 6C20.9208 5.12 21.2168 4.376 21.8088 3.768C22.4008 3.152 23.1168 2.844 23.9568 2.844C24.9488 2.844 25.7048 3.24 26.2248 4.032V3ZM24.0888 8.148C24.6968 8.148 25.2048 7.944 25.6128 7.536C26.0208 7.12 26.2248 6.608 26.2248 6C26.2248 5.392 26.0208 4.884 25.6128 4.476C25.2048 4.06 24.6968 3.852 24.0888 3.852C23.4888 3.852 22.9848 4.06 22.5768 4.476C22.1688 4.884 21.9648 5.392 21.9648 6C21.9648 6.608 22.1688 7.12 22.5768 7.536C22.9848 7.944 23.4888 8.148 24.0888 8.148ZM32.1146 4.008H30.5186V7.26C30.5186 7.556 30.5746 7.768 30.6866 7.896C30.8066 8.016 30.9866 8.08 31.2266 8.088C31.4666 8.088 31.7626 8.08 32.1146 8.064V9C31.2026 9.12 30.5346 9.048 30.1106 8.784C29.6866 8.512 29.4746 8.004 29.4746 7.26V4.008H28.2866V3H29.4746V1.632L30.5186 1.32V3H32.1146V4.008ZM33.7779 6.48C33.8819 7.016 34.1259 7.432 34.5099 7.728C34.9019 8.024 35.3819 8.172 35.9499 8.172C36.7419 8.172 37.3179 7.88 37.6779 7.296L38.5659 7.8C37.9819 8.704 37.1019 9.156 35.9259 9.156C34.9739 9.156 34.1979 8.86 33.5979 8.268C33.0059 7.668 32.7099 6.912 32.7099 6C32.7099 5.096 33.0019 4.344 33.5859 3.744C34.1699 3.144 34.9259 2.844 35.8539 2.844C36.7339 2.844 37.4499 3.156 38.0019 3.78C38.5619 4.396 38.8419 5.14 38.8419 6.012C38.8419 6.164 38.8299 6.32 38.8059 6.48H33.7779ZM35.8539 3.828C35.2939 3.828 34.8299 3.988 34.4619 4.308C34.0939 4.62 33.8659 5.04 33.7779 5.568H37.7859C37.6979 5 37.4739 4.568 37.1139 4.272C36.7539 3.976 36.3339 3.828 35.8539 3.828ZM44.9983 0.599999H46.0423V9H44.9983V7.968C44.4783 8.76 43.7223 9.156 42.7303 9.156C41.8903 9.156 41.1743 8.852 40.5823 8.244C39.9903 7.628 39.6943 6.88 39.6943 6C39.6943 5.12 39.9903 4.376 40.5823 3.768C41.1743 3.152 41.8903 2.844 42.7303 2.844C43.7223 2.844 44.4783 3.24 44.9983 4.032V0.599999ZM42.8623 8.148C43.4703 8.148 43.9783 7.944 44.3863 7.536C44.7943 7.12 44.9983 6.608 44.9983 6C44.9983 5.392 44.7943 4.884 44.3863 4.476C43.9783 4.06 43.4703 3.852 42.8623 3.852C42.2623 3.852 41.7583 4.06 41.3503 4.476C40.9423 4.884 40.7383 5.392 40.7383 6C40.7383 6.608 40.9423 7.12 41.3503 7.536C41.7583 7.944 42.2623 8.148 42.8623 8.148ZM53.936 2.844C54.776 2.844 55.492 3.152 56.084 3.768C56.676 4.376 56.972 5.12 56.972 6C56.972 6.88 56.676 7.628 56.084 8.244C55.492 8.852 54.776 9.156 53.936 9.156C52.944 9.156 52.188 8.76 51.668 7.968V9H50.624V0.599999H51.668V4.032C52.188 3.24 52.944 2.844 53.936 2.844ZM53.804 8.148C54.404 8.148 54.908 7.944 55.316 7.536C55.724 7.12 55.928 6.608 55.928 6C55.928 5.392 55.724 4.884 55.316 4.476C54.908 4.06 54.404 3.852 53.804 3.852C53.196 3.852 52.688 4.06 52.28 4.476C51.872 4.884 51.668 5.392 51.668 6C51.668 6.608 51.872 7.12 52.28 7.536C52.688 7.944 53.196 8.148 53.804 8.148ZM62.1714 3H63.2874L60.8394 9.372C60.5834 10.052 60.2234 10.568 59.7594 10.92C59.3034 11.28 58.7754 11.44 58.1754 11.4V10.428C58.9114 10.484 59.4514 10.076 59.7954 9.204L59.9034 8.976L57.2874 3H58.4034L60.4434 7.704L62.1714 3Z" fill="white"/>
<path d="M9.2273 22.1729H10.446V34.3599H9.2273V28.6668H2.6115V34.3599H1.3928V22.1729H2.6115V27.5177H9.2273V22.1729ZM14.4449 33.2108H20.3643V34.3599H13.2262V22.1729H20.2772V23.3219H14.4449V27.6396H19.842V28.7887H14.4449V33.2108ZM29.9445 34.3599L27.0893 29.4851H23.6769V34.3599H22.4582V22.1729H27.333C28.3428 22.1729 29.2017 22.5327 29.9097 23.2523C30.6293 23.9603 30.9891 24.8192 30.9891 25.829C30.9891 26.653 30.7396 27.3901 30.2405 28.04C29.753 28.6784 29.1263 29.1078 28.3602 29.3284L31.3373 34.3599H29.9445ZM23.6769 23.3219V28.336H27.333C28.0062 28.336 28.5807 28.0923 29.0566 27.6048C29.5325 27.1057 29.7704 26.5138 29.7704 25.829C29.7704 25.1326 29.5325 24.5406 29.0566 24.0531C28.5807 23.5657 28.0062 23.3219 27.333 23.3219H23.6769ZM43.1648 32.7407C41.9461 33.9594 40.4547 34.5688 38.6905 34.5688C36.9262 34.5688 35.4348 33.9594 34.2161 32.7407C32.9974 31.5104 32.388 30.019 32.388 28.2664C32.388 26.5138 32.9974 25.0281 34.2161 23.8094C35.4348 22.5791 36.9262 21.9639 38.6905 21.9639C40.4547 21.9639 41.9461 22.5791 43.1648 23.8094C44.3835 25.0281 44.9929 26.5138 44.9929 28.2664C44.9929 30.019 44.3835 31.5104 43.1648 32.7407ZM35.0692 31.9051C36.0441 32.8916 37.2512 33.3849 38.6905 33.3849C40.1297 33.3849 41.3368 32.8916 42.3117 31.9051C43.2867 30.9069 43.7742 29.694 43.7742 28.2664C43.7742 26.8387 43.2867 25.6316 42.3117 24.6451C41.3368 23.6469 40.1297 23.1478 38.6905 23.1478C37.2512 23.1478 36.0441 23.6469 35.0692 24.6451C34.0942 25.6316 33.6067 26.8387 33.6067 28.2664C33.6067 29.694 34.0942 30.9069 35.0692 31.9051ZM50.2109 21.5461H47.8779V34.9866H50.2109V36.1009H46.7288V20.4319H50.2109V21.5461ZM51.9566 22.1729H53.1753V34.3599H51.9566V22.1729ZM63.8036 22.1729H65.0223V34.3599H63.9777L57.1878 24.4362V34.3599H55.9691V22.1729H57.0137L63.8036 32.0966V22.1729ZM70.2398 20.4319V36.1009H66.7578V34.9866H69.0908V21.5461H66.7578V20.4319H70.2398ZM83.8244 22.1729V34.3599H82.6057V24.0183L78.3402 31.1564H78.1661L73.9007 24.0183V34.3599H72.682V22.1729H74.1967L78.2532 28.9628L82.3097 22.1729H83.8244ZM94.7197 34.3599L93.588 31.3653H87.8079L86.6762 34.3599H85.3879L90.0712 22.1729H91.3247L96.008 34.3599H94.7197ZM88.2431 30.2163H93.1528L90.6979 23.6875L88.2431 30.2163ZM105.059 34.3599L102.204 29.4851H98.7915V34.3599H97.5728V22.1729H102.448C103.457 22.1729 104.316 22.5327 105.024 23.2523C105.744 23.9603 106.104 24.8192 106.104 25.829C106.104 26.653 105.854 27.3901 105.355 28.04C104.868 28.6784 104.241 29.1078 103.475 29.3284L106.452 34.3599H105.059ZM98.7915 23.3219V28.336H102.448C103.121 28.336 103.695 28.0923 104.171 27.6048C104.647 27.1057 104.885 26.5138 104.885 25.829C104.885 25.1326 104.647 24.5406 104.171 24.0531C103.695 23.5657 103.121 23.3219 102.448 23.3219H98.7915ZM116.73 34.3599H115.128L109.418 28.4579V34.3599H108.199V22.1729H109.418V27.7441L114.954 22.1729H116.556L110.706 28.0923L116.73 34.3599ZM119.517 33.2108H125.436V34.3599H118.298V22.1729H125.349V23.3219H119.517V27.6396H124.914V28.7887H119.517V33.2108ZM135.191 22.1729V23.3219H131.448V34.3599H130.229V23.3219H126.486V22.1729H135.191ZM136.932 22.1729H138.151V34.3599H136.932V22.1729ZM148.779 22.1729H149.998V34.3599H148.953L142.164 24.4362V34.3599H140.945V22.1729H141.989L148.779 32.0966V22.1729ZM164.425 28.5623V29.1891C164.425 30.698 163.886 31.9747 162.806 33.0193C161.727 34.0523 160.282 34.5688 158.471 34.5688C156.626 34.5688 155.1 33.9594 153.892 32.7407C152.685 31.522 152.082 30.0306 152.082 28.2664C152.082 26.5021 152.685 25.0107 153.892 23.792C155.1 22.5733 156.626 21.9639 158.471 21.9639C159.597 21.9639 160.63 22.2367 161.57 22.7822C162.51 23.3277 163.236 24.0531 163.746 24.9585L162.667 25.5852C162.284 24.8424 161.715 24.2505 160.961 23.8094C160.206 23.3683 159.377 23.1478 158.471 23.1478C156.951 23.1478 155.709 23.6411 154.746 24.6277C153.782 25.6142 153.3 26.8271 153.3 28.2664C153.3 29.7056 153.782 30.9185 154.746 31.9051C155.709 32.8916 156.951 33.3849 158.471 33.3849C159.841 33.3849 160.938 33.0425 161.762 32.3577C162.586 31.6613 163.056 30.7792 163.172 29.7114H158.332V28.5623H164.425Z" fill="white"/>
<path d="M3.1762 38.8397H2.05462V45.3013H3.1762V45.837H1.5022V38.304H3.1762V38.8397ZM6.27539 39.141C7.07333 39.141 7.73177 39.4256 8.25071 39.9947C8.77523 40.5583 9.03749 41.2502 9.03749 42.0705C9.03749 42.8908 8.77523 43.5855 8.25071 44.1546C7.73177 44.7182 7.07333 45 6.27539 45H4.01549V39.141H6.27539ZM6.27539 44.4476C6.91709 44.4476 7.44161 44.2188 7.84895 43.7612C8.26187 43.3037 8.46833 42.7401 8.46833 42.0705C8.46833 41.4009 8.26187 40.8373 7.84895 40.3798C7.44161 39.9222 6.91709 39.6934 6.27539 39.6934H4.60139V44.4476H6.27539ZM10.0396 39.141H10.6255V45H10.0396V39.141ZM17.5682 42.2128V42.5141C17.5682 43.2395 17.3087 43.8533 16.7897 44.3555C16.2708 44.8521 15.5761 45.1004 14.7056 45.1004C13.8184 45.1004 13.0846 44.8075 12.5043 44.2216C11.924 43.6357 11.6338 42.9187 11.6338 42.0705C11.6338 41.2223 11.924 40.5053 12.5043 39.9194C13.0846 39.3335 13.8184 39.0406 14.7056 39.0406C15.2469 39.0406 15.7435 39.1717 16.1955 39.4339C16.6475 39.6962 16.9962 40.045 17.2417 40.4802L16.7228 40.7815C16.5386 40.4244 16.2652 40.1398 15.9025 39.9278C15.5398 39.7157 15.1409 39.6097 14.7056 39.6097C13.9746 39.6097 13.3776 39.8469 12.9144 40.3212C12.4513 40.7955 12.2197 41.3786 12.2197 42.0705C12.2197 42.7624 12.4513 43.3455 12.9144 43.8198C13.3776 44.2941 13.9746 44.5313 14.7056 44.5313C15.3641 44.5313 15.8914 44.3667 16.2875 44.0374C16.6837 43.7026 16.9097 43.2786 16.9655 42.7652H14.6387V42.2128H17.5682ZM18.5731 39.141H19.159V45H18.5731V39.141ZM24.1849 39.141V39.6934H22.3854V45H21.7995V39.6934H19.9999V39.141H24.1849ZM28.5058 45L27.9617 43.5604H25.1829L24.6388 45H24.0195L26.271 39.141H26.8736L29.1252 45H28.5058ZM25.3921 43.0079H27.7525L26.5723 39.8692L25.3921 43.0079ZM30.4634 44.4476H33.1418V45H29.8775V39.141H30.4634V44.4476ZM39.9737 45L39.4296 43.5604H36.6508L36.1067 45H35.4873L37.7389 39.141H38.3415L40.593 45H39.9737ZM36.86 43.0079H39.2204L38.0402 39.8692L36.86 43.0079ZM43.6053 39.141C44.4032 39.141 45.0616 39.4256 45.5806 39.9947C46.1051 40.5583 46.3674 41.2502 46.3674 42.0705C46.3674 42.8908 46.1051 43.5855 45.5806 44.1546C45.0616 44.7182 44.4032 45 43.6053 45H41.3454V39.141H43.6053ZM43.6053 44.4476C44.247 44.4476 44.7715 44.2188 45.1788 43.7612C45.5917 43.3037 45.7982 42.7401 45.7982 42.0705C45.7982 41.4009 45.5917 40.8373 45.1788 40.3798C44.7715 39.9222 44.247 39.6934 43.6053 39.6934H41.9313V44.4476H43.6053ZM49.6294 39.141C50.4273 39.141 51.0858 39.4256 51.6047 39.9947C52.1292 40.5583 52.3915 41.2502 52.3915 42.0705C52.3915 42.8908 52.1292 43.5855 51.6047 44.1546C51.0858 44.7182 50.4273 45 49.6294 45H47.3695V39.141H49.6294ZM49.6294 44.4476C50.2711 44.4476 50.7956 44.2188 51.2029 43.7612C51.6159 43.3037 51.8223 42.7401 51.8223 42.0705C51.8223 41.4009 51.6159 40.8373 51.2029 40.3798C50.7956 39.9222 50.2711 39.6934 49.6294 39.6934H47.9554V44.4476H49.6294ZM53.3936 39.141H53.9795V45H53.3936V39.141ZM58.0596 45.1004C57.1724 45.1004 56.4386 44.8075 55.8583 44.2216C55.278 43.6357 54.9878 42.9187 54.9878 42.0705C54.9878 41.2223 55.278 40.5053 55.8583 39.9194C56.4386 39.3335 57.1724 39.0406 58.0596 39.0406C58.6009 39.0406 59.0975 39.1717 59.5495 39.4339C60.0014 39.6906 60.3502 40.0394 60.5957 40.4802L60.0768 40.7815C59.8926 40.4244 59.6192 40.1398 59.2565 39.9278C58.8938 39.7157 58.4948 39.6097 58.0596 39.6097C57.3286 39.6097 56.7316 39.8469 56.2684 40.3212C55.8053 40.7955 55.5737 41.3786 55.5737 42.0705C55.5737 42.7624 55.8053 43.3455 56.2684 43.8198C56.7316 44.2941 57.3286 44.5313 58.0596 44.5313C58.4948 44.5313 58.8938 44.4253 59.2565 44.2132C59.6192 44.0012 59.8926 43.7166 60.0768 43.3595L60.5957 43.6524C60.3558 44.0932 60.007 44.4448 59.5495 44.7071C59.0975 44.9693 58.6009 45.1004 58.0596 45.1004ZM65.1603 39.141V39.6934H63.3607V45H62.7748V39.6934H60.9753V39.141H65.1603ZM65.9976 39.141H66.5835V45H65.9976V39.141ZM72.7729 44.2216C72.187 44.8075 71.4699 45.1004 70.6218 45.1004C69.7736 45.1004 69.0566 44.8075 68.4707 44.2216C67.8848 43.6301 67.5918 42.9131 67.5918 42.0705C67.5918 41.2279 67.8848 40.5137 68.4707 39.9278C69.0566 39.3363 69.7736 39.0406 70.6218 39.0406C71.4699 39.0406 72.187 39.3363 72.7729 39.9278C73.3588 40.5137 73.6517 41.2279 73.6517 42.0705C73.6517 42.9131 73.3588 43.6301 72.7729 44.2216ZM68.8808 43.8198C69.3495 44.2941 69.9299 44.5313 70.6218 44.5313C71.3137 44.5313 71.894 44.2941 72.3627 43.8198C72.8315 43.3399 73.0658 42.7568 73.0658 42.0705C73.0658 41.3842 72.8315 40.8038 72.3627 40.3295C71.894 39.8497 71.3137 39.6097 70.6218 39.6097C69.9299 39.6097 69.3495 39.8497 68.8808 40.3295C68.4121 40.8038 68.1777 41.3842 68.1777 42.0705C68.1777 42.7568 68.4121 43.3399 68.8808 43.8198ZM78.4202 39.141H79.0061V45H78.5039L75.2396 40.2291V45H74.6537V39.141H75.1559L78.4202 43.9119V39.141ZM81.5145 38.304V45.837H79.8405V45.3013H80.9621V38.8397H79.8405V38.304H81.5145ZM90.1379 39.141V45H89.552V40.0282L87.5013 43.4599H87.4176L85.367 40.0282V45H84.7811V39.141H85.5093L87.4595 42.4053L89.4097 39.141H90.1379ZM95.3759 45L94.8318 43.5604H92.053L91.5089 45H90.8895L93.1411 39.141H93.7437L95.9952 45H95.3759ZM92.2622 43.0079H94.6226L93.4424 39.8692L92.2622 43.0079ZM100.347 45L98.974 42.6564H97.3335V45H96.7476V39.141H99.0912C99.5766 39.141 99.9895 39.314 100.33 39.6599C100.676 40.0003 100.849 40.4132 100.849 40.8987C100.849 41.2949 100.729 41.6492 100.489 41.9617C100.255 42.2686 99.9533 42.475 99.585 42.5811L101.016 45H100.347ZM97.3335 39.6934V42.104H99.0912C99.4148 42.104 99.691 41.9868 99.9198 41.7524C100.149 41.5125 100.263 41.2279 100.263 40.8987C100.263 40.5639 100.149 40.2793 99.9198 40.045C99.691 39.8106 99.4148 39.6934 99.0912 39.6934H97.3335ZM105.958 45H105.187L102.442 42.1626V45H101.856V39.141H102.442V41.8194L105.104 39.141H105.874L103.061 41.9868L105.958 45ZM107.297 44.4476H110.143V45H106.711V39.141H110.101V39.6934H107.297V41.7692H109.892V42.3216H107.297V44.4476ZM114.833 39.141V39.6934H113.033V45H112.447V39.6934H110.648V39.141H114.833ZM115.67 39.141H116.256V45H115.67V39.141ZM121.366 39.141H121.951V45H121.449L118.185 40.2291V45H117.599V39.141H118.101L121.366 43.9119V39.141ZM128.888 42.2128V42.5141C128.888 43.2395 128.628 43.8533 128.109 44.3555C127.59 44.8521 126.895 45.1004 126.025 45.1004C125.138 45.1004 124.404 44.8075 123.824 44.2216C123.243 43.6357 122.953 42.9187 122.953 42.0705C122.953 41.2223 123.243 40.5053 123.824 39.9194C124.404 39.3335 125.138 39.0406 126.025 39.0406C126.566 39.0406 127.063 39.1717 127.515 39.4339C127.967 39.6962 128.316 40.045 128.561 40.4802L128.042 40.7815C127.858 40.4244 127.585 40.1398 127.222 39.9278C126.859 39.7157 126.46 39.6097 126.025 39.6097C125.294 39.6097 124.697 39.8469 124.234 40.3212C123.771 40.7955 123.539 41.3786 123.539 42.0705C123.539 42.7624 123.771 43.3455 124.234 43.8198C124.697 44.2941 125.294 44.5313 126.025 44.5313C126.683 44.5313 127.211 44.3667 127.607 44.0374C128.003 43.7026 128.229 43.2786 128.285 42.7652H125.958V42.2128H128.888ZM135.885 45L135.341 43.5604H132.562L132.018 45H131.399L133.651 39.141H134.253L136.505 45H135.885ZM132.772 43.0079H135.132L133.952 39.8692L132.772 43.0079ZM142.644 42.2128V42.5141C142.644 43.2395 142.385 43.8533 141.866 44.3555C141.347 44.8521 140.652 45.1004 139.782 45.1004C138.894 45.1004 138.161 44.8075 137.58 44.2216C137 43.6357 136.71 42.9187 136.71 42.0705C136.71 41.2223 137 40.5053 137.58 39.9194C138.161 39.3335 138.894 39.0406 139.782 39.0406C140.323 39.0406 140.819 39.1717 141.271 39.4339C141.723 39.6962 142.072 40.045 142.318 40.4802L141.799 40.7815C141.615 40.4244 141.341 40.1398 140.978 39.9278C140.616 39.7157 140.217 39.6097 139.782 39.6097C139.051 39.6097 138.453 39.8469 137.99 40.3212C137.527 40.7955 137.296 41.3786 137.296 42.0705C137.296 42.7624 137.527 43.3455 137.99 43.8198C138.453 44.2941 139.051 44.5313 139.782 44.5313C140.44 44.5313 140.967 44.3667 141.363 44.0374C141.76 43.7026 141.986 43.2786 142.041 42.7652H139.715V42.2128H142.644ZM144.235 44.4476H147.081V45H143.649V39.141H147.039V39.6934H144.235V41.7692H146.83V42.3216H144.235V44.4476ZM151.854 39.141H152.44V45H151.938L148.673 40.2291V45H148.087V39.141H148.59L151.854 43.9119V39.141ZM156.513 45.1004C155.626 45.1004 154.892 44.8075 154.312 44.2216C153.732 43.6357 153.442 42.9187 153.442 42.0705C153.442 41.2223 153.732 40.5053 154.312 39.9194C154.892 39.3335 155.626 39.0406 156.513 39.0406C157.055 39.0406 157.551 39.1717 158.003 39.4339C158.455 39.6906 158.804 40.0394 159.049 40.4802L158.531 40.7815C158.346 40.4244 158.073 40.1398 157.71 39.9278C157.348 39.7157 156.949 39.6097 156.513 39.6097C155.782 39.6097 155.185 39.8469 154.722 40.3212C154.259 40.7955 154.027 41.3786 154.027 42.0705C154.027 42.7624 154.259 43.3455 154.722 43.8198C155.185 44.2941 155.782 44.5313 156.513 44.5313C156.949 44.5313 157.348 44.4253 157.71 44.2132C158.073 44.0012 158.346 43.7166 158.531 43.3595L159.049 43.6524C158.81 44.0932 158.461 44.4448 158.003 44.7071C157.551 44.9693 157.055 45.1004 156.513 45.1004ZM164.117 39.141L162 42.5978V45H161.414V42.5811L159.304 39.141H159.966L161.715 42.0119L163.456 39.141H164.117Z" fill="white"/>
</g>
<defs>
<clipPath id="clip0_856_89">
<rect width="165.11" height="46.62" fill="white"/>
</clipPath>
</defs>
</svg>
