<svg width="162" height="30" viewBox="0 0 162 30" fill="none" xmlns="http://www.w3.org/2000/svg">
<g clip-path="url(#clip0_820_389)">
<path d="M106.671 16.776H109.731C109.191 15.3358 108.831 13.8956 108.29 12.4556C107.75 13.8956 107.211 15.3358 106.671 16.776Z" fill="#F57913"/>
<path d="M72.4668 10.835C70.8467 10.835 70.3066 11.915 70.3066 13.3551V16.9553C70.3066 18.3953 70.8467 19.4754 72.4668 19.4754C74.087 19.4754 74.627 18.3953 74.627 16.9553V13.3551C74.627 11.915 74.087 10.835 72.4668 10.835Z" fill="#F57913"/>
<path d="M83.9875 11.0137H82.0074V14.6138H84.1675C85.4275 14.6138 85.7875 13.8937 85.7875 13.1737V12.4537C85.7875 11.7337 85.4274 11.0137 83.9875 11.0137Z" fill="#F57913"/>
<path d="M60.9458 12.2725V17.8533C62.7459 17.8533 63.2858 16.7731 63.2858 15.3329V14.7929C63.2858 13.3526 62.5659 12.2725 60.9458 12.2725Z" fill="#F57913"/>
<path d="M56.087 14.9738V15.5138C56.087 16.9538 56.8072 18.0338 58.4273 18.0338V12.4536C56.8072 12.2736 56.087 13.3537 56.087 14.9738Z" fill="#F57913"/>
<path d="M35.3866 16.7753H38.447C37.9069 15.3352 37.5469 13.895 37.0069 12.4548C36.2867 13.895 35.7467 15.3352 35.3866 16.7753Z" fill="#F57913"/>
<path d="M157.075 0.752686L4.964 0.752686C3.70391 0.752686 2.62385 1.29273 1.9038 2.01278C1.00373 2.91284 0.643677 3.99293 0.643677 5.07301V24.8744C0.643677 25.9546 1.18374 27.2146 1.9038 27.9347C2.80387 28.8347 3.88391 29.1948 4.964 29.1948H157.075C157.616 29.1948 158.156 29.0148 158.696 28.8347C159.236 28.6547 159.776 28.2947 160.136 27.9347C160.496 27.5747 160.856 27.0346 161.036 26.4946C161.216 25.9546 161.396 25.4146 161.396 24.8744V5.07301C161.396 4.53296 161.216 3.99293 161.036 3.45289C160.856 2.91284 160.496 2.37281 160.136 2.01278C159.776 1.65275 159.236 1.29273 158.696 1.11271C158.336 0.752684 157.616 0.752686 157.075 0.752686ZM18.1051 20.5541C18.1051 20.9141 17.925 21.0942 17.745 21.4543C17.565 21.6343 17.205 21.8143 16.8449 21.8143C16.4849 21.8143 16.3049 21.6343 15.9449 21.4543C15.7649 21.2743 15.5848 20.9141 15.5848 20.5541V11.0135H10.9045V20.5541C10.9045 20.9141 10.7244 21.0942 10.5444 21.4543C10.3644 21.6343 10.0044 21.8143 9.64439 21.8143C9.46438 21.8143 9.28437 21.8143 9.10435 21.8143C8.92434 21.8143 8.74431 21.6343 8.74431 21.6343C8.56429 21.4543 8.56428 21.4543 8.56428 21.2743C8.56428 21.0942 8.38425 20.9141 8.38425 20.7341V10.1134C8.38425 9.75331 8.56429 9.5733 8.74431 9.21328C8.92432 9.0333 9.28437 8.85329 9.64439 8.85329H16.8449C17.0249 8.85329 17.205 8.85329 17.385 8.85329C17.565 8.85329 17.745 9.0333 17.745 9.0333C17.925 9.21328 17.925 9.21328 17.925 9.39329C17.925 9.5733 18.1051 9.7534 18.1051 9.7534V20.5541ZM30.346 20.5541C30.346 20.9141 30.166 21.0942 29.986 21.4543C29.806 21.6343 29.4458 21.8143 29.0858 21.8143C28.7258 21.8143 28.3658 21.6343 28.1858 21.4543C28.0058 21.2743 27.8258 20.9141 27.8258 20.5541V11.1935H23.6855V14.0737C23.6855 15.8738 23.5055 18.754 22.6054 20.3741C22.0654 21.2743 21.5254 21.8143 20.8052 21.8143C20.4452 21.8143 20.2652 21.6343 19.9052 21.4543C19.7252 21.2743 19.5452 20.9141 19.5452 20.5541C19.5452 19.8341 20.2652 19.2941 20.6252 18.214C20.9852 17.1339 20.9852 15.8738 20.9852 14.0737V10.1134C20.9852 9.75331 21.1652 9.5733 21.3453 9.21328C21.5253 9.0333 21.8853 8.85329 22.2454 8.85329H28.9059C29.0859 8.85329 29.2658 8.85329 29.2658 8.85329C29.4459 8.85329 29.6259 9.0333 29.6259 9.0333C29.806 9.21328 29.806 9.21328 29.806 9.39329C29.806 9.5733 29.986 9.7534 29.986 9.7534V20.5541H30.346ZM40.6068 21.6343C40.2468 21.6343 40.0667 21.6343 39.8867 21.4543C39.7066 21.2743 39.5267 21.0942 39.5267 20.7341C39.3467 20.0141 39.1666 19.4741 38.9866 18.934H34.8463C34.6663 19.4741 34.4863 20.1941 34.3063 20.7341C34.3063 20.9141 34.1263 21.2743 33.9463 21.4543C33.7662 21.6343 33.4062 21.6343 33.2262 21.6343C33.0462 21.6343 32.8661 21.6343 32.6861 21.4543C32.5061 21.4543 32.3262 21.2743 32.3262 21.0942C32.1462 20.9141 32.1461 20.7341 32.1461 20.5541C32.1461 20.3741 32.1461 20.1941 32.1461 20.0141C33.0462 16.4138 34.1263 12.9936 35.3863 9.5733C35.7463 8.49326 36.4665 8.31324 37.0065 8.31324C37.5465 8.31324 38.2666 8.49326 38.6266 9.5733C40.0667 12.9936 41.1468 16.4138 41.8668 20.0141C42.0468 21.0942 41.3268 21.6343 40.6068 21.6343ZM51.2276 11.0135H48.5274V20.3741C48.5274 20.7341 48.3474 20.9141 48.1673 21.2743C47.9873 21.6343 47.6273 21.6343 47.2673 21.6343C46.9073 21.6343 46.7273 21.4543 46.3672 21.2743C46.0071 21.0942 46.0072 20.7341 46.0072 20.3741V11.0135H43.487C43.307 11.0135 43.127 11.0135 42.947 11.0135C42.767 11.0135 42.5869 10.8335 42.5869 10.8335C42.4069 10.6534 42.407 10.6534 42.407 10.4734C42.407 10.2934 42.2269 10.1134 42.2269 10.1134C42.2269 9.75331 42.4069 9.5733 42.5869 9.21328C42.7669 9.0333 43.1269 8.85329 43.487 8.85329H51.4076C51.5876 8.85329 51.7676 8.85329 51.9476 9.0333C52.1276 9.0333 52.3077 9.21328 52.3077 9.21328C52.4877 9.39329 52.4876 9.39329 52.4876 9.5733C52.4876 9.7534 52.4876 9.93341 52.4876 9.93341C52.4876 10.1134 52.4876 10.2934 52.4876 10.2934C52.4876 10.4734 52.3077 10.6534 52.3077 10.6534C52.1277 10.8335 52.1276 10.8335 51.9476 10.8335C51.5876 11.0135 51.4076 11.0135 51.2276 11.0135ZM65.6287 15.3338C65.6287 17.674 64.3686 20.0141 60.7683 20.0141V20.3741C60.7683 20.5541 60.7683 20.7341 60.7683 20.9141C60.7683 21.0942 60.5883 21.2742 60.5883 21.2742C60.4083 21.4543 60.4083 21.4543 60.2283 21.6343C60.0483 21.8143 59.8682 21.8143 59.6882 21.8143C59.5082 21.8143 59.3282 21.8143 59.1482 21.6343C58.9682 21.6343 58.7881 21.4543 58.7881 21.2742C58.6081 21.0942 58.6082 21.0942 58.6082 20.9141C58.6082 20.7341 58.6082 20.5541 58.6082 20.3741V20.0141C55.188 20.0141 53.7478 17.674 53.7478 15.3338V14.7937C53.7478 12.4535 55.0079 10.1134 58.6082 10.1134V9.7534C58.6082 9.5733 58.6082 9.39329 58.6082 9.21328C58.6082 9.0333 58.7881 8.85329 58.7881 8.85329C58.9682 8.67327 58.9682 8.67327 59.1482 8.49326C59.3282 8.49326 59.5082 8.31324 59.6882 8.31324C59.8682 8.31324 60.0483 8.31324 60.2283 8.49326C60.4083 8.49326 60.5883 8.67327 60.5883 8.85329C60.7683 9.0333 60.7683 9.0333 60.7683 9.21328C60.7683 9.39329 60.7683 9.5733 60.7683 9.7534V10.1134C64.1886 10.1134 65.6287 12.4535 65.6287 14.7937V15.3338ZM76.9696 16.9539C76.9696 19.2941 75.7095 21.6343 72.2892 21.6343C68.8689 21.6343 67.6089 19.2941 67.6089 16.9539V13.3536C67.6089 11.0135 68.6889 8.67327 72.2892 8.67327C75.8895 8.67327 76.9696 11.0135 76.9696 13.3536V16.9539ZM88.1305 13.3536C88.1305 15.5138 86.6903 16.9539 84.1702 16.9539H82.01V20.5541C82.01 20.9141 81.83 21.0942 81.6499 21.4543C81.4699 21.6343 81.1099 21.8143 80.7499 21.8143C80.3899 21.8143 80.2099 21.6343 79.8498 21.4543C79.6698 21.2742 79.4897 20.9141 79.4897 20.5541V9.93341C79.4897 9.5733 79.6698 9.39329 79.8498 9.0333C80.0299 8.85329 80.3899 8.67327 80.7499 8.67327H84.1702C87.2304 8.67327 88.1305 10.4734 88.1305 12.2735V13.3536ZM101.812 20.5541C101.812 20.9141 101.632 21.0942 101.451 21.2742C101.272 21.4543 100.911 21.6343 100.732 21.6343C100.372 21.6343 100.191 21.4543 100.011 21.2742C99.8318 21.0942 99.6512 20.7341 99.6512 20.5541V13.8937L97.3113 18.934C97.1307 19.1141 97.1307 19.2941 96.7714 19.4741C96.4112 19.6541 96.4112 19.6541 96.051 19.6541C95.8714 19.6541 95.5112 19.6541 95.3306 19.4741C95.151 19.2941 94.9713 19.1141 94.9713 18.934L92.6305 13.8937V20.5541C92.6305 20.9141 92.4509 21.0942 92.2712 21.2742C92.0907 21.4543 91.7305 21.6343 91.5508 21.6343C91.1907 21.6343 91.0107 21.4543 90.8307 21.2742C90.6507 21.0942 90.4707 20.7341 90.4707 20.5541V9.7534C90.4707 9.5733 90.4707 9.39329 90.4707 9.39329C90.4707 9.21328 90.6507 9.21328 90.6507 9.0333C90.8307 8.85329 90.8307 8.85329 91.0107 8.85329C91.1907 8.85329 91.3703 8.85329 91.3703 8.85329C91.911 8.85329 92.2712 9.0333 92.6305 9.5733L96.051 16.4138L99.4716 9.39329C99.6512 8.85329 100.191 8.67327 100.551 8.67327C100.732 8.67327 100.911 8.67327 100.911 8.67327C101.091 8.67327 101.091 8.85329 101.272 8.85329C101.451 9.0333 101.451 9.0333 101.451 9.21328C101.451 9.39329 101.451 9.5733 101.451 9.5733L101.812 20.5541ZM111.893 21.6343C111.532 21.6343 111.352 21.6343 111.172 21.4543C110.993 21.2742 110.812 21.0942 110.812 20.7341C110.632 20.0141 110.452 19.4741 110.272 18.934H106.132C105.952 19.4741 105.772 20.1941 105.591 20.7341C105.591 20.9141 105.412 21.2742 105.232 21.4543C105.051 21.6343 104.692 21.6343 104.512 21.6343C104.332 21.6343 104.151 21.6343 103.972 21.4543C103.791 21.4543 103.612 21.2742 103.612 21.0942C103.432 20.9141 103.432 20.7341 103.432 20.5541C103.432 20.3741 103.432 20.1941 103.432 20.0141C104.332 16.4138 105.412 12.9936 106.672 9.5733C107.032 8.49326 107.752 8.31324 108.292 8.31324C108.832 8.31324 109.552 8.49326 109.912 9.5733C111.353 12.9936 112.432 16.4138 113.153 20.0141C113.332 21.0942 112.612 21.6343 111.893 21.6343ZM129.714 20.5541C129.714 20.9141 129.533 21.0942 129.354 21.4543C129.174 21.6343 128.814 21.8143 128.454 21.8143C128.093 21.8143 127.914 21.6343 127.554 21.4543C127.374 21.2742 127.193 20.9141 127.193 20.5541V16.4138H122.693V20.5541C122.693 20.9141 122.513 21.0942 122.333 21.4543C122.153 21.6343 121.793 21.8143 121.433 21.8143C121.073 21.8143 120.893 21.6343 120.533 21.4543C120.353 21.2742 120.173 20.9141 120.173 20.5541V9.93341C120.173 9.7534 120.173 9.5733 120.173 9.39329C120.173 9.21328 120.353 9.0333 120.353 9.0333C120.533 8.85329 120.533 8.85329 120.713 8.85329C120.893 8.85329 121.073 8.67327 121.253 8.67327C121.433 8.67327 121.613 8.67327 121.793 8.67327C121.973 8.67327 122.153 8.85329 122.153 8.85329C122.333 9.0333 122.333 9.0333 122.333 9.21328C122.333 9.39329 122.513 9.5733 122.513 9.7534V14.0737H127.193V9.7534C127.193 9.5733 127.193 9.39329 127.193 9.21328C127.193 9.0333 127.374 8.85329 127.374 8.85329C127.554 8.67327 127.554 8.67327 127.733 8.49326C127.914 8.49326 128.093 8.31324 128.274 8.31324C128.454 8.31324 128.633 8.31324 128.814 8.49326C128.993 8.49326 129.174 8.67327 129.174 8.85329C129.354 9.0333 129.354 9.0333 129.354 9.21328C129.354 9.39329 129.354 9.5733 129.354 9.7534L129.714 20.5541ZM140.335 11.0135H137.635V20.3741C137.635 20.7341 137.454 20.9141 137.274 21.2742C137.094 21.4543 136.735 21.6343 136.374 21.6343C136.014 21.6343 135.835 21.4543 135.474 21.2742C135.294 21.0942 135.114 20.7341 135.114 20.3741V11.0135H132.414C132.234 11.0135 132.054 11.0135 131.874 11.0135C131.694 11.0135 131.514 10.8335 131.514 10.8335C131.333 10.6534 131.333 10.6534 131.333 10.4734C131.333 10.2934 131.154 10.1134 131.154 10.1134C131.154 9.75331 131.333 9.5733 131.514 9.21328C131.694 9.0333 132.054 8.85329 132.414 8.85329H140.335C140.514 8.85329 140.695 8.85329 140.875 9.0333C141.054 9.0333 141.235 9.21328 141.235 9.21328C141.414 9.39329 141.414 9.39329 141.414 9.5733C141.414 9.75331 141.414 9.93341 141.414 9.93341C141.414 10.1134 141.414 10.2934 141.414 10.2934C141.414 10.4734 141.235 10.6534 141.235 10.6534C141.054 10.8335 141.054 10.8335 140.875 10.8335C140.695 11.0135 140.514 11.0135 140.335 11.0135ZM152.935 20.5541C152.935 20.9141 152.756 21.0942 152.575 21.4543C152.396 21.6343 152.035 21.8143 151.675 21.8143C151.315 21.8143 150.956 21.6343 150.775 21.4543C150.595 21.2742 150.415 20.9141 150.415 20.5541V14.0737L145.554 19.4741V20.5541C145.554 20.9141 145.375 21.0942 145.195 21.4543C145.015 21.6343 144.654 21.8143 144.295 21.8143C143.935 21.8143 143.575 21.6343 143.395 21.4543C143.215 21.2742 143.035 20.9141 143.035 20.5541V9.93341C143.035 9.7534 143.035 9.5733 143.035 9.39329C143.035 9.21328 143.215 9.0333 143.215 9.0333C143.395 8.85329 143.395 8.85329 143.575 8.85329C143.754 8.85329 143.935 8.67327 144.115 8.67327C144.475 8.67327 144.835 8.85329 145.015 9.0333C145.195 9.21328 145.375 9.5733 145.375 9.93341V16.4138L150.235 11.0135V9.93341C150.235 9.7534 150.235 9.5733 150.235 9.39329C150.235 9.21328 150.415 9.0333 150.415 9.0333C150.595 8.85329 150.595 8.85329 150.775 8.67327C150.956 8.67327 151.135 8.49326 151.315 8.49326C151.495 8.49326 151.675 8.49326 151.856 8.67327C152.035 8.67327 152.216 8.85329 152.216 9.0333C152.396 9.21328 152.396 9.21328 152.396 9.39329C152.396 9.5733 152.396 9.7534 152.396 9.93341L152.935 20.5541Z" fill="#F57913"/>
</g>
<defs>
<clipPath id="clip0_820_389">
<rect width="161.406" height="29.1808" fill="white" transform="translate(0.120117 0.0163574)"/>
</clipPath>
</defs>
</svg>
