<svg width="120" height="35" viewBox="0 0 120 35" fill="none" xmlns="http://www.w3.org/2000/svg">
<g clip-path="url(#clip0_820_397)">
<path d="M27.3044 2.91724H33.2284C35.2889 2.91724 36.9631 4.64163 36.9631 6.76397V27.8547C36.9631 29.8444 35.2889 31.5689 33.3572 31.5689H27.4332C25.3727 31.5689 23.6985 29.8444 23.6985 27.7221V6.63133C23.6985 4.64163 25.2439 2.91724 27.3044 2.91724ZM27.3044 28.12H33.2284V6.36603H27.3044V28.12Z" fill="#2D2D3F"/>
<path d="M4.51033 2.91724H18.1612C20.093 2.91724 21.6384 4.50899 21.6384 6.49868V27.8547C21.6384 29.8444 20.093 31.4362 18.1612 31.4362H4.51033C2.57859 31.4362 1.0332 29.8444 1.0332 27.8547V6.49868C1.0332 4.50899 2.57859 2.91724 4.51033 2.91724ZM4.76789 28.12H18.0325V6.36603H4.76789V28.12Z" fill="#2D2D3F"/>
<path d="M42.6298 31.5689H38.895V2.91724H42.6298V14.8554H48.5537V2.91724H52.2884V31.5689H48.5537V18.3042H42.6298V31.5689Z" fill="#2D2D3F"/>
<path d="M55.8945 34.4866H53.4477L53.0613 28.1196H55.1218L57.955 6.23298H56.7959L56.0233 2.78418H64.9093C66.5835 2.78418 68 4.11065 68 5.83504L69.4167 27.9869H71.4772L70.8333 34.3539H68.1288L67.4849 31.4358H56.5384L55.8945 34.4866ZM58.5989 28.1196H65.8108L64.7805 6.36563H61.4321C60.7882 10.8756 58.5989 28.1196 58.5989 28.1196Z" fill="#2D2D3F"/>
<path d="M82.6817 31.5689H78.947V2.91724H82.6817V14.8554H88.6057V2.91724H92.3401V31.5689H88.6057V18.3042H82.6817V31.5689Z" fill="#D81200"/>
<path d="M93.8857 2.91724H104.316V6.36603H101.226V31.7015H97.4911V6.36603H93.8857V2.91724Z" fill="#D81200"/>
<path d="M115.521 12.3351L109.597 31.5689H105.863V2.91724H109.597V22.2836L115.521 2.91724H119.256V31.5689H115.521V12.3351Z" fill="#D81200"/>
<path d="M13.2813 34.4868H9.54663L9.55366 1.62476H13.2883L13.2813 34.4868Z" fill="#2D2D3F"/>
</g>
<defs>
<clipPath id="clip0_820_397">
<rect width="119.631" height="34.702" fill="white" transform="translate(0.225586 0.256592)"/>
</clipPath>
</defs>
</svg>
