<svg width="200" height="56" viewBox="0 0 200 56" fill="none" xmlns="http://www.w3.org/2000/svg">
<path d="M61.9173 20.7028H60.8696V14.3059H61.9173L64.0711 17.2136L66.2248 14.3059H67.2725V20.7028H66.2248V15.8179L64.3621 18.2604H63.7218L61.8591 15.8179L61.9173 20.7028Z" fill="#58595B"/>
<path d="M69.8926 20.7028H68.9609V14.3059H70.0087V19.0164L73.6763 14.3059H74.6072V20.7028H73.5595V15.9924L69.8926 20.7028Z" fill="#58595B"/>
<path d="M77.2846 20.7028H76.2368V14.3059H77.2846V16.8647H80.777V14.3059H81.8247V20.7028H80.777V17.737H77.2846V20.7028Z" fill="#58595B"/>
<path d="M84.386 20.7028H83.5127V14.3059H84.5605V19.0164L88.2273 14.3059H89.159V20.7028H88.1112V15.9924L84.386 20.7028Z" fill="#58595B"/>
<path d="M93.9903 20.8192C93.0009 20.8192 92.1276 20.5284 91.4873 19.8888C90.7892 19.249 90.4979 18.4349 90.4979 17.5044C90.4979 16.5158 90.847 15.7598 91.4873 15.1201C92.186 14.4805 93.0009 14.1897 93.9903 14.1897C94.689 14.1897 95.271 14.3641 95.7952 14.5967V15.5853C95.271 15.2364 94.689 15.062 93.9903 15.062C93.2922 15.062 92.7096 15.2946 92.2445 15.7598C91.7786 16.2251 91.5457 16.7485 91.5457 17.4463C91.5457 18.1441 91.7786 18.7257 92.2445 19.1327C92.7096 19.598 93.2922 19.8306 94.0487 19.8306C94.8051 19.8306 95.4455 19.6561 95.9697 19.249V20.2377C95.3294 20.6448 94.689 20.8192 93.9903 20.8192Z" fill="#58595B"/>
<path d="M96.7844 15.2363V14.3059H102.256V15.2363H100.044V20.761H98.9961V15.2363H96.7844Z" fill="#58595B"/>
<path d="M108.251 20.7028H103.362V14.3059H108.135V15.2363H104.41V16.8647H107.436V17.7952H104.41V19.7723H108.251V20.7028Z" fill="#58595B"/>
<path d="M110.405 20.7028H109.415V14.3059H112.326C113.024 14.3059 113.606 14.4804 113.956 14.8293C114.364 15.1782 114.596 15.6434 114.596 16.1668C114.596 16.6902 114.364 17.1554 113.956 17.5625C113.548 17.9114 113.024 18.0859 112.326 18.0859H110.463V20.7028H110.405ZM110.405 15.2363V17.1554H112.151C112.559 17.1554 112.85 17.0391 113.083 16.9228C113.316 16.7484 113.432 16.5157 113.432 16.225C113.432 15.9342 113.316 15.7016 113.083 15.5272C112.85 15.3527 112.559 15.2945 112.151 15.2945L110.405 15.2363Z" fill="#58595B"/>
<path d="M118.962 20.8192C117.972 20.8192 117.099 20.5284 116.459 19.8888C115.76 19.249 115.469 18.4349 115.469 17.5044C115.469 16.5158 115.818 15.7598 116.459 15.1201C117.157 14.4805 117.972 14.1897 118.962 14.1897C119.66 14.1897 120.242 14.3641 120.766 14.5967V15.5853C120.242 15.2364 119.66 15.062 118.962 15.062C118.263 15.062 117.681 15.2946 117.215 15.7598C116.75 16.2251 116.517 16.7485 116.517 17.4463C116.517 18.1441 116.75 18.7257 117.215 19.1327C117.681 19.598 118.263 19.8306 119.02 19.8306C119.777 19.8306 120.417 19.6561 120.941 19.249V20.2377C120.359 20.6448 119.718 20.8192 118.962 20.8192Z" fill="#58595B"/>
<path d="M121.756 15.2363V14.3059H127.227V15.2363H125.016V20.761H123.968V15.2363H121.756Z" fill="#58595B"/>
<path d="M131.594 20.7028H128.334V14.3059H131.361C132.002 14.3059 132.409 14.4804 132.816 14.713C133.165 15.0038 133.34 15.4108 133.34 15.8761C133.34 16.1668 133.224 16.4576 133.108 16.6902C132.933 16.9228 132.758 17.0973 132.467 17.1554C132.875 17.2136 133.224 17.4462 133.457 17.737C133.69 18.0277 133.864 18.4348 133.864 18.9C133.864 19.4235 133.631 19.8887 133.224 20.2376C132.875 20.5284 132.351 20.7028 131.594 20.7028ZM129.382 15.2363V16.8647H131.187C131.536 16.8647 131.827 16.8066 132.002 16.632C132.176 16.4576 132.292 16.2831 132.292 15.9924C132.292 15.7016 132.176 15.5272 132.002 15.3527C131.827 15.1782 131.536 15.1201 131.187 15.1201H129.382V15.2363ZM129.382 17.737V19.7723H131.42C131.827 19.7723 132.176 19.6561 132.351 19.4816C132.583 19.3071 132.7 19.0746 132.7 18.7256C132.7 18.4348 132.583 18.2022 132.351 17.9696C132.118 17.7952 131.827 17.737 131.42 17.737H129.382Z" fill="#58595B"/>
<path d="M140.732 19.8888C140.091 20.5284 139.277 20.8192 138.287 20.8192C137.297 20.8192 136.482 20.5284 135.842 19.8888C135.202 19.249 134.911 18.4349 134.911 17.5044C134.911 16.574 135.202 15.7598 135.842 15.1783C136.482 14.5386 137.297 14.1897 138.287 14.1897C139.277 14.1897 140.091 14.5386 140.732 15.1783C141.372 15.818 141.721 16.6321 141.721 17.5044C141.721 18.3767 141.372 19.249 140.732 19.8888ZM136.657 19.1909C137.123 19.6561 137.647 19.8888 138.287 19.8888C138.927 19.8888 139.51 19.6561 139.917 19.1909C140.382 18.7257 140.615 18.1441 140.615 17.5044C140.615 16.8066 140.382 16.2251 139.917 15.818C139.451 15.3528 138.927 15.1201 138.287 15.1201C137.647 15.1201 137.064 15.3528 136.657 15.818C136.192 16.2832 135.959 16.8066 135.959 17.5044C135.959 18.2023 136.192 18.7257 136.657 19.1909Z" fill="#58595B"/>
<path d="M146.67 20.7028H145.622V14.3059H146.67V16.8647H150.162V14.3059H151.21V20.7028H150.162V17.737H146.67V20.7028Z" fill="#58595B"/>
<path d="M153.362 20.7029H152.257L155.167 14.2478H156.157L159.067 20.7029H157.961L157.205 19.1328H154.061L153.362 20.7029ZM155.691 15.5272L154.469 18.2023H156.913L155.691 15.5272Z" fill="#58595B"/>
<path d="M161.105 20.8192C160.697 20.8192 160.348 20.7611 160.174 20.6447V19.7143C160.407 19.8306 160.64 19.8888 160.93 19.8888C161.222 19.8888 161.396 19.8306 161.629 19.6561C161.803 19.5399 161.978 19.2491 162.211 18.7838L159.592 14.2478H160.814L162.793 17.7371L164.423 14.2478H165.529L163.084 19.3072C162.56 20.354 161.92 20.8192 161.105 20.8192Z" fill="#58595B"/>
<path d="M167.566 20.7028H166.518V14.3059H167.566V16.9228L170.301 14.3059H171.64L168.555 17.2136L172.164 20.7028H170.767L167.624 17.6207V20.7028H167.566Z" fill="#58595B"/>
<path d="M174.027 20.7028H173.154V14.3059H174.202V19.0164L177.869 14.3059H178.8V20.7028H177.753V15.9924L174.027 20.7028Z" fill="#58595B"/>
<path d="M61.8013 31.8103H60.9282V25.4133H61.976V30.1238L65.6431 25.4133H66.5745V31.8103H65.5268V27.0998L61.8013 31.8103Z" fill="#58595B"/>
<path d="M73.9668 31.8103H70.7067V25.4133H73.7339C74.3742 25.4133 74.7817 25.5878 75.1891 25.8204C75.5381 26.1112 75.7126 26.5183 75.7126 26.9835C75.7126 27.2742 75.5965 27.565 75.4804 27.7977C75.3636 28.0303 75.1307 28.2047 74.8401 28.2629C75.2475 28.3211 75.5965 28.5536 75.8294 28.8444C76.0623 29.1352 76.2369 29.5423 76.2369 30.0075C76.2369 30.5309 76.0039 30.9961 75.5965 31.345C75.1891 31.6358 74.6648 31.8103 73.9668 31.8103ZM71.7544 26.2856V27.914H73.5594C73.9084 27.914 74.1997 27.8558 74.3742 27.6813C74.5487 27.5069 74.6648 27.3324 74.6648 27.0417C74.6648 26.7508 74.5487 26.5764 74.3742 26.4019C74.1997 26.2275 73.9084 26.1693 73.5594 26.1693H71.7544V26.2856ZM71.7544 28.8444V30.8798H73.7923C74.1997 30.8798 74.5487 30.7635 74.7233 30.5891C74.9562 30.4146 75.0723 30.182 75.0723 29.833C75.0723 29.5423 74.9562 29.3097 74.7233 29.077C74.4903 28.9026 74.1997 28.8444 73.7923 28.8444H71.7544Z" fill="#58595B"/>
<path d="M80.0784 31.8103H77.5177V25.4133H78.5655V27.6232H80.0784C80.8355 27.6232 81.4759 27.7977 81.941 28.2047C82.4069 28.6118 82.6398 29.077 82.6398 29.7167C82.6398 30.3564 82.4069 30.8216 81.941 31.2287C81.4175 31.6358 80.8355 31.8103 80.0784 31.8103ZM78.5655 28.5536V30.8798H80.0207C80.4858 30.8798 80.8355 30.7635 81.1262 30.5891C81.4175 30.4146 81.5336 30.1238 81.5336 29.7167C81.5336 29.3097 81.4175 29.0188 81.1262 28.8444C80.8355 28.67 80.4858 28.5536 80.0207 28.5536H78.5655ZM84.5024 31.8103H83.4546V25.4133H84.5024V31.8103Z" fill="#58595B"/>
<path d="M89.3334 31.9269C88.344 31.9269 87.4708 31.6362 86.8304 30.9965C86.1317 30.3568 85.8411 29.5426 85.8411 28.6122C85.8411 27.6236 86.1901 26.8676 86.8304 26.2279C87.5292 25.5882 88.344 25.2974 89.3334 25.2974C90.0322 25.2974 90.6141 25.4719 91.1377 25.7045V26.6931C90.6141 26.3442 90.0322 26.1697 89.3334 26.1697C88.6347 26.1697 88.0527 26.4023 87.5869 26.8676C87.1218 27.3328 86.8888 27.8562 86.8888 28.554C86.8888 29.2518 87.1218 29.8334 87.5869 30.2405C88.0527 30.7057 88.6347 30.9383 89.3918 30.9383C90.1483 30.9383 90.7886 30.7639 91.3129 30.3568V31.3454C90.7302 31.7525 90.0899 31.9269 89.3334 31.9269Z" fill="#58595B"/>
<path d="M100.743 31.8103H92.5935V25.4133H93.6413V30.938H96.1443V25.4133H97.192V30.938H99.695V25.4133H100.743V31.8103Z" fill="#58595B"/>
<path d="M107.204 31.8103H102.314V25.4133H107.088V26.3438H103.362V27.914H106.389V28.8444H103.362V30.8798H107.204V31.8103Z" fill="#58595B"/>
<path d="M109.416 31.8103H108.368V25.4133H113.083V26.3438H109.416V31.8103Z" fill="#58595B"/>
<path d="M119.544 30.9965C118.903 31.6362 118.089 31.9269 117.099 31.9269C116.109 31.9269 115.294 31.6362 114.654 30.9965C114.014 30.3568 113.723 29.5426 113.723 28.6122C113.723 27.6817 114.014 26.8676 114.654 26.286C115.294 25.6463 116.109 25.2974 117.099 25.2974C118.089 25.2974 118.903 25.6463 119.544 26.286C120.184 26.9257 120.533 27.7399 120.533 28.6122C120.533 29.4845 120.184 30.3568 119.544 30.9965ZM115.411 30.2987C115.877 30.7639 116.4 30.9965 117.041 30.9965C117.681 30.9965 118.263 30.7639 118.67 30.2987C119.136 29.8334 119.369 29.2518 119.369 28.6122C119.369 27.9143 119.136 27.3328 118.67 26.9257C118.205 26.4605 117.681 26.2279 117.041 26.2279C116.4 26.2279 115.818 26.4605 115.411 26.9257C114.945 27.3909 114.712 27.9143 114.712 28.6122C114.771 29.31 114.945 29.8334 115.411 30.2987Z" fill="#58595B"/>
<path d="M130.021 30.9965C129.381 31.6362 128.566 31.9269 127.577 31.9269C126.587 31.9269 125.772 31.6362 125.132 30.9965C124.491 30.3568 124.201 29.5426 124.201 28.6122C124.201 27.6817 124.491 26.8676 125.132 26.286C125.772 25.6463 126.587 25.2974 127.577 25.2974C128.566 25.2974 129.381 25.6463 130.021 26.286C130.662 26.9257 131.011 27.7399 131.011 28.6122C131.011 29.4845 130.662 30.3568 130.021 30.9965ZM125.889 30.2987C126.355 30.7639 126.878 30.9965 127.518 30.9965C128.159 30.9965 128.741 30.7639 129.148 30.2987C129.614 29.8334 129.847 29.2518 129.847 28.6122C129.847 27.9143 129.614 27.3328 129.148 26.9257C128.682 26.4605 128.159 26.2279 127.518 26.2279C126.878 26.2279 126.296 26.4605 125.889 26.9257C125.423 27.3909 125.19 27.9143 125.19 28.6122C125.248 29.31 125.481 29.8334 125.889 30.2987Z" fill="#58595B"/>
<path d="M135.144 31.8103H132.35V25.4133H137.065V26.3438H133.398V27.6813H135.203C135.959 27.6813 136.541 27.8558 137.007 28.2629C137.414 28.6118 137.705 29.1352 137.705 29.7749C137.705 30.4146 137.473 30.8798 137.007 31.2869C136.541 31.6358 135.901 31.8103 135.144 31.8103ZM133.339 28.6118V30.8798H135.027C135.493 30.8798 135.842 30.7635 136.134 30.5891C136.367 30.3564 136.541 30.1238 136.541 29.7749C136.541 29.4259 136.425 29.1352 136.134 28.9026C135.842 28.67 135.493 28.6118 135.027 28.6118H133.339Z" fill="#58595B"/>
<path d="M139.859 31.8103H138.812V25.4133H141.664C142.362 25.4133 142.945 25.5878 143.294 25.9367C143.701 26.2856 143.934 26.7509 143.934 27.2742C143.934 27.7977 143.701 28.2629 143.294 28.67C142.887 29.0188 142.362 29.1934 141.664 29.1934H139.802V31.8103H139.859ZM139.859 26.2856V28.2047H141.606C142.013 28.2047 142.305 28.0884 142.538 27.9721C142.77 27.8558 142.887 27.565 142.887 27.2742C142.887 26.9835 142.77 26.7508 142.538 26.5764C142.305 26.4019 142.013 26.3438 141.606 26.3438L139.859 26.2856Z" fill="#58595B"/>
<path d="M144.923 31.8104H143.817L146.727 25.3552H147.717L150.627 31.8104H149.579L148.823 30.2402H145.68L144.923 31.8104ZM147.251 26.5765L146.029 29.2516H148.473L147.251 26.5765Z" fill="#58595B"/>
<path d="M153.829 31.9267C152.898 31.9267 152.14 31.7523 151.5 31.4033V30.4147C151.791 30.5892 152.14 30.7636 152.548 30.8218C152.955 30.9381 153.305 30.9963 153.712 30.9963C154.236 30.9963 154.702 30.88 155.051 30.7054C155.401 30.4729 155.517 30.2402 155.517 29.8913C155.517 29.6006 155.342 29.3679 155.051 29.1353C154.76 28.9609 154.353 28.8445 153.829 28.8445H153.072V27.9141H154.003C154.411 27.9141 154.76 27.7978 154.935 27.6815C155.168 27.507 155.284 27.3326 155.284 27.0418C155.284 26.751 155.168 26.5765 154.876 26.4021C154.643 26.2276 154.236 26.1694 153.829 26.1694C153.13 26.1694 152.432 26.344 151.791 26.6347V25.7042C152.432 25.3553 153.13 25.239 153.887 25.239C154.643 25.239 155.225 25.4135 155.633 25.7042C156.099 25.995 156.332 26.4602 156.332 26.9836C156.332 27.3326 156.215 27.6233 155.983 27.8559C155.75 28.0886 155.517 28.263 155.284 28.3212C155.633 28.4374 155.924 28.612 156.215 28.9027C156.506 29.1935 156.623 29.5424 156.623 29.9495C156.623 30.531 156.39 30.9963 155.866 31.4033C155.284 31.7523 154.643 31.9267 153.829 31.9267Z" fill="#58595B"/>
<path d="M163.433 30.9965C162.793 31.6362 161.978 31.9269 160.989 31.9269C159.999 31.9269 159.184 31.6362 158.544 30.9965C157.903 30.3568 157.613 29.5426 157.613 28.6122C157.613 27.6817 157.903 26.8676 158.544 26.286C159.184 25.6463 159.999 25.2974 160.989 25.2974C161.978 25.2974 162.793 25.6463 163.433 26.286C164.074 26.9257 164.423 27.7399 164.423 28.6122C164.423 29.4845 164.074 30.3568 163.433 30.9965ZM159.301 30.2987C159.766 30.7639 160.29 30.9965 160.931 30.9965C161.571 30.9965 162.153 30.7639 162.56 30.2987C163.026 29.8334 163.259 29.2518 163.259 28.6122C163.259 27.9143 163.026 27.3328 162.56 26.9257C162.094 26.5186 161.571 26.2279 160.931 26.2279C160.29 26.2279 159.708 26.4605 159.301 26.9257C158.835 27.3909 158.602 27.9143 158.602 28.6122C158.66 29.31 158.893 29.8334 159.301 30.2987Z" fill="#58595B"/>
<path d="M169.021 31.8103H165.762V25.4133H168.789C169.429 25.4133 169.837 25.5878 170.244 25.8204C170.593 26.1112 170.768 26.5183 170.768 26.9835C170.768 27.2742 170.652 27.565 170.535 27.7977C170.36 28.0303 170.186 28.2047 169.895 28.2629C170.302 28.3211 170.652 28.5536 170.884 28.8444C171.117 29.1352 171.292 29.5423 171.292 30.0075C171.292 30.5309 171.059 30.9961 170.652 31.345C170.244 31.6358 169.662 31.8103 169.021 31.8103ZM166.751 26.2856V27.914H168.556C168.905 27.914 169.197 27.8558 169.371 27.6813C169.546 27.5069 169.662 27.3324 169.662 27.0417C169.662 26.7508 169.546 26.5764 169.371 26.4019C169.197 26.2275 168.905 26.1693 168.556 26.1693H166.751V26.2856ZM166.751 28.8444V30.8798H168.789C169.197 30.8798 169.546 30.7635 169.72 30.5891C169.953 30.4146 170.069 30.182 170.069 29.833C170.069 29.5423 169.953 29.3097 169.72 29.077C169.487 28.9026 169.197 28.8444 168.789 28.8444H166.751Z" fill="#58595B"/>
<path d="M172.979 31.8104H171.873L174.784 25.3552H175.773L178.683 31.8104H177.577L176.821 30.2402H173.678L172.979 31.8104ZM175.307 26.5765L174.085 29.2516H176.53L175.307 26.5765Z" fill="#58595B"/>
<path d="M180.838 31.8104H179.79V25.4134H180.838V27.914H184.33V25.3552H185.378V31.7522H184.33V28.7864H180.838V31.8104Z" fill="#58595B"/>
<path d="M187.88 31.8103H187.007V25.4133H188.055V30.1238L191.722 25.4133H192.654V31.8103H191.606V27.0998L187.88 31.8103Z" fill="#58595B"/>
<path d="M194.982 31.8102H193.702L195.856 29.0188C195.39 28.9025 195.041 28.7281 194.749 28.3791C194.458 28.0883 194.342 27.6812 194.342 27.2742C194.342 26.7508 194.517 26.2855 194.924 25.9366C195.331 25.5877 195.856 25.4714 196.554 25.4714H199.581V31.8684H198.533V29.077H196.961L194.982 31.8102ZM196.612 28.2047H198.592V26.2855H196.612C196.263 26.2855 195.913 26.4019 195.739 26.5182C195.506 26.6926 195.448 26.9253 195.448 27.216C195.448 27.5068 195.564 27.7394 195.739 27.9139C195.972 28.0883 196.263 28.2047 196.612 28.2047Z" fill="#58595B"/>
<path d="M61.9173 42.9177H60.8696V36.5208H63.78C64.4785 36.5208 65.0607 36.6952 65.4099 37.0442C65.8173 37.3931 66.0502 37.8583 66.0502 38.3817C66.0502 38.9051 65.8173 39.3703 65.4099 39.7774C65.0024 40.1263 64.4785 40.3008 63.78 40.3008H61.9173V42.9177ZM61.9173 37.3931V39.3122H63.6636C64.0711 39.3122 64.3621 39.1958 64.595 39.0795C64.8278 38.9051 64.9442 38.6724 64.9442 38.3817C64.9442 38.0909 64.8278 37.8583 64.595 37.6838C64.3621 37.5094 64.0711 37.4512 63.6636 37.4512L61.9173 37.3931Z" fill="#58595B"/>
<path d="M72.8028 42.0453C72.1624 42.685 71.3476 42.9758 70.3575 42.9758C69.3681 42.9758 68.5533 42.685 67.913 42.0453C67.2727 41.4056 66.9817 40.5914 66.9817 39.6609C66.9817 38.7305 67.2727 37.9163 67.913 37.3348C68.5533 36.6951 69.3681 36.3462 70.3575 36.3462C71.3476 36.3462 72.1624 36.6951 72.8028 37.3348C73.4431 37.9745 73.7922 38.7886 73.7922 39.6609C73.7922 40.5914 73.4431 41.4056 72.8028 42.0453ZM68.7278 41.3474C69.1936 41.8127 69.7172 42.0453 70.3575 42.0453C70.9979 42.0453 71.5798 41.8127 71.9879 41.3474C72.4531 40.8822 72.686 40.3007 72.686 39.6609C72.686 39.0213 72.4531 38.3816 71.9879 37.9745C71.5221 37.5093 70.9979 37.2767 70.3575 37.2767C69.7172 37.2767 69.1352 37.5093 68.7278 37.9745C68.2622 38.4397 68.0294 38.9631 68.0294 39.6609C68.0294 40.3588 68.2622 40.9403 68.7278 41.3474Z" fill="#58595B"/>
<path d="M78.4484 43.0341C77.459 43.0341 76.5858 42.7433 75.9454 42.1036C75.2474 41.4639 74.9561 40.6498 74.9561 39.7193C74.9561 38.7307 75.3051 37.9747 75.9454 37.335C76.6442 36.6953 77.459 36.4045 78.4484 36.4045C79.1472 36.4045 79.7291 36.579 80.2533 36.8116V37.8002C79.7291 37.4513 79.1472 37.2768 78.4484 37.2768C77.7504 37.2768 77.1677 37.5094 76.7026 37.9747C76.2367 38.4399 76.0038 38.9633 76.0038 39.6612C76.0038 40.359 76.2367 40.9406 76.7026 41.3476C77.1677 41.8129 77.7504 42.0455 78.5068 42.0455C79.2633 42.0455 79.9036 41.871 80.4278 41.4639V42.4525C79.8459 42.8596 79.2056 43.0341 78.4484 43.0341Z" fill="#58595B"/>
<path d="M84.7942 43.0341C83.8041 43.0341 82.9316 42.7433 82.2912 42.1036C81.5925 41.4639 81.3011 40.6498 81.3011 39.7193C81.3011 38.7307 81.6509 37.9747 82.2912 37.335C82.9893 36.6953 83.8041 36.4045 84.7942 36.4045C85.4923 36.4045 86.0742 36.579 86.5984 36.8116V37.8002C86.0742 37.4513 85.4923 37.2768 84.7942 37.2768C84.0954 37.2768 83.5135 37.5094 83.0477 37.9747C82.5818 38.4399 82.3489 38.9633 82.3489 39.6612C82.3489 40.359 82.5818 40.9406 83.0477 41.3476C83.5135 41.8129 84.0954 42.0455 84.8519 42.0455C85.6091 42.0455 86.2494 41.871 86.7729 41.4639V42.4525C86.1326 42.8596 85.4923 43.0341 84.7942 43.0341Z" fill="#58595B"/>
<path d="M88.8674 42.9177H87.9949V36.5208H89.0426V41.2312L92.7095 36.5208H93.6405V42.9177H92.5927V38.2072L88.8674 42.9177Z" fill="#58595B"/>
<path d="M96.144 42.9176H95.2708V36.5207H96.3185V41.2312L99.9861 36.5207H100.917V42.9176H99.8693V38.2072L96.144 42.9176ZM98.0651 36.0554C97.5992 36.0554 97.1334 35.881 96.8428 35.6484C96.5514 35.3576 96.3769 35.0087 96.3769 34.5435H97.2502C97.2502 34.776 97.3086 34.9505 97.4831 35.0668C97.6576 35.2413 97.8321 35.2994 98.0651 35.2994C98.298 35.2994 98.5309 35.2413 98.647 35.0668C98.8215 34.8923 98.8799 34.7179 98.8799 34.5435H99.7532C99.7532 35.0087 99.5787 35.3576 99.2873 35.6484C98.9967 35.9392 98.5886 36.0554 98.0651 36.0554Z" fill="#58595B"/>
<path d="M105.749 43.034C104.759 43.034 103.887 42.7433 103.246 42.1036C102.547 41.4639 102.256 40.6498 102.256 39.7193C102.256 38.7307 102.606 37.9747 103.246 37.335C103.944 36.6953 104.759 36.4045 105.749 36.4045C106.447 36.4045 107.029 36.579 107.553 36.8116V37.8002C107.029 37.4513 106.447 37.2768 105.749 37.2768C105.05 37.2768 104.468 37.5094 104.003 37.9747C103.537 38.4399 103.304 38.9633 103.304 39.6612C103.304 40.359 103.537 40.9406 104.003 41.3476C104.468 41.8129 105.05 42.0455 105.807 42.0455C106.564 42.0455 107.204 41.871 107.728 41.4639V42.4525C107.146 42.8596 106.506 43.034 105.749 43.034Z" fill="#58595B"/>
<path d="M110.056 42.9177H109.008V36.5208H110.056V39.1377L112.791 36.5208H114.13L111.045 39.4285L114.654 42.9177H113.199L110.056 39.8356V42.9177Z" fill="#58595B"/>
<path d="M120.533 42.0453C119.893 42.685 119.078 42.9758 118.089 42.9758C117.099 42.9758 116.285 42.685 115.644 42.0453C115.004 41.4056 114.713 40.5914 114.713 39.6609C114.713 38.7305 115.004 37.9163 115.644 37.3348C116.285 36.6951 117.099 36.3462 118.089 36.3462C119.078 36.3462 119.893 36.6951 120.533 37.3348C121.174 37.9745 121.523 38.7886 121.523 39.6609C121.465 40.5914 121.174 41.4056 120.533 42.0453ZM116.401 41.3474C116.866 41.8127 117.39 42.0453 118.03 42.0453C118.671 42.0453 119.253 41.8127 119.661 41.3474C120.126 40.8822 120.359 40.3007 120.359 39.6609C120.359 39.0213 120.126 38.3816 119.661 37.9745C119.195 37.5093 118.671 37.2767 118.03 37.2767C117.39 37.2767 116.808 37.5093 116.401 37.9745C115.935 38.4397 115.703 38.9631 115.703 39.6609C115.76 40.3588 115.935 40.9403 116.401 41.3474Z" fill="#58595B"/>
<path d="M123.735 42.9176H122.804V36.5207H123.851V41.2312L127.518 36.5207H128.45V42.9176H127.402V38.2072L123.735 42.9176ZM125.597 36.0554C125.131 36.0554 124.666 35.881 124.375 35.6484C124.084 35.3576 123.909 35.0087 123.909 34.5435H124.782C124.782 34.776 124.841 34.9505 125.015 35.0668C125.19 35.2413 125.364 35.2994 125.597 35.2994C125.83 35.2994 126.063 35.2413 126.179 35.0668C126.354 34.8923 126.412 34.7179 126.412 34.5435H127.285C127.285 35.0087 127.111 35.3576 126.819 35.6484C126.47 35.9392 126.121 36.0554 125.597 36.0554Z" fill="#58595B"/>
<path d="M136.658 43.0919H135.61V42.394C134.562 42.3359 133.747 42.1033 133.165 41.5799C132.641 41.0565 132.35 40.4168 132.35 39.6608C132.35 39.3118 132.408 38.963 132.583 38.6722C132.7 38.3232 132.932 38.0325 133.165 37.7999C133.398 37.5091 133.805 37.3347 134.213 37.1602C134.62 36.9857 135.144 36.9276 135.668 36.8694V36.2297H136.716V36.8694C137.24 36.8694 137.705 36.9857 138.171 37.102C138.578 37.2765 138.928 37.4509 139.219 37.7417C139.51 38.0325 139.684 38.2651 139.801 38.6141C139.917 38.963 140.033 39.3118 140.033 39.6026C140.033 39.8934 139.976 40.3005 139.801 40.5912C139.626 40.8821 139.451 41.231 139.219 41.4636C138.928 41.7544 138.578 41.9288 138.171 42.1033C137.763 42.2777 137.24 42.3359 136.716 42.3359L136.658 43.0919ZM135.61 41.5217V37.7417C134.911 37.7417 134.329 37.9162 133.98 38.2651C133.631 38.6141 133.456 39.0793 133.456 39.6026C133.456 40.126 133.631 40.5912 133.98 40.9402C134.329 41.2891 134.911 41.4636 135.61 41.5217ZM136.658 37.7417V41.5217C137.414 41.5217 137.938 41.3473 138.288 40.9983C138.637 40.6494 138.811 40.1842 138.811 39.6608C138.811 39.1374 138.637 38.6722 138.288 38.3232C137.938 37.9162 137.356 37.7417 136.658 37.7417Z" fill="#58595B"/>
<path d="M146.029 42.9177H141.139V36.5208H145.912V37.4512H142.187V39.0795H145.214V40.01H142.187V42.0454H146.029V42.9177Z" fill="#58595B"/>
<path d="M147.892 44.2553H146.902V41.9873H147.543C147.892 41.4638 148.183 40.8823 148.299 40.1845C148.474 39.4866 148.532 38.5562 148.532 37.3931V36.5208H152.956V42.0454H153.887V44.3134H152.898V42.9177H147.833L147.892 44.2553ZM148.648 41.9291H151.908V37.3349H149.521C149.521 38.3817 149.464 39.3122 149.288 40.01C149.231 40.8242 148.998 41.4638 148.648 41.9291Z" fill="#58595B"/>
<path d="M159.883 42.9177H154.993V36.5208H159.766V37.4512H156.041V39.0795H159.068V40.01H156.041V42.0454H159.883V42.9177Z" fill="#58595B"/>
<path d="M162.094 42.9177H161.047V36.5208H163.957C164.655 36.5208 165.238 36.6952 165.587 37.0442C165.994 37.3931 166.227 37.8583 166.227 38.3817C166.227 38.9051 165.994 39.3703 165.587 39.7774C165.179 40.1263 164.655 40.3008 163.957 40.3008H162.094V42.9177ZM162.094 37.3931V39.3122H163.84C164.248 39.3122 164.539 39.1958 164.772 39.0795C165.005 38.9051 165.121 38.6724 165.121 38.3817C165.121 38.0909 165.005 37.8583 164.772 37.6838C164.539 37.5094 164.248 37.4512 163.84 37.4512L162.094 37.3931Z" fill="#58595B"/>
<path d="M167.159 42.9178H166.053L168.963 36.4626H169.952L172.863 42.9178H171.757L171 41.3476H167.857L167.159 42.9178ZM169.487 37.6839L168.264 40.359H170.71L169.487 37.6839Z" fill="#58595B"/>
<path d="M180.315 44.2553H179.325V42.8596H173.969V36.4626H175.017V41.9873H178.277V36.4626H179.325V41.9873H180.256V44.2553H180.315Z" fill="#58595B"/>
<path d="M182.293 42.9177H181.42V36.5208H182.467V41.2312L186.134 36.5208H187.066V42.9177H186.018V38.2072L182.293 42.9177Z" fill="#58595B"/>
<path d="M189.569 42.9177H188.696V36.5208H189.743V41.2312L193.41 36.5208H194.342V42.9177H193.294V38.2072L189.569 42.9177Z" fill="#58595B"/>
<path d="M39.2739 41.6389C39.0996 41.6389 38.9834 41.755 38.9834 41.9292C38.9834 42.1034 39.0996 42.2194 39.2739 42.2194C39.4482 42.2194 39.5645 42.1034 39.5645 41.9292C39.5645 41.8131 39.4482 41.6389 39.2739 41.6389Z" fill="#13377D"/>
<path d="M40.2646 44.4878C40.2646 44.662 40.3809 44.7781 40.5552 44.7781C40.7295 44.7781 40.8457 44.662 40.8457 44.4878C40.8457 44.3136 40.7295 44.1975 40.5552 44.1975C40.3809 44.1975 40.2646 44.3136 40.2646 44.4878Z" fill="#13377D"/>
<path d="M39.2739 44.1975C39.0996 44.1975 38.9834 44.3136 38.9834 44.4878C38.9834 44.662 39.0996 44.7781 39.2739 44.7781C39.4482 44.7781 39.5645 44.662 39.5645 44.4878C39.5645 44.3136 39.4482 44.1975 39.2739 44.1975Z" fill="#13377D"/>
<path d="M41.5448 44.4878C41.5448 44.662 41.6611 44.7781 41.8353 44.7781C42.0097 44.7781 42.1259 44.662 42.1259 44.4878C42.1259 44.3136 42.0097 44.1975 41.8353 44.1975C41.6611 44.1975 41.5448 44.3136 41.5448 44.4878Z" fill="#13377D"/>
<path d="M38.8672 38.7886L38.9254 39.5446L38.2852 39.4864V40.3006L38.9254 40.1843L38.8672 40.9403H39.6822L39.6239 40.1843L40.2643 40.3006V39.4864L39.6239 39.5446L39.6822 38.7886H38.8672Z" fill="#13377D"/>
<path d="M39.7988 41.406V44.0229H42.3018C42.1272 42.6854 41.0795 41.6386 39.7988 41.406Z" fill="#13377D"/>
<path d="M39.2739 42.9177C39.0996 42.9177 38.9834 43.0338 38.9834 43.2081C38.9834 43.3822 39.0996 43.4983 39.2739 43.4983C39.4482 43.4983 39.5645 43.3822 39.5645 43.2081C39.5645 43.0338 39.4482 42.9177 39.2739 42.9177Z" fill="#13377D"/>
<path d="M40.3222 46.2327C40.2641 46.2327 40.0312 46.8723 40.2641 47.3376C40.3804 47.5702 40.6133 47.6865 40.8461 47.6284C41.079 47.5702 41.1372 47.3375 41.1372 47.2213C41.079 46.6979 40.6715 46.2327 40.3222 46.2327Z" fill="#13377D"/>
<path d="M38.2266 46.2327C37.8774 46.2327 37.47 46.6979 37.47 47.2213C37.47 47.3957 37.5282 47.5702 37.761 47.6284C37.9938 47.6865 38.2266 47.5702 38.3431 47.3376C38.4595 46.8723 38.2848 46.2327 38.2266 46.2327Z" fill="#13377D"/>
<path d="M39.2749 45.8835C39.0421 45.8835 38.3435 47.2211 38.8674 47.8607C38.9839 47.977 39.1002 48.0352 39.2749 48.0352C39.4495 48.0352 39.6241 47.977 39.6823 47.8607C40.148 47.2211 39.5077 45.8835 39.2749 45.8835Z" fill="#13377D"/>
<path d="M36.1899 44.4881C36.1899 44.1973 36.2481 43.9647 36.2481 43.9647H38.7511V43.732V41.8711V41.3477C37.5286 41.5804 36.5391 42.5109 36.2481 43.732C36.1899 43.8484 35.957 43.9065 35.7824 43.8484C34.8511 43.732 32.9884 43.3832 32.9884 42.9761C32.9884 42.3945 33.3959 42.1619 33.7451 42.1619C34.269 42.1619 34.8511 42.4527 35.3168 41.7548C33.6287 41.813 34.9093 39.3705 33.5122 38.9053C33.5704 39.545 33.5122 40.6499 33.2794 41.2315C33.2794 41.2315 32.7556 40.7081 32.2317 40.4754C32.2899 40.9406 32.1735 41.8711 31.9988 42.3363C31.9988 42.3363 31.4168 41.7548 30.7765 41.5804C31.3586 42.3945 31.3586 43.6157 31.1839 44.3136C31.1257 44.5462 31.3003 44.7789 31.7078 44.7789C32.4063 44.7207 34.7347 44.837 35.7242 45.2441C36.0152 45.3604 36.3063 45.5348 36.4227 45.7675C36.5391 46.0582 36.772 46.5235 37.1212 46.7561C37.2959 46.2327 37.8779 45.6512 38.2854 45.7093C38.4018 45.7093 38.5182 45.9419 38.5764 46.1164C38.6346 45.9419 38.9256 45.4185 39.2167 45.4185C39.5077 45.4185 39.7988 45.8256 39.9152 46.1745C39.9734 45.9419 40.0899 45.7093 40.2063 45.7093C40.6137 45.7093 41.1376 46.0582 41.3122 46.6979C41.4868 46.5235 42.1854 45.593 42.2436 44.9533H36.1899C36.1899 45.0114 36.1899 44.7789 36.1899 44.4881Z" fill="#13377D"/>
<path d="M37.7028 44.4878C37.7028 44.662 37.819 44.7781 37.9933 44.7781C38.1676 44.7781 38.2838 44.662 38.2838 44.4878C38.2838 44.3136 38.1676 44.1975 37.9933 44.1975C37.819 44.1975 37.7028 44.3136 37.7028 44.4878Z" fill="#13377D"/>
<path d="M36.4808 44.4878C36.4808 44.662 36.597 44.7781 36.7714 44.7781C36.9457 44.7781 37.0619 44.662 37.0619 44.4878C37.0619 44.3136 36.9457 44.1975 36.7714 44.1975C36.597 44.1975 36.4808 44.3136 36.4808 44.4878Z" fill="#13377D"/>
<path d="M12.3819 45.7671C12.2655 45.8834 12.0326 46.5231 12.149 46.9302C12.2072 47.1047 12.2655 47.1628 12.4401 47.1628C12.6147 47.1628 12.6729 47.0465 12.7311 46.872C12.7893 46.4649 12.4983 45.8253 12.3819 45.7671Z" fill="#13377D"/>
<path d="M14.5362 47.5701C14.4198 47.7446 14.2452 47.8027 14.187 47.8609C14.2452 47.9191 14.4198 48.0354 14.5944 48.0354C14.7108 48.0354 14.8273 47.9772 14.8855 47.9191C15.0601 47.5701 14.8855 47.2793 14.8273 47.1631C14.7691 47.2793 14.7108 47.4539 14.5362 47.5701Z" fill="#13377D"/>
<path d="M13.7211 46.7557C13.9539 46.5231 14.0121 46.3486 13.9539 46.2323C13.8957 46.0578 13.3718 45.5344 12.7898 44.8948C12.7898 45.0111 12.7316 45.1274 12.7316 45.2437C13.139 45.8252 13.3137 46.4068 13.1973 46.9301C13.2555 46.9883 13.2555 46.9883 13.3137 46.9883C13.43 47.1046 13.6047 46.9301 13.7211 46.7557Z" fill="#13377D"/>
<path d="M14.5361 46.8141C14.5361 46.6979 14.5361 46.6397 14.4778 46.5815H14.4196C14.3614 46.5815 14.3032 46.6979 14.245 46.756C14.1868 46.8141 14.1286 46.9304 14.0122 47.0468C13.8957 47.1631 13.8375 47.2212 13.7212 47.3375C13.6047 47.3957 13.5465 47.512 13.5465 47.5702C13.5465 47.5702 13.5465 47.5702 13.5465 47.6283C13.6047 47.6865 13.6047 47.6865 13.663 47.6865C13.7212 47.6865 13.8957 47.6283 14.1868 47.3375C14.4778 47.0468 14.5361 46.9304 14.5361 46.8141Z" fill="#13377D"/>
<path d="M10.694 43.7315C10.694 43.7315 10.6359 43.7896 10.5778 43.9057C10.694 43.9057 10.8683 43.9057 10.9846 43.9638C10.9846 43.8476 10.9846 43.6735 10.9846 43.5574C10.8683 43.5574 10.7521 43.6735 10.694 43.7315Z" fill="#13377D"/>
<path d="M12.2657 43.9067C12.2657 43.9067 13.4881 44.9535 13.8956 45.3605C14.012 45.4769 14.1284 45.4769 14.2448 45.4187C14.303 45.3606 14.4195 45.3606 14.5359 45.3024C15.7582 44.8953 17.7373 44.8371 18.4359 44.8371C18.9015 44.8371 19.0179 44.6045 18.9597 44.3719C18.8433 43.6741 18.7851 42.4528 19.3672 41.6387C18.7269 41.8713 18.1448 42.3947 18.1448 42.3947C17.912 41.9876 17.8538 40.999 17.912 40.5338C17.3299 40.7082 16.8642 41.2898 16.8642 41.2898C16.6313 40.7082 16.5732 39.6033 16.6314 38.9636C15.2344 39.4288 16.515 41.9295 14.8269 41.8132C15.2926 42.511 15.8747 42.2202 16.3986 42.2202C16.7478 42.2202 17.2135 42.4528 17.1552 43.0344C17.097 43.4414 14.8269 43.9067 13.8956 43.9067C13.2553 43.9067 12.7896 43.7322 12.4986 43.267C12.3239 43.0344 12.2075 42.9762 12.0329 42.9762C11.8 43.0344 11.5673 43.2089 11.5673 43.7904C11.5673 44.1393 11.7418 44.9535 12.1493 44.9535C12.3821 45.0116 12.3821 44.3137 12.2657 43.9067Z" fill="#13377D"/>
<path d="M9.93778 43.5575C9.99598 43.5575 10.0542 43.5575 10.1124 43.5575C9.93778 43.7902 9.93778 43.9646 9.99598 44.0227C10.1124 44.1391 10.1706 43.9065 10.4617 43.6157C10.7527 43.3249 10.9273 43.2086 10.8691 43.0923C10.8109 43.0341 10.6363 43.0342 10.4035 43.2086C10.4035 43.1504 10.4617 43.0923 10.4035 43.0342C10.287 42.7433 9.87959 42.3945 9.58855 42.3945C9.53028 42.3945 9.53028 42.3945 9.47209 42.3945C9.58855 42.22 9.53028 42.1037 9.47209 41.9874C9.41389 41.9292 9.3557 41.9874 9.23924 42.1037C9.23924 42.0456 9.23924 41.9292 9.18105 41.8129C8.83181 41.2314 6.85272 39.3705 6.38705 39.196C6.09601 39.0797 6.0378 39.2542 6.0378 39.2542C6.0378 39.2542 5.86318 39.3705 5.97959 39.603C6.15422 40.0683 8.07508 41.9874 8.59896 42.3363C8.71542 42.3945 8.83181 42.4526 8.89001 42.3945C8.77362 42.5108 8.71542 42.5108 8.83181 42.6271C8.89001 42.6852 9.00646 42.7433 9.18105 42.6271C9.18105 42.6852 9.18105 42.6852 9.18105 42.7433C9.2975 42.976 9.64674 43.4412 9.93778 43.5575Z" fill="#13377D"/>
<path d="M11.3344 44.9528C11.3344 44.7784 10.9851 44.4294 10.5195 44.4294C9.87918 44.4294 9.58813 44.8365 9.58813 45.0692C9.58813 45.4763 9.99556 45.5344 10.112 45.5344C10.5195 45.5344 11.2762 45.0692 11.3344 44.9528Z" fill="#13377D"/>
<path d="M10.7526 45.9419C10.578 46.1745 10.5198 46.4071 10.578 46.5816C10.6362 46.8142 10.8691 46.9305 11.1019 46.9305C11.3347 46.9305 11.5676 46.8142 11.6839 46.6398C11.9168 46.2327 11.9168 45.3604 11.8586 45.3022C11.6258 45.3022 11.0437 45.5348 10.7526 45.9419Z" fill="#13377D"/>
<path d="M5.04773 36.8697C4.87311 36.6953 4.46564 36.9861 4.23281 36.8116C4.34923 36.2301 4.75669 36.8116 5.10594 36.4626C5.28057 36.2882 5.16415 36.0556 5.10594 35.9974C4.93132 36.1719 4.69848 36.1138 4.64028 35.9974C5.04773 34.9507 4.23281 33.8457 3.41789 33.9621C3.59252 34.1946 3.65073 34.9507 3.53431 35.1251C3.82535 35.3578 3.65073 35.8811 3.30147 35.7067C3.06864 35.5903 2.66118 35.0088 3.12685 34.6599C3.12685 34.4854 2.83581 34.4855 2.60297 34.8344C2.7776 34.1946 1.55522 34.3692 1.32239 34.5436C1.20596 34.8344 1.03134 36.0556 1.67163 35.823C1.32239 36.1138 1.38059 36.4045 1.49701 36.4045C1.90447 35.9393 2.42835 36.2882 2.54477 36.5208C2.71939 36.8697 2.19551 37.1024 1.96268 36.8116C1.78805 36.8697 1.03134 36.8697 0.856713 36.6953C0.740296 37.5095 1.90447 38.3818 2.89401 37.9165C3.01043 37.9165 3.06864 38.2073 2.89401 38.3818C2.95222 38.4981 3.24326 38.5562 3.35968 38.3818C3.76715 37.9747 3.18506 37.5676 3.70894 37.4513C3.82535 37.6839 3.59252 38.091 3.76715 38.2654C4.05819 38.5562 4.40744 37.9747 4.8149 37.9747C4.8149 37.5095 5.33877 37.1605 5.04773 36.8697ZM2.02088 35.5322C2.02088 35.5322 1.84626 35.4159 2.07909 35.1251C2.31193 34.8925 2.42835 35.067 2.42835 35.067C2.42835 35.067 2.66118 35.5322 2.71939 35.7649C2.48656 35.7649 2.02088 35.5322 2.02088 35.5322ZM3.88356 36.9861C3.76715 36.9861 3.4761 37.2768 3.35968 37.1024L2.71939 36.4626L3.06864 36.1138L3.41789 35.7649L4.05819 36.4045C4.11639 36.579 3.88356 36.8697 3.88356 36.9861Z" fill="#13377D"/>
<path d="M5.22282 38.033C5.16461 38.033 5.10641 38.033 5.0482 38.0911C4.98999 38.1493 4.98999 38.2655 4.98999 38.3819C4.98999 38.4982 5.10641 38.6145 5.22282 38.7308C5.28103 38.9053 5.45566 38.9634 5.57207 38.9634C5.63028 38.9634 5.68849 38.9634 5.7467 38.9053C5.86311 38.7889 5.80491 38.44 5.63028 38.2655C5.51386 38.1493 5.33924 38.033 5.22282 38.033Z" fill="#13377D"/>
<path d="M3.35975 36.1135L3.18512 36.288L3.0105 36.4625C3.0105 36.4625 3.35975 36.9277 3.65079 36.7533C3.82541 36.4625 3.35975 36.1135 3.35975 36.1135Z" fill="#13377D"/>
<path d="M37.3542 34.3693C37.3542 34.4856 36.8885 34.7182 36.5392 34.0785C36.19 34.0204 35.8408 33.904 35.6079 33.7877C36.0153 34.6019 36.3646 35.2997 36.9467 35.6486C37.8199 36.172 39.1586 36.0557 39.5661 35.4742C38.8094 35.0671 37.9362 34.0204 37.4705 33.0317C37.3542 33.2643 37.1795 33.6714 37.0631 33.9622C37.1213 34.0785 37.2378 34.2529 37.3542 34.3693Z" fill="#13377D"/>
<path d="M45.4446 21.6337C46.376 21.2266 47.7147 20.2962 48.3551 19.7146C48.4133 19.8309 48.6461 20.3543 47.9476 20.9358C47.4237 21.3429 46.376 21.8663 45.6193 22.1571C45.27 22.6805 44.5715 23.262 43.6402 23.9017C45.5028 23.6109 47.7147 22.8549 48.8207 21.8081C50.858 19.7728 49.8103 17.3303 49.5193 16.7488C48.1804 18.4353 45.6193 20.1798 43.2327 21.1103C44.0476 21.2266 44.8625 21.4011 45.4446 21.6337Z" fill="#13377D"/>
<path d="M43.9312 17.9117C45.1536 16.923 46.4342 14.9458 46.667 14.248C46.958 14.4224 47.0745 15.004 46.7252 15.6437C46.0849 16.7486 44.9207 17.7372 43.9312 18.5514C43.873 19.2492 43.582 20.1215 43.2327 20.7612C44.6879 19.7726 46.3759 18.3188 47.1327 17.3301C48.1222 16.0507 48.5297 14.7714 48.355 13.492C48.4133 12.0381 47.3655 10.5842 46.958 10.2354C46.667 11.8055 45.0954 14.4806 43.6984 15.9926C43.8147 16.516 43.9312 17.272 43.9312 17.9117Z" fill="#13377D"/>
<path d="M43 27.0999C43.2911 27.4487 43.5821 27.8558 43.8149 28.2048C44.9209 28.4374 46.2597 28.3792 46.2597 28.3792C46.2597 28.3792 46.2015 28.9608 45.4448 29.0189C45.0955 29.0189 44.0478 28.8445 43.6403 28.7281C43.4657 28.7863 42.6507 29.0189 41.8358 29.1352C43 29.5423 44.688 29.9494 45.7358 29.9494C45.8523 29.9494 45.9105 29.9494 46.0268 29.9494C47.7149 29.7749 48.588 28.2048 48.6462 27.3324C48.1224 27.4487 47.2493 27.5069 46.3761 27.5069C45.5612 27.5069 44.106 27.4487 43 27.0999Z" fill="#13377D"/>
<path d="M50.0436 22.6799C48.5302 23.4941 45.8527 24.3082 43.6989 24.3082C44.2228 24.6572 44.7467 25.0061 45.0959 25.355C45.969 25.2968 47.1914 25.0061 47.8899 24.7735C47.8899 24.8897 47.8899 25.4713 47.075 25.7039C46.4929 25.8784 45.678 25.8784 45.0377 25.8784C44.5138 26.2273 43.7571 26.5181 43.1168 26.7507C43.6989 26.8089 44.4556 26.867 45.0959 26.867C46.2019 26.867 47.2497 26.7507 47.8899 26.5181C48.472 26.3436 50.3929 25.5295 50.0436 22.6799Z" fill="#13377D"/>
<path d="M41.8938 30.7055C42.5341 30.9963 43.2326 31.229 43.8147 31.2871C43.8147 31.2871 43.6982 31.8686 42.8251 31.7523C42.3012 31.6942 41.7191 31.2871 41.6028 31.229C41.1953 31.2871 40.3804 31.2871 40.0894 31.229C41.0789 31.9267 42.5923 32.7409 43.8729 32.8572C43.9311 32.8572 43.9893 32.8572 44.0475 32.8572C45.3863 32.8572 46.4341 31.5197 46.7251 30.88C45.3863 30.88 43.058 30.2985 41.6609 29.5425C41.7191 29.7751 41.8356 30.2403 41.8938 30.7055Z" fill="#13377D"/>
<path d="M39.5656 32.5085C39.9148 32.9156 40.4969 33.1481 40.4969 33.1481C40.4969 33.1481 40.3223 33.4389 39.973 33.4389C39.8566 33.4389 39.7402 33.3808 39.6237 33.3226C39.391 33.2063 39.0417 32.7993 39.0417 32.7993C38.576 32.7411 38.1685 32.6829 37.7611 32.5666C38.4596 33.4389 39.6237 34.5438 40.9044 34.8346C41.079 34.8928 41.2536 34.8928 41.4864 34.8928C42.5924 34.8928 43.5237 34.0786 43.7566 33.5552C42.476 33.3808 40.6133 32.3922 39.682 31.4617C39.682 31.8106 39.6237 32.2177 39.5656 32.5085Z" fill="#13377D"/>
<path d="M31.242 46.7562C31.8823 46.7562 32.2898 46.5235 32.5809 45.8839C31.7077 46.291 30.7764 46.0583 29.0301 45.5349C29.0301 45.5349 28.3898 45.8257 27.9823 45.8839C29.0301 46.1746 30.5435 46.698 30.7764 47.2796C30.8928 47.7448 30.6018 47.8611 30.6018 47.8611C30.0197 47.1633 29.3211 46.7562 27.8077 46.291C27.8077 46.5817 27.7496 46.7562 27.7496 46.7562C27.7496 46.7562 27.4585 46.8143 26.76 46.698C27.3421 47.1633 28.7391 48.3844 28.9137 49.6638C29.0301 50.5362 28.3898 50.5943 28.3898 50.5943C28.3316 49.2568 27.7496 48.4426 26.4689 47.1051C26.4689 47.1051 26.2361 47.3958 26.0032 47.5703C26.0032 47.5703 25.5376 47.5121 25.1883 47.2214C25.363 48.966 25.4212 53.1531 25.3048 53.7928C25.2466 54.258 24.9555 54.4906 24.9555 54.4906C24.9555 54.4906 24.6645 54.3162 24.6062 53.7928C24.4898 53.095 24.6062 48.9079 24.7227 47.2214C24.3152 47.454 23.9078 47.5703 23.9078 47.5703C23.6167 47.3958 23.4421 47.1051 23.4421 47.1051C22.2197 48.4426 21.6376 49.3149 21.5212 50.5943C21.5212 50.5943 20.9391 50.5362 20.9973 49.6638C21.1719 48.3844 22.5689 47.1633 23.151 46.698C22.5107 46.8143 22.1615 46.7562 22.1615 46.7562C22.1615 46.7562 22.1033 46.5817 22.1033 46.291C20.5898 46.7562 19.9496 47.1633 19.3093 47.8611C19.3093 47.8611 19.0182 47.8029 19.1346 47.2796C19.3675 46.698 20.8809 46.2328 21.9287 45.8839C21.5794 45.8257 20.8809 45.5349 20.8809 45.5349C19.1928 46.0583 18.2033 46.291 17.3302 45.8839C17.563 46.5235 18.0287 46.7562 18.669 46.7562C17.8541 47.0469 17.0973 47.8611 16.8645 48.6752C17.4466 50.827 19.3093 51.4666 19.3093 51.4666C18.8436 50.4199 19.0182 48.3844 21.8123 46.9888C20.1242 48.6752 19.4257 50.2454 19.8914 51.6993C20.2988 53.0368 21.6958 53.5602 22.6854 53.6183C21.9869 51.4085 22.2779 49.3731 23.7914 47.8029C23.151 49.5476 22.2197 54.9559 24.8391 55.8282C27.4585 54.9559 26.5271 49.5476 25.8868 47.8029C27.4002 49.4313 27.6913 51.4085 26.9928 53.6183C28.0406 53.6183 29.3793 53.0368 29.7868 51.6993C30.2525 50.2454 29.6122 48.6752 27.8659 46.9888C30.66 48.3844 30.8345 50.478 30.3689 51.4666C30.3689 51.4666 32.2316 50.827 32.8136 48.6752C32.8136 47.8611 31.9988 47.1051 31.242 46.7562Z" fill="#13377D"/>
<path d="M13.1972 35.6486C13.7793 35.2997 14.1285 34.6019 14.5359 33.7877C14.3031 33.904 13.9539 34.0204 13.6046 34.0785C13.2554 34.7182 12.7897 34.4856 12.7897 34.3693C12.9061 34.2529 13.0225 34.0785 13.0807 33.9622C12.9644 33.6714 12.7897 33.2643 12.6733 33.0317C12.2076 34.0785 11.2763 35.0671 10.5778 35.4742C10.9853 36.0557 12.324 36.172 13.1972 35.6486Z" fill="#13377D"/>
<path d="M6.4453 23.9014C5.45575 23.2617 4.81545 22.6802 4.4662 22.1568C3.65128 21.866 2.60353 21.3427 2.13786 20.9356C1.43936 20.354 1.67219 19.8306 1.7304 19.7143C2.31249 20.354 3.65128 21.2263 4.64083 21.6334C5.22292 21.4008 6.03783 21.2263 6.85277 21.11C4.4662 20.2377 1.90503 18.4349 0.566225 16.8066C0.275184 17.33 -0.830779 19.8306 1.26473 21.866C2.31249 22.8546 4.58262 23.6107 6.4453 23.9014Z" fill="#13377D"/>
<path d="M6.85283 20.7031C6.50358 20.0634 6.21253 19.2493 6.15432 18.4933C5.16478 17.7372 4.05882 16.7486 3.36031 15.5856C3.01106 14.9459 3.12748 14.3644 3.41852 14.1898C3.65135 14.8877 4.93194 16.8649 6.15432 17.8536C6.15432 17.2139 6.27074 16.4579 6.44537 15.9345C5.04836 14.4225 3.41852 11.7474 3.18569 10.1772C2.77822 10.5262 1.73047 11.98 1.78868 13.4339C1.61405 14.7133 2.02152 15.9926 3.01106 17.272C3.70956 18.2606 5.39761 19.7727 6.85283 20.7031Z" fill="#13377D"/>
<path d="M6.27066 28.2048C6.44529 27.8558 6.79456 27.4487 7.0856 27.0999C5.97962 27.3906 4.5244 27.4487 3.76769 27.4487C2.83636 27.4487 1.96322 27.3906 1.49756 27.2743C1.55577 28.2048 2.4289 29.7749 4.11694 29.8913C4.23336 29.8913 4.29157 29.8913 4.40798 29.8913C5.45574 29.8913 7.14379 29.4842 8.30796 29.0771C7.49303 28.9608 6.6781 28.7863 6.50349 28.67C6.03783 28.9026 4.99007 29.0771 4.64082 29.0189C3.88411 28.9608 3.8259 28.3792 3.8259 28.3792C3.8259 28.3792 5.1647 28.4374 6.27066 28.2048Z" fill="#13377D"/>
<path d="M2.19571 26.5764C2.836 26.8091 3.82555 26.9254 4.98972 26.9254C5.68822 26.9254 6.38673 26.8672 6.96884 26.8091C6.32852 26.5764 5.57181 26.2857 5.04793 25.9368C4.40763 25.9368 3.5345 25.8787 3.01063 25.7623C2.19571 25.5297 2.19571 24.9482 2.19571 24.8318C2.89421 25.1226 4.11659 25.4134 4.98972 25.4134C5.33897 25.1226 5.80464 24.7155 6.38673 24.3666C4.29122 24.3666 1.55542 23.5525 0.041991 22.7383C-0.30726 25.5297 1.61362 26.3439 2.19571 26.5764Z" fill="#13377D"/>
<path d="M6.09532 32.7992C6.15353 32.7992 6.21174 32.7992 6.26995 32.7992C7.55054 32.6829 9.06394 31.8688 10.0535 31.1709C9.76248 31.2291 8.88936 31.2291 8.54006 31.1709C8.42367 31.2872 7.78339 31.6362 7.3177 31.6943C6.38637 31.8106 6.32816 31.2291 6.32816 31.2291C6.91027 31.1709 7.60874 30.9383 8.24901 30.6475C8.30728 30.1823 8.42367 29.717 8.54006 29.4263C7.08485 30.2404 4.75652 30.822 3.41772 30.822C3.70877 31.4617 4.75652 32.7992 6.09532 32.7992Z" fill="#13377D"/>
<path d="M8.59865 34.8928C8.77324 34.8928 9.00608 34.8928 9.18074 34.8346C10.4031 34.5438 11.6255 33.4389 12.324 32.5666C11.9165 32.6829 11.5091 32.7993 11.0434 32.7993C11.0434 32.7993 10.7523 33.1481 10.4613 33.3226C10.3449 33.3808 10.2284 33.4389 10.1121 33.4389C9.76282 33.4389 9.58817 33.1481 9.58817 33.1481C9.58817 33.1481 10.1702 32.8574 10.5195 32.5085C10.4613 32.2177 10.4031 31.8106 10.4031 31.4617C9.41351 32.4503 7.60907 33.3808 6.32849 33.5552C6.56132 34.0786 7.43442 34.8928 8.59865 34.8928Z" fill="#13377D"/>
<path d="M24.5479 3.08211C24.5479 3.37288 24.7807 3.54735 25.0135 3.54735C25.2464 3.54735 25.4792 3.31473 25.4792 3.08211C25.4792 2.79134 25.2464 2.61688 25.0135 2.61688C24.7807 2.55873 24.5479 2.79134 24.5479 3.08211Z" fill="#13377D"/>
<path d="M24.7226 2.03539H25.3629L25.3046 1.22123L26.0032 1.33754V0.697852L25.3046 0.756005L25.3629 0H24.7226L24.7807 0.756005L24.0823 0.697852V1.33754L24.7807 1.22123L24.7226 2.03539Z" fill="#13377D"/>
<path d="M22.4522 9.71217C22.5104 9.71217 22.6268 9.7703 22.685 9.7703H27.3417C27.4581 9.7703 27.5163 9.7703 27.5745 9.71217C27.7492 9.65405 27.8074 9.53773 27.8656 9.36328H22.1611C22.2193 9.59585 22.3358 9.65405 22.4522 9.71217Z" fill="#13377D"/>
<path d="M27.5749 9.0138C27.6331 9.0138 27.6331 8.95567 27.6331 8.95567V8.60671C27.6331 8.54858 27.5749 8.54858 27.5749 8.54858H22.5108C22.4525 8.54858 22.4525 8.60671 22.4525 8.60671V8.95567C22.4525 9.0138 22.5108 9.0138 22.5108 9.0138H27.5749Z" fill="#13377D"/>
<path d="M28.0983 8.14193C28.2148 7.96748 28.855 6.74622 28.855 5.46683C28.855 4.30376 27.3998 3.66406 26.5849 3.66406C26.4684 5.29237 25.8282 7.85116 25.0132 7.85116C24.2566 7.85116 23.558 5.29237 23.4416 3.66406C22.5685 3.66406 21.1715 4.30376 21.1715 5.46683C21.1715 6.74622 21.8118 8.02561 21.9282 8.14193H28.0983Z" fill="#13377D"/>
<path d="M25.0139 7.03696C25.4214 7.03696 25.887 5.81576 26.0617 4.59453C26.0617 4.36191 25.6542 4.01299 25.0139 3.95483C24.3736 3.95483 23.9662 4.30376 23.9662 4.59453C24.1408 5.69945 24.6647 7.03696 25.0139 7.03696Z" fill="#13377D"/>
<path d="M32.4058 26.1113C32.4058 25.9369 32.2894 25.8206 32.1147 25.8206H17.9701C17.7955 25.8206 17.6791 25.9369 17.6791 26.1113V35.823V35.8812V35.9393C17.6791 35.9393 17.6791 36.4627 17.9119 37.0443C18.2029 37.7421 19.4253 38.9052 20.9387 39.7194C23.0925 40.8243 24.373 41.6966 25.0133 42.22C25.6536 41.6966 26.9342 40.8243 29.0879 39.7194C30.6595 38.9052 31.8237 37.7421 32.1147 37.0443C32.4058 36.4045 32.3476 35.9393 32.3476 35.9393L32.4058 26.1113ZM27.6327 29.6587V29.7168C27.8073 30.4147 27.982 31.1707 28.0402 31.8685C28.6223 32.3338 29.1461 32.799 29.6118 33.2642C30.485 32.2756 30.9506 31.3452 30.9506 30.5891C30.5432 30.5891 30.1939 30.2402 30.1939 29.8332C30.1939 29.6587 30.2521 29.5424 30.3103 29.4261C29.9029 29.2516 29.4372 29.1935 29.0298 29.1935C28.6804 29.1935 28.3312 29.2516 27.9238 29.3098H27.8656L27.7491 29.3679L27.8073 29.3098C27.8656 29.1935 27.8656 29.1353 27.9238 29.019C29.0879 28.7864 30.0193 28.9027 30.6013 29.2516C30.7178 29.1935 30.8342 29.1353 30.9506 29.1353C31.3581 29.1353 31.7073 29.4843 31.7073 29.8914C31.7073 30.1821 31.5327 30.4147 31.2999 30.531C31.2999 31.3452 30.8342 32.3919 29.8446 33.555C29.9029 33.6132 29.9611 33.6713 30.0193 33.7295C30.0775 33.7876 30.0775 33.7876 30.1357 33.8458V33.904C30.0775 33.9621 30.0193 34.0203 29.9611 34.0784H29.9029C29.9029 34.0784 29.9029 34.0784 29.8446 34.0784C29.7864 34.0203 29.7864 34.0203 29.7864 33.9621C29.7282 33.904 29.7282 33.8458 29.67 33.7876C29.5536 33.904 29.4372 34.0203 29.3208 34.1365L29.2043 34.311C29.0298 34.4274 28.8551 34.4855 28.7387 34.4274H28.6804L28.7387 34.3692C29.0298 34.1365 29.2625 33.8458 29.4954 33.6713C29.1461 33.2642 28.6804 32.8571 28.2148 32.4501C28.273 32.8571 28.273 33.2642 28.273 33.6713C28.273 34.0203 28.273 34.4274 28.2148 34.8344C28.1566 34.8926 28.0402 34.9507 27.982 35.0089L27.9238 35.067V35.0089C27.982 34.5436 27.982 34.0784 27.982 33.6713C27.982 33.555 27.982 33.3806 27.982 33.2642V33.1479C27.982 32.8571 27.9238 32.043 27.8656 31.5196C27.8073 31.0544 27.6909 30.5891 27.5745 30.1239V30.0658C27.6327 30.0076 27.6909 29.9495 27.7491 29.8914L27.6327 29.6587ZM22.8596 28.6119C23.4417 27.2163 24.2566 26.4602 25.0716 26.4602C25.8865 26.4602 26.7014 27.2163 27.2834 28.6119V28.6701H27.2252C27.167 28.6701 27.1089 28.7282 26.9924 28.7864H26.9342V28.7282C26.4103 27.507 25.7118 26.8092 25.0133 26.8092C24.3148 26.8092 23.6164 27.507 23.0925 28.7282V28.7864H23.0342C22.976 28.6701 22.8596 28.6701 22.8596 28.6119ZM22.6268 28.9609C22.8014 29.0772 23.3253 29.3679 23.9074 29.1935C24.4312 29.019 25.0133 29.019 25.0133 29.019C25.0133 29.019 25.6536 29.019 26.1193 29.1935C26.7014 29.3679 27.2252 29.0772 27.3999 28.9609C27.4581 28.9609 27.4581 28.9609 27.4581 29.019C27.3999 29.2516 27.2252 29.8332 26.3521 30.0658C25.5372 30.2402 25.1298 31.1707 25.0133 31.5778C25.0133 31.636 24.9551 31.636 24.8969 31.5778C24.7805 31.1707 24.373 30.2402 23.5581 30.0658C22.685 29.8914 22.5104 29.2516 22.4521 29.019C22.5686 28.9609 22.6268 28.9609 22.6268 28.9609ZM24.0238 31.287C24.1402 31.287 24.3148 31.2289 24.4312 31.1707C24.4895 31.287 24.5477 31.4615 24.6059 31.5778C24.4312 31.6941 24.2566 31.7523 24.0238 31.7523C23.3835 31.7523 22.9178 31.2289 22.9178 30.6473C22.9178 30.4729 22.976 30.3566 23.0342 30.2402C23.1507 30.2984 23.2671 30.3566 23.4417 30.4147C23.3835 30.4729 23.3835 30.5891 23.3835 30.6473C23.3253 30.9962 23.6746 31.287 24.0238 31.287ZM23.7327 30.5891C23.7327 30.531 23.7327 30.531 23.7327 30.4729C23.9074 30.531 24.082 30.7055 24.1984 30.8218C24.1402 30.8799 24.082 30.8799 24.0238 30.8799C23.8491 30.8799 23.7327 30.7637 23.7327 30.5891ZM24.0238 32.1012C24.2566 32.1012 24.5477 32.043 24.7805 31.8685C24.8387 31.9267 24.9551 32.1594 25.0133 32.1594C25.1298 32.1594 25.188 31.9267 25.2461 31.8685C25.479 31.9848 25.77 32.1012 26.0029 32.1012C26.4103 32.1012 26.7596 31.9267 27.0507 31.6941C27.0507 31.6941 27.0507 31.6941 27.0507 31.7523C27.167 32.2175 27.2252 32.799 27.167 33.0317C27.167 33.2642 27.0507 33.4969 26.9924 33.7295C26.876 34.0203 26.8178 34.2529 26.8178 34.2529C26.8178 34.2529 26.8178 34.311 26.7596 34.4274C26.7014 34.6599 26.5268 35.067 26.2939 35.4741C25.8282 35.1833 25.3626 35.067 24.7805 35.067C24.2566 35.067 23.7909 35.1833 23.3835 35.416C23.2089 35.0089 23.0343 34.6599 22.976 34.4855C22.9178 34.3692 22.9178 34.311 22.9178 34.311C22.9178 34.311 22.8014 34.0784 22.685 33.7295C22.6268 33.555 22.5686 33.3224 22.5686 33.0898C22.5686 32.9153 22.5104 32.3338 22.685 31.8104C22.685 31.7523 22.7432 31.6941 22.7432 31.636C23.1507 31.8685 23.6164 32.1012 24.0238 32.1012ZM26.0611 31.287C26.4686 31.287 26.7596 30.9962 26.7596 30.5891C26.7596 30.4729 26.7596 30.4147 26.7014 30.3566C26.8178 30.2984 26.9924 30.2402 27.1089 30.1821C27.167 30.2984 27.2252 30.4729 27.2252 30.5891C27.2252 31.2289 26.7014 31.6941 26.1193 31.6941C25.8865 31.6941 25.7118 31.636 25.5372 31.5196C25.5955 31.4033 25.6536 31.287 25.7118 31.1125C25.77 31.2289 25.9447 31.287 26.0611 31.287ZM25.8865 30.8218C26.0029 30.6473 26.1775 30.531 26.3521 30.4729C26.3521 30.531 26.3521 30.531 26.3521 30.5891C26.3521 30.7637 26.2357 30.8799 26.0611 30.8799C26.0029 30.8799 25.9447 30.8799 25.8865 30.8218ZM19.1343 29.1935C19.3089 29.1935 19.4253 29.2516 19.5417 29.3098C19.9492 29.0772 20.4148 28.9609 21.0552 28.9609C21.4044 28.9609 21.7537 29.019 22.1611 29.0772H22.2193C22.2193 29.1353 22.2775 29.2516 22.3357 29.3679L22.3939 29.4261L22.2775 29.3679C22.2193 29.3679 22.2193 29.3679 22.1611 29.3679C21.8118 29.3098 21.4626 29.2516 21.1134 29.2516C20.7059 29.2516 20.182 29.3098 19.8328 29.5424C19.8909 29.6587 19.9492 29.775 19.9492 29.9495C19.9492 30.3566 19.5999 30.7055 19.1925 30.7055C19.1925 31.4033 19.6582 32.3338 20.5313 33.3806C20.9969 32.9153 21.5208 32.3919 22.1029 31.9848C22.1611 31.287 22.3357 30.531 22.5104 29.8332V29.775L22.5686 29.8332C22.6268 29.8914 22.685 29.9495 22.7432 30.0076C22.7432 30.0076 22.7432 30.0076 22.8014 30.0658V30.1239C22.685 30.5891 22.5686 30.9962 22.5104 31.4615V31.5196C22.4521 31.8685 22.3939 32.3338 22.3939 32.799C22.3939 33.148 22.3357 33.4387 22.3357 33.6713C22.3357 34.0203 22.3357 34.3692 22.3939 34.8344V34.8926H22.3357C22.2193 34.8344 22.1611 34.8344 22.1029 34.8344H22.0447V34.7763C22.0447 34.4855 21.9865 34.0784 21.9865 33.6713C21.9865 33.2642 21.9865 32.8571 22.0447 32.4501C21.579 32.8571 21.1134 33.2642 20.7641 33.6713C21.0552 34.0203 21.4626 34.3692 21.9283 34.7763L21.9865 34.8344H21.9283C21.8118 34.8926 21.6373 34.8926 21.5208 34.8344C21.1716 34.4855 20.8805 34.2528 20.5895 33.9621C20.5313 34.0203 20.473 34.0784 20.473 34.1365L20.4148 34.1947C20.3566 34.1947 20.2984 34.2528 20.182 34.311L20.1238 34.2529C20.1238 34.2529 20.0656 34.2528 20.0656 34.1947H20.0074V34.1365C20.1238 33.9621 20.2403 33.8458 20.3566 33.7295C19.3671 32.6246 18.9014 31.5778 18.9014 30.7637C18.6686 30.6473 18.494 30.4147 18.494 30.1239C18.3775 29.5424 18.7268 29.1935 19.1343 29.1935ZM27.3999 38.2073C26.9924 39.3704 26.4103 40.1846 25.77 40.5335C25.7118 40.8824 25.4208 41.1732 25.0716 41.1732C24.7223 41.1732 24.4312 40.8824 24.373 40.5335C23.7327 40.1846 23.1507 39.4286 22.7432 38.2655V38.2073L23.0925 38.091V38.1492C23.4417 39.1378 23.9074 39.8357 24.4312 40.1846C24.5477 39.8938 24.7805 39.6612 25.1298 39.6612C25.479 39.6612 25.7118 39.8938 25.8282 40.1264C26.3521 39.7775 26.8178 39.0796 27.167 38.1492V38.091H27.2252C27.2252 38.1492 27.2834 38.1492 27.3999 38.2073ZM24.4312 38.1492C24.4312 37.9166 24.4895 37.2769 24.6059 37.0443C24.7223 36.9861 24.8969 36.9279 25.0716 36.9279C25.2461 36.9279 25.4208 36.9861 25.5955 37.1024C25.6536 37.335 25.77 37.9166 25.77 38.1492C25.77 38.3818 25.188 38.5563 25.1298 38.6144C24.9551 38.5563 24.4312 38.44 24.4312 38.1492ZM31.882 35.823C31.8237 35.8812 31.7655 35.9393 31.7073 35.9393C31.6491 35.9393 31.5909 35.9975 31.4745 35.9975H31.4163C31.2999 35.9975 31.1834 35.9975 31.1252 35.9393C31.067 35.9393 31.067 35.8812 31.0088 35.8812C30.8342 35.8812 30.4268 35.9975 30.3103 36.0556C30.3685 36.0556 30.8924 36.1138 31.2416 36.4045C31.4163 36.5209 31.7655 36.5791 31.882 36.5791C31.882 36.6372 31.2999 37.0443 30.1939 36.8116L29.9029 36.7535C29.379 36.6372 28.9133 36.5791 28.3894 36.5791C28.4477 36.5791 28.5059 36.6372 28.5059 36.6372C28.6223 36.6954 28.7969 36.7535 28.9133 36.8116C28.9133 36.8116 28.9715 36.8116 28.9715 36.8698H29.0298C29.0879 36.8698 29.1461 36.8698 29.1461 36.9279C29.2043 36.9279 29.2625 36.9861 29.3208 36.9861C29.379 37.0443 29.4954 37.1024 29.4954 37.1606C29.4954 37.2187 29.5536 37.2187 29.5536 37.2769C29.5536 37.3932 29.5536 37.4513 29.4954 37.5677C29.3208 37.8002 29.0879 37.8002 28.8551 37.5677L28.7969 37.5095C28.7387 37.4513 28.6804 37.3932 28.6223 37.2769V37.2187C28.6223 37.2187 28.6223 37.2187 28.5641 37.2187C28.4477 37.1606 28.3894 37.0443 28.273 37.0443C28.0984 36.9861 27.8655 36.9279 27.6909 36.8698C27.6327 36.8698 27.5745 36.8698 27.5163 36.8698C27.6909 36.9861 27.8656 37.1024 27.9238 37.2187C27.9238 37.2187 27.9238 37.2187 27.9238 37.2769C28.0402 37.4513 28.0402 37.6258 28.0984 37.8002C28.273 38.1492 28.3312 38.2073 28.5059 38.3236C28.3312 38.3818 27.4581 38.3818 27.0507 37.7421C27.0507 37.7421 26.9924 37.684 26.9924 37.6258C26.876 37.3932 26.8178 37.1606 26.7596 36.9861C26.7014 36.8116 26.8178 36.6372 26.7014 36.5791C26.585 36.5209 26.5268 36.5791 26.5268 36.5791C26.4686 36.6372 26.4686 36.6372 26.4686 36.6372V36.6954C26.4686 36.7535 26.4103 36.7535 26.4103 36.7535V36.8116C26.4103 36.8116 26.4103 36.8698 26.3521 36.8698C26.3521 36.8698 26.3521 36.8698 26.2939 36.8698C26.2357 36.8698 26.2357 36.8698 26.1775 36.8698C26.1775 36.8698 26.1775 36.8698 26.1193 36.8698C26.1193 36.8698 26.0611 36.8698 26.0611 36.9279C26.0029 36.9279 25.9447 36.9861 25.8865 36.9861C25.8282 36.9861 25.77 36.9279 25.77 36.8698C25.77 36.8116 25.77 36.8116 25.77 36.7535C25.7118 36.7535 25.7118 36.7535 25.6536 36.7535C25.5955 36.7535 25.5955 36.7535 25.5372 36.6954C25.5372 36.6372 25.5372 36.5791 25.5372 36.5791C25.5372 36.5209 25.5372 36.5209 25.5372 36.5209C25.479 36.579 25.479 36.5791 25.4208 36.5791C25.3626 36.5791 25.3626 36.5791 25.3043 36.5791C25.2461 36.5791 25.2461 36.5209 25.2461 36.4627V36.4045C25.2461 36.4045 25.2461 36.4045 25.2461 36.3464C25.2461 36.3464 25.2461 36.3464 25.188 36.3464H25.1298C25.0716 36.3464 24.9551 36.2883 24.8969 36.2883C24.8969 36.2883 24.8969 36.2883 24.8387 36.2883C24.7805 36.2883 24.6641 36.3464 24.6059 36.3464H24.5477H24.4895C24.4895 36.3464 24.4895 36.3464 24.4895 36.2883C24.4895 36.2883 24.4895 36.2883 24.4895 36.2301L24.5477 36.172C24.5477 36.172 24.5477 36.172 24.5477 36.1138C24.4895 36.1138 24.4895 36.1138 24.4312 36.1138V36.172C24.4312 36.172 24.4312 36.172 24.373 36.172V36.2301V36.2883C24.373 36.3464 24.373 36.4045 24.3148 36.4045C24.2566 36.4627 24.2566 36.4627 24.1984 36.4045C24.1984 36.4045 24.1402 36.4045 24.1402 36.3464C24.1402 36.3464 24.082 36.3464 24.082 36.2883C24.082 36.2883 24.082 36.3464 24.1402 36.3464C24.1402 36.4045 24.1402 36.4045 24.1402 36.4627C24.082 36.5209 24.082 36.5209 24.0238 36.5209H23.9656H23.9074C23.9074 36.579 23.9656 36.579 23.9074 36.6372C23.9074 36.6954 23.8491 36.6954 23.7909 36.6954C23.7327 36.6954 23.7327 36.6954 23.6746 36.6954C23.6746 36.6954 23.6746 36.6954 23.6164 36.6954H23.5581L23.4999 36.6372C23.4999 36.6372 23.4417 36.6372 23.3835 36.6372C23.3835 36.6372 23.3253 36.6372 23.3253 36.5791L23.2671 36.5209V36.4627C23.1507 36.3464 22.976 36.7535 22.976 36.7535C22.4521 37.8584 21.1716 38.091 21.1716 38.0329C21.1716 38.0329 21.4626 37.9166 21.579 37.5095C21.6373 37.2769 21.6373 37.2187 21.7537 36.9861C21.7537 36.9279 21.8118 36.9279 21.8118 36.8698C21.87 36.7535 22.0447 36.6954 22.1611 36.5791C22.1029 36.5791 22.0447 36.5791 21.9865 36.5791C21.8118 36.6372 21.6373 36.6372 21.4044 36.7535C21.288 36.8116 21.2298 36.8698 21.1134 36.9279C21.1134 36.9279 21.1134 36.9279 21.0552 36.9279V36.9861C21.0552 37.0443 20.9969 37.1024 20.9387 37.2187L20.8805 37.2769C20.6477 37.5095 20.473 37.5095 20.2403 37.2769L20.182 37.2187C20.1238 37.1606 20.1238 37.0443 20.182 36.9861C20.182 36.9279 20.2403 36.8698 20.2984 36.8116C20.3566 36.7535 20.4148 36.7535 20.473 36.6954C20.5313 36.6372 20.5895 36.6372 20.6477 36.6372C20.7059 36.6372 20.7059 36.6372 20.7641 36.5791C20.7641 36.5791 20.8223 36.5791 20.8805 36.5791C20.8805 36.5791 20.8805 36.5209 20.9387 36.5209C20.9969 36.5209 21.0552 36.4627 21.1134 36.4627C21.1716 36.4627 21.2298 36.4045 21.288 36.4045C21.288 36.4045 21.3462 36.4045 21.4044 36.3464C20.9387 36.3464 20.473 36.4045 19.9492 36.5209C19.8909 36.5209 19.7746 36.5791 19.6582 36.5791C19.0761 36.6954 17.9701 36.4045 17.9701 36.3464C17.9701 36.2883 18.2612 36.2883 18.5522 36.1138C18.785 35.9975 18.9014 35.8812 19.0761 35.823C19.3671 36.0556 19.7164 36.0556 19.7746 36.0556C19.6582 35.9975 19.1343 35.9393 18.9596 35.8812C18.9596 35.8812 18.9014 35.9393 18.8432 35.9393C18.7268 35.9975 18.6104 35.9975 18.494 35.9975C18.4357 35.9975 18.3194 35.9975 18.2612 35.9393C18.2029 35.9393 18.1447 35.8812 18.0865 35.823C18.0283 35.7649 18.0283 35.7067 18.0283 35.5322C18.0865 35.2997 18.3194 35.1833 18.6104 35.2415C18.785 35.2997 18.9014 35.3578 18.9596 35.416L19.0178 35.4741C19.1925 35.4741 19.4253 35.5904 19.6582 35.6486C19.8909 35.7649 20.0656 35.823 20.182 35.823C20.1238 35.823 20.0656 35.7649 20.0074 35.7649C19.9492 35.7649 19.8909 35.7068 19.8909 35.7068C19.8328 35.6486 19.7746 35.6486 19.7164 35.5904C19.3671 35.416 19.0178 35.2415 18.785 35.0089C18.6104 34.7763 18.5522 34.6599 18.494 34.4274C18.4357 33.904 18.2029 33.6713 18.2029 33.6132C18.2612 33.555 19.0761 33.9621 19.3671 34.2529C19.5417 34.4855 19.5999 34.6599 19.6582 34.8344V34.8926C19.7164 35.067 19.8909 35.2415 20.182 35.416C20.2403 35.416 20.2403 35.4741 20.2984 35.4741C20.2403 35.3578 20.182 35.2997 20.1238 35.1833V35.1251L20.0656 35.067C20.0656 35.067 20.0074 35.0089 20.0074 34.9507C19.9492 34.8926 19.9492 34.8344 19.8909 34.7763C19.8328 34.6018 19.8328 34.4274 19.8909 34.3692C19.9492 34.311 20.0074 34.2528 20.1238 34.1947C20.3566 34.1365 20.5313 34.2529 20.5895 34.6018C20.5895 34.6599 20.5895 34.7181 20.5895 34.7763C20.5895 34.8344 20.5895 34.8926 20.5895 34.9507V35.0089C20.5895 35.0089 20.5895 35.0089 20.5895 35.067C20.7059 35.416 20.9969 35.7067 21.3462 35.9393C20.9387 35.5904 20.7059 34.7763 20.7641 34.7763C20.8223 34.7181 21.1716 34.9507 21.5208 35.1251C21.6955 35.1833 21.87 35.2997 22.0447 35.416C22.1611 35.4741 22.2775 35.5904 22.3357 35.6486C22.4521 35.7067 22.5104 35.823 22.5686 35.8812C22.6268 35.9393 22.685 35.9975 22.7432 36.0556C22.8014 36.1138 22.8014 36.1138 22.8596 36.172C22.976 36.2301 23.1507 36.172 23.1507 36.172C23.2089 36.172 23.2671 36.172 23.3253 36.1138C23.3253 36.1138 23.3253 36.1138 23.3835 36.0556C23.4417 35.9975 23.4999 35.9975 23.5581 35.9975V35.9393C23.5581 35.823 23.6164 35.7649 23.7327 35.7068C23.7327 35.7068 23.7909 35.7067 23.7909 35.6486H23.8491H23.9074H23.9656C23.9656 35.5904 24.0238 35.5904 24.082 35.5322C24.1984 35.4741 24.373 35.4741 24.4895 35.5904C24.5477 35.6486 24.5477 35.7067 24.6059 35.7649V35.823C24.6059 35.8812 24.6059 35.8812 24.6059 35.9393C24.6059 35.9975 24.6059 35.9975 24.6059 36.0556C24.6641 36.0556 24.7805 36.0556 24.8387 36.0556C24.8969 36.0556 24.8969 36.0556 24.9551 36.0556C25.0133 36.0556 25.0716 36.0556 25.1298 36.1138C25.188 36.1138 25.2461 36.0556 25.3043 36.0556C25.3626 36.0556 25.3626 36.0556 25.4208 36.0556H25.479C25.479 35.9975 25.479 35.9393 25.479 35.8812C25.479 35.823 25.479 35.7649 25.5372 35.7068C25.5372 35.7068 25.5372 35.6486 25.5955 35.6486L25.6536 35.5904C25.77 35.5322 25.8865 35.5322 26.0029 35.5904C26.0611 35.5904 26.0611 35.6486 26.1193 35.7068C26.1775 35.7068 26.1775 35.7068 26.2357 35.7068H26.2939H26.3521C26.4686 35.7649 26.5268 35.823 26.5268 35.9393C26.5268 35.9393 26.5268 35.9393 26.585 35.9393H26.6432C26.6432 35.9393 26.9342 35.9393 26.9924 35.9975H27.2834C27.3417 35.9393 27.3417 35.9393 27.3999 35.8812C27.4581 35.823 27.5745 35.7067 27.6327 35.6486C27.7491 35.5904 27.8073 35.4741 27.9238 35.416C28.0984 35.2997 28.3312 35.2415 28.5059 35.1833C29.0879 34.9507 29.1461 34.6018 29.2043 34.6018C29.2625 34.6599 29.0879 35.5904 28.6804 35.9393C28.9715 35.7067 29.2625 35.416 29.4372 35.067C29.4372 35.067 29.4372 35.067 29.4372 35.0089V34.9507C29.4372 34.8926 29.4372 34.8344 29.4372 34.7763C29.4372 34.7181 29.4372 34.6599 29.4372 34.6018C29.5536 34.311 29.67 34.1365 29.9029 34.1947C30.0193 34.2528 30.0775 34.311 30.1357 34.3692C30.1939 34.4855 30.1939 34.6018 30.1357 34.7763C30.1357 34.8344 30.0775 34.8926 30.0193 34.9507C29.9611 35.0089 29.9611 35.0089 29.9029 35.067L29.8446 35.1251V35.1833C29.7864 35.2997 29.7282 35.3578 29.6118 35.4741C29.67 35.416 29.67 35.416 29.7282 35.3578C30.0193 35.1251 30.1939 34.9507 30.2521 34.7763C30.3103 34.6018 30.3685 34.4274 30.5432 34.1947C30.8342 33.904 30.8924 33.7876 31.1834 33.6132C31.2416 33.555 31.6491 33.4969 31.7073 33.4969C31.7655 33.555 31.4163 33.6713 31.2999 34.2529C31.2416 34.4274 31.1834 34.7181 31.0088 34.9507C30.776 35.2415 30.5432 35.2997 30.2521 35.4741L30.1939 35.5322C30.1357 35.5904 30.0775 35.5904 29.9611 35.6486C29.8446 35.7067 29.7864 35.7649 29.7282 35.7649C29.9029 35.7067 30.0775 35.6486 30.3103 35.5904C30.485 35.4741 30.7178 35.416 30.9506 35.416C30.9506 35.416 30.9506 35.3578 31.0088 35.3578C31.067 35.2997 31.1834 35.2415 31.3581 35.1833C31.6491 35.067 31.882 35.1833 31.9402 35.4741C31.9984 35.6486 31.9402 35.7649 31.882 35.823Z" fill="#13377D"/>
<path d="M42.0689 24.134C42.942 23.7269 44.3973 22.7383 44.9793 22.0405C44.1644 21.7497 42.5346 21.5752 41.6032 21.5752C43.5241 20.2377 43.5823 17.4463 43.0584 15.4109C42.5928 17.0392 41.4286 18.3767 40.6719 19.1909C40.7301 20.005 40.4973 21.4007 40.0316 22.2149C40.6719 22.4475 41.4286 22.7964 41.9525 23.2035C41.6032 23.6687 40.8465 24.3085 40.3808 24.7155C40.7883 25.1226 41.4286 25.8786 41.7778 26.3438C41.3122 26.6928 40.3808 27.0417 39.8569 27.2161C40.0898 27.7395 40.4391 28.6118 40.5555 29.2516C39.9734 29.3678 39.2166 29.426 38.4017 29.426C38.46 30.0075 38.3435 30.938 38.2271 31.5196C37.4704 31.4614 36.5973 31.1706 36.1898 30.938C35.957 31.7521 35.4331 32.5663 35.4331 32.6244C34.7346 31.8103 34.0361 31.5196 33.3958 31.5196V30.9962C34.0361 30.9962 34.7346 31.2288 35.2585 31.7521C35.4913 31.3451 35.7242 30.5891 35.8405 30.1239C36.3062 30.3564 37.063 30.6472 37.7033 30.7635C37.7614 30.182 37.8196 29.426 37.7614 28.8445C38.4017 28.9026 39.1003 28.9026 39.8569 28.7863C39.7405 28.2629 39.2748 27.3906 38.9838 26.9254C39.6241 26.7509 40.4391 26.402 40.8465 26.1694C40.4973 25.7042 39.9152 25.0644 39.5077 24.6574C39.9734 24.3085 40.7301 23.7269 41.0212 23.378C40.4973 23.0291 39.7987 22.6801 39.2166 22.4475C40.0316 21.3426 40.2062 19.0746 40.0316 18.0278C39.3331 20.4121 37.2376 22.1568 35.957 22.9709C35.8988 23.0291 35.8405 23.0872 35.7823 23.0872C35.7242 23.1453 35.4913 23.4362 35.6078 23.7851C35.6078 23.9014 35.666 23.9595 35.666 24.0758C35.7823 24.541 35.7823 25.2389 35.0839 25.8786C34.5018 26.402 33.8033 26.4601 33.3958 26.402V25.1226C33.3958 24.9481 33.2794 24.8318 33.1048 24.8318H32.2317L31.8242 24.4248C31.8242 24.4248 32.2317 24.4248 32.6973 24.4248C33.163 24.3666 33.6869 24.134 33.6869 24.134C33.6869 24.134 33.163 24.1339 32.9301 24.0758C32.6391 24.1339 31.9988 23.8432 31.4749 23.2616C31.3003 23.0291 31.1257 22.7964 31.0092 22.5638C30.5436 22.1568 30.0197 21.6334 29.6705 20.8773C29.4376 20.354 29.3212 19.5979 29.263 19.1327C29.0884 19.249 28.9137 19.4817 28.6809 19.7725C28.2735 20.2958 28.0988 21.0518 28.0988 21.0518L27.9242 21.6334L27.6331 21.11C27.6331 21.11 27.2257 20.4121 27.1675 19.5398C27.1675 19.1327 27.1675 18.7838 27.2257 18.4931C27.1093 18.5512 26.9347 18.6675 26.76 18.7838C26.0615 19.3072 25.654 19.8306 25.654 19.8306C25.3048 20.2958 25.0719 20.7029 25.0138 20.8773C24.9556 20.6448 24.7227 20.2958 24.3735 19.8306C24.3735 19.8306 24.0242 19.249 23.2675 18.7838C23.0929 18.6675 22.9183 18.5512 22.8018 18.4931C22.8601 18.7838 22.8601 19.1909 22.8601 19.5398C22.8018 20.4121 22.3944 21.0518 22.3944 21.11L22.1033 21.5752L21.9287 20.9936C21.9287 20.9936 21.6958 20.2377 21.3466 19.7143C21.1138 19.4235 20.9392 19.1909 20.7645 19.0746C20.7063 19.5398 20.5899 20.354 20.3571 20.8192C20.0079 21.5752 19.5422 22.1568 19.0183 22.5057C18.9019 22.7383 18.7272 22.9709 18.5526 23.2035C18.0288 23.7851 17.3884 24.0758 17.0974 24.134C16.8645 24.1921 16.3407 24.1921 16.3407 24.1921C16.3407 24.1921 16.8645 24.4248 17.3302 24.4829C17.7959 24.541 18.2033 24.4829 18.2033 24.4829L17.7959 24.89H16.9228C16.7481 24.89 16.6318 25.0063 16.6318 25.1808V26.4601C16.2243 26.5183 15.4675 26.4601 14.9437 25.9367C14.3034 25.2971 14.2452 24.5992 14.3616 24.134C14.4198 24.0758 14.4198 23.9595 14.4198 23.8432C14.5362 23.4943 14.3034 23.2035 14.2452 23.1453C14.187 23.0872 14.1288 23.0291 14.0706 23.0291C12.79 22.2149 10.7527 20.4703 9.99593 18.086C9.82135 19.1327 10.0541 21.3426 10.8109 22.5057C10.2288 22.7383 9.47204 23.0872 9.00642 23.4362C9.29746 23.7851 10.0541 24.4248 10.5198 24.7155C10.1124 25.0644 9.47204 25.7623 9.181 26.2275C9.5885 26.4601 10.4034 26.809 11.0437 26.9836C10.7527 27.4488 10.287 28.3211 10.1706 28.8445C10.8691 28.9608 11.6258 28.9608 12.2661 28.9026C12.2079 29.4841 12.2661 30.2983 12.3243 30.8217C12.9646 30.7054 13.7213 30.4728 14.187 30.182C14.3034 30.5891 14.5362 31.4032 14.769 31.8103C15.2929 31.2869 15.9914 31.0543 16.6318 31.0543V31.5777C15.9914 31.5777 15.2929 31.8685 14.5944 32.6826C14.5944 32.6244 14.0706 31.8103 13.8377 30.9962C13.4302 31.1706 12.5571 31.5196 11.8004 31.5777C11.684 30.9962 11.6258 30.0657 11.6258 29.4841C10.8109 29.4841 10.0541 29.426 9.47204 29.3097C9.5885 28.67 9.93774 27.7977 10.1706 27.2743C9.6467 27.0998 8.71538 26.6928 8.24968 26.402C8.54073 25.9367 9.23927 25.1808 9.6467 24.7737C9.181 24.4248 8.42434 23.7269 8.07503 23.2616C8.59892 22.8546 9.35566 22.5057 9.99593 22.273C9.53031 21.4007 9.29746 20.005 9.35566 19.249C8.54073 18.4349 7.37656 17.0974 6.96913 15.469C6.38701 17.5044 6.50343 20.354 8.42434 21.6334C7.49295 21.6334 5.86313 21.8659 5.04822 22.0986C5.6303 22.7964 7.08552 23.7269 7.95864 24.1921C7.26017 24.4248 6.03776 25.1226 5.51388 25.5878C6.15418 25.9949 7.60941 26.4601 8.30788 26.6346C7.90045 26.9836 7.08552 27.914 6.79448 28.3792C7.37656 28.5537 8.54073 28.7282 9.29746 28.7282C9.06461 29.2516 8.77357 30.1239 8.71538 30.6472C9.06461 30.7054 10.287 30.6472 10.9272 30.4728C10.8691 30.9962 10.8691 31.8685 10.9855 32.2755C11.5676 32.2174 12.4407 31.9266 12.8481 31.8103C12.9646 32.2755 13.372 33.206 13.5467 33.4386C13.8377 33.3805 14.1288 33.3223 14.4198 33.206C15.2347 32.9152 16.1079 33.2642 16.4571 34.0201C17.0392 35.3577 16.8063 36.9279 15.7004 36.6371C14.4198 36.8697 15.2929 38.498 14.5362 39.0214C15.5258 39.7192 15.8168 38.0909 17.0974 38.3817C16.981 38.9632 16.981 40.0682 17.0974 40.5334C17.5049 40.2426 18.087 40.0101 18.4362 39.9519C18.3198 40.3008 18.2615 41.1149 18.378 41.6383C18.6108 41.4639 20.2989 40.9987 20.2989 40.9987C20.2989 40.9987 19.6586 42.2781 20.0661 43.5574C20.2989 43.7319 21.8123 42.9758 21.8123 42.5688C21.8705 43.0922 21.2302 44.2553 20.2406 44.4879C21.2884 45.5347 22.2197 45.4765 22.3362 45.4765C22.5108 45.4765 22.6272 45.4765 22.7436 45.3602C22.6854 45.6509 22.6272 46.058 22.6854 46.2907C22.7436 46.2907 22.8018 46.2907 22.8601 46.2907C23.1511 46.2907 23.3839 46.2325 23.5585 46.1743C23.6167 46.4651 23.7332 46.7559 23.9078 46.9885C23.966 47.0466 23.966 47.0466 24.0242 47.1048C24.257 47.1048 24.8392 46.8141 24.9556 46.6396C25.0719 46.8141 25.654 47.1048 25.8869 47.1048C25.9451 47.0466 26.0033 47.0466 26.0033 46.9885C26.2361 46.7559 26.3526 46.407 26.3526 46.1743C26.5854 46.2907 26.8183 46.2907 27.051 46.2907C27.1093 46.2907 27.1675 46.2907 27.2257 46.2907C27.2839 46.058 27.2839 45.6509 27.1675 45.3602C27.2839 45.4184 27.4585 45.4765 27.5749 45.4765C27.6914 45.4765 28.6227 45.5347 29.6705 44.4879C28.6809 44.2553 28.0406 43.0922 28.0988 42.5688C28.0988 43.034 29.6122 43.7319 29.8451 43.5574C30.2526 42.2781 29.6122 40.9987 29.6122 40.9987C29.6122 40.9987 31.2421 41.4057 31.5331 41.6383C31.6496 41.1149 31.5913 40.3008 31.4749 39.9519C31.8242 39.9519 32.4062 40.2426 32.8137 40.5334C32.9301 40.0682 32.9301 39.0214 32.8137 38.3817C34.0361 38.0909 34.3271 39.7192 35.3749 39.0214C34.6764 38.498 35.5495 36.8697 34.2108 36.6371C33.1048 36.986 32.8719 35.3577 33.454 34.0201C33.8033 33.2642 34.7346 32.9152 35.4913 33.206C35.7823 33.3223 36.0734 33.3805 36.3644 33.4386C36.4809 33.206 36.9465 32.2755 37.063 31.8103C37.4704 31.9848 38.3435 32.2174 38.9256 32.2755C38.9838 31.8685 39.0421 30.9962 38.9838 30.4728C39.5659 30.5891 40.8465 30.6472 41.1957 30.6472C41.1375 30.0657 40.8465 29.1934 40.6137 28.7282C41.3704 28.67 42.5346 28.5537 43.1166 28.3792C42.8256 27.8559 42.0107 26.9254 41.6032 26.6346C42.3017 26.4601 43.7569 25.9949 44.3973 25.5878C43.9898 25.0644 42.7674 24.3666 42.0689 24.134ZM32.6391 37.2186C32.5809 37.335 32.5227 37.3931 32.4644 37.5094C32.4644 37.5675 32.4062 37.5675 32.4062 37.6257C32.348 37.6839 32.2899 37.7421 32.2317 37.8583C32.1734 37.9165 32.1734 37.9165 32.1152 37.9746C32.057 38.0909 31.9406 38.1491 31.8824 38.2654C31.8242 38.3236 31.766 38.3817 31.7078 38.4398C31.6496 38.498 31.5913 38.5562 31.5331 38.6143C31.4749 38.6725 31.4167 38.7307 31.3003 38.8469C31.2421 38.9051 31.2421 38.9051 31.1839 38.9632C31.0092 39.1377 30.7764 39.3122 30.5436 39.4285C30.2526 39.6611 29.9615 39.8355 29.6122 40.0101C29.4958 40.0682 29.3794 40.1263 29.263 40.1845C26.6436 41.522 25.363 42.5688 24.9556 42.8596H24.8974C24.4899 42.5106 23.2093 41.522 20.5899 40.1845C20.4735 40.1263 20.3571 40.0682 20.2406 40.0101C19.8914 39.8355 19.6004 39.6611 19.3093 39.4285C19.0765 39.254 18.9019 39.0796 18.669 38.9632C18.6108 38.9051 18.5526 38.9051 18.5526 38.8469C18.4944 38.7888 18.378 38.7307 18.3198 38.6143C18.2615 38.5562 18.2034 38.498 18.1452 38.4398C18.087 38.3817 18.0288 38.3236 17.9705 38.2654C17.8541 38.1491 17.7959 38.0909 17.7377 37.9746C17.6795 37.9165 17.6795 37.9165 17.6213 37.8583C17.5631 37.8002 17.5049 37.7421 17.4466 37.6257C17.4466 37.5675 17.3884 37.5675 17.3884 37.5094C17.3302 37.3931 17.272 37.335 17.2138 37.2186C16.8645 36.4627 16.9228 35.8229 16.9228 35.8229V25.646C16.9228 25.4715 17.0392 25.3552 17.2138 25.3552H18.087H25.0138H31.7078H32.5809C32.7555 25.3552 32.8719 25.4715 32.8719 25.646V35.8229C32.9301 35.8229 32.9883 36.4627 32.6391 37.2186Z" fill="#13377D"/>
<path d="M32.2898 9.3049C32.5226 9.3049 32.639 9.13045 32.639 8.89781C32.639 8.66517 32.4644 8.49072 32.2898 8.49072C32.0569 8.49072 31.9406 8.66517 31.9406 8.89781C31.9406 9.13045 32.1152 9.3049 32.2898 9.3049Z" fill="#13377D"/>
<path d="M32.2896 11.4562C32.5224 11.4562 32.7553 10.4675 32.7553 10.0023C32.7553 9.71156 32.5224 9.53711 32.2896 9.53711C32.0568 9.53711 31.824 9.71156 31.824 10.0023C31.824 10.4675 32.0568 11.4562 32.2896 11.4562Z" fill="#13377D"/>
<path d="M32.0568 7.90935H32.5807L32.4642 7.26962L33.1045 7.32781V6.80441L32.4642 6.92073L32.5807 6.28101H32.0568L32.115 6.92073L31.4747 6.80441V7.32781L32.115 7.26962L32.0568 7.90935Z" fill="#13377D"/>
<path d="M30.0195 12.6193C30.1941 12.6775 30.3687 12.6775 30.5434 12.7356H30.6016H30.6598C30.718 12.7356 30.718 12.7356 30.718 12.7356H30.8344C30.8926 12.7356 30.9508 12.7356 31.009 12.7356C31.0673 12.7356 31.0673 12.7356 31.1255 12.7356C31.1837 12.7356 31.2419 12.7356 31.3 12.7356C31.7657 12.7356 32.2314 12.6193 32.6971 12.5031C33.1628 12.3868 33.6284 12.2704 34.1523 12.2704H34.2105H34.2687H34.3269H34.3851H34.4434H34.5016C34.618 11.747 34.7926 11.1655 34.7926 10.8166C34.7926 10.1187 34.3851 9.36277 33.0464 9.13013C33.0464 10.0024 32.6389 12.0378 32.1732 12.0378H32.115C31.6494 12.0378 31.2419 10.0024 31.2419 9.13013C29.9031 9.36277 29.4956 10.1187 29.4956 10.8166C29.4956 11.2237 29.6703 11.9797 29.8448 12.5031C30.0195 12.5612 30.0195 12.5612 30.0195 12.6193Z" fill="#13377D"/>
<path d="M37.0045 8.95624C37.0045 8.95624 36.6552 8.02581 37.2373 7.73505C37.8776 7.50241 37.0045 7.61873 37.4702 6.33932C37.9941 4.82731 39.1582 5.17624 39.1582 5.17624C38.3433 4.53655 37.703 4.5947 37.2373 4.94362C36.9463 5.17624 36.5388 5.64147 36.2477 6.57193C36.015 7.73505 36.4224 8.83992 37.0045 8.95624Z" fill="#13377D"/>
<path d="M40.0312 6.68801C40.0894 8.6071 43.2909 9.42127 43.2909 9.42127C43.2909 9.42127 41.4283 8.08369 41.7775 7.09507C41.7775 7.09507 42.9998 7.61848 44.3969 7.38584C41.4283 6.74618 42.4178 5.8157 41.6611 5.05969C40.9044 4.24554 39.7402 4.18739 39.4492 4.12923C38.6924 4.07107 38.6342 4.07108 37.7611 4.30369C39.7984 4.36185 40.0312 5.40862 40.0312 6.68801Z" fill="#13377D"/>
<path d="M39.6237 10.2936C40.0311 8.78157 39.2744 8.08378 39.2744 8.08378C39.0416 7.79295 37.8192 7.85114 37.3535 8.14191C37.3535 8.14191 38.5177 8.14191 38.3431 9.82838C38.1685 11.5149 35.8401 11.8637 35.1998 11.9219L35.1416 12.1545C36.2476 12.1545 39.158 11.8056 39.6237 10.2936Z" fill="#13377D"/>
<path d="M27.4587 10.2354H26.2946C26.8766 11.8636 28.5647 12.387 29.6707 12.5615L29.6125 12.387C28.4483 11.9218 27.8662 11.4565 27.4587 10.2354Z" fill="#13377D"/>
<path d="M17.7956 9.3049C18.0284 9.3049 18.1449 9.13045 18.1449 8.89781C18.1449 8.66517 17.9702 8.49072 17.7956 8.49072C17.5628 8.49072 17.4463 8.66517 17.4463 8.89781C17.3881 9.13045 17.5628 9.3049 17.7956 9.3049Z" fill="#13377D"/>
<path d="M17.7958 11.4566C18.0287 11.4566 18.2615 10.468 18.2615 10.0028C18.2615 9.71204 18.0287 9.5376 17.7958 9.5376C17.563 9.5376 17.3302 9.71204 17.3302 10.0028C17.3302 10.468 17.5048 11.4566 17.7958 11.4566Z" fill="#13377D"/>
<path d="M17.5044 7.90935H18.0283L17.9701 7.26962L18.6104 7.32781V6.80441L17.9701 6.92073L18.0283 6.28101H17.5044L17.6209 6.92073L16.9806 6.80441V7.32781L17.6209 7.26962L17.5044 7.90935Z" fill="#13377D"/>
<path d="M15.4671 12.2703H15.5253H15.5835H15.7C15.7582 12.2703 15.7582 12.2703 15.7582 12.2703H15.8164C16.3402 12.3285 16.8641 12.3867 17.2716 12.503C17.6791 12.6193 18.203 12.7356 18.6686 12.7356C18.7268 12.7356 18.785 12.7356 18.8432 12.7356C18.9014 12.7356 18.9014 12.7356 18.9596 12.7356C19.0179 12.7356 19.0761 12.7356 19.1343 12.7356H19.2507H19.3089H19.3671H19.4253C19.6 12.7356 19.7745 12.6774 19.9492 12.6193C19.9492 12.5611 19.9492 12.5611 20.0074 12.5611C20.182 12.0378 20.3566 11.2817 20.3566 10.8747C20.3566 10.1769 20.0074 9.4208 18.6104 9.18823C18.6104 10.0023 18.203 12.0959 17.7373 12.0959H17.6791C17.2134 12.0959 16.8059 10.0605 16.8059 9.18823C15.4671 9.4208 15.0597 10.1769 15.0597 10.8747C15.0597 11.2236 15.1761 11.8051 15.3507 12.3285C15.4089 12.2703 15.4089 12.2703 15.4671 12.2703Z" fill="#13377D"/>
<path d="M10.869 5.17566C10.869 5.17566 12.0332 4.82674 12.5571 6.33874C13.0227 7.61815 12.1496 7.50183 12.7898 7.73447C13.4302 7.96704 13.0227 8.95566 13.0227 8.95566C13.663 8.83934 14.0705 7.73447 13.7212 6.5132C13.4302 5.58274 13.0227 5.1175 12.7317 4.88489C12.266 4.59412 11.6839 4.53596 10.869 5.17566Z" fill="#13377D"/>
<path d="M8.24922 7.09502C8.59852 8.08364 6.73582 9.42115 6.73582 9.42115C6.73582 9.42115 9.99554 8.60698 9.99554 6.68792C10.0537 5.40854 10.2283 4.36176 12.2074 4.30361C11.3343 4.12915 11.2761 4.12915 10.5194 4.12915C10.2283 4.12915 9.06415 4.24546 8.30748 5.05961C7.60894 5.81562 8.54026 6.74606 5.57166 7.38579C7.02686 7.61836 8.24922 7.09502 8.24922 7.09502Z" fill="#13377D"/>
<path d="M11.742 9.82796C11.5673 8.14148 12.7316 8.14148 12.7316 8.14148C12.3241 7.85072 11.1017 7.85072 10.8107 8.08329C10.8107 8.08329 10.0539 8.72302 10.4614 10.2932C10.8689 11.8052 13.8375 12.1541 14.9434 12.1541L14.8853 11.9215C14.245 11.8633 11.9166 11.5144 11.742 9.82796Z" fill="#13377D"/>
<path d="M23.7913 10.2354H22.6271C22.2196 11.4565 21.6375 11.9218 20.4734 12.387L20.4152 12.5615C21.5793 12.387 23.2092 11.8636 23.7913 10.2354Z" fill="#13377D"/>
<path d="M26.5269 17.3881C26.1777 17.9115 25.8867 18.4931 25.6538 19.0746C25.8285 18.842 26.1195 18.6094 26.4105 18.3767C26.9344 18.0279 27.4001 17.7952 27.4001 17.7952L27.8658 17.6208L27.7494 18.086C27.7494 18.086 27.5747 18.842 27.6329 19.4817C27.6329 19.7725 27.7493 20.0632 27.8076 20.2377C27.9239 19.9469 28.0986 19.6561 28.2732 19.3654C28.8553 18.6094 29.321 18.3186 29.321 18.3186L29.6702 18.1441V18.5512C29.6702 18.5512 29.7866 19.8888 30.0777 20.5866C30.6016 21.7497 31.5911 22.3893 32.1732 22.6802C32.115 22.622 31.9985 22.5057 31.8821 22.3894C31.5911 22.0986 31.3 21.5752 31.1254 20.4703C31.009 19.5398 31.3582 18.6094 31.4747 18.3186C31.5329 18.5512 31.6493 18.7838 31.7657 18.842C31.7657 18.842 31.7657 18.6094 31.8239 18.3767C31.9403 17.7371 32.6389 16.7485 33.5702 16.1669C33.7448 16.0506 33.9194 15.9343 34.0359 15.8761C34.2105 15.818 34.3269 15.7017 34.4433 15.5853C34.2687 15.5853 34.0359 15.6435 33.8612 15.6435H33.803C33.6866 15.6435 33.512 15.6435 33.2791 15.6435C32.8134 15.6435 32.2896 15.5853 31.8821 15.2364C31.4747 14.8875 31.3 14.5386 31.2419 14.3059C31.0672 14.3059 30.8344 14.3059 30.5433 14.3059C30.1941 14.3059 29.903 14.1897 29.7284 14.1897C29.2628 14.4805 28.7971 14.5967 28.215 14.6549C28.1568 14.6549 28.0404 14.6549 27.9821 14.6549C28.1568 14.8294 28.3896 14.9457 28.5642 15.062C28.5642 15.062 28.5642 15.062 28.6225 15.062L28.506 15.1201C28.5642 15.062 27.7493 15.5272 26.5269 17.3881Z" fill="#13377D"/>
<path d="M34.1521 14.1316C33.9193 14.1316 33.7447 14.1316 33.5118 14.1316C33.5118 14.2479 33.5118 14.3642 33.5118 14.4805C33.57 14.655 33.6283 14.7713 33.7447 14.8876C33.9193 14.7713 34.0939 14.4805 34.1521 14.1316Z" fill="#13377D"/>
<path d="M34.618 12.7941C34.5598 12.7941 34.5598 12.7941 34.618 12.7941H34.5598C34.5598 12.7941 34.5598 12.7941 34.5016 12.7941C34.4434 12.7941 34.4434 12.7941 34.3852 12.7941C33.9196 12.7941 33.4539 12.9104 32.9882 13.0267C32.5226 13.143 31.9987 13.2594 31.533 13.2594C31.4166 13.2594 31.3584 13.2594 31.2419 13.2594C31.1837 13.2594 31.1255 13.2594 31.0673 13.2594C31.0091 13.2594 31.0091 13.2594 30.9509 13.2594C30.8927 13.2594 30.8927 13.2594 30.8345 13.2594C30.8345 13.2594 30.8345 13.2594 30.7763 13.2594C30.7763 13.2594 30.7763 13.2594 30.718 13.2594C29.6703 13.143 28.9718 12.7941 28.6226 12.6196C28.6808 12.7359 28.7972 12.8523 28.9718 13.0267C29.03 13.0848 29.0883 13.143 29.1464 13.2012C29.2628 13.3175 29.4375 13.4338 29.6121 13.5501C29.8449 13.6664 30.8345 14.0735 32.1151 13.899C33.5703 13.6664 33.8613 13.7246 34.2106 13.7246H34.327C34.8509 13.7827 35.6076 14.0735 35.8987 14.2479C36.015 13.9571 36.1897 13.6664 36.2479 13.3756C36.1897 13.3175 36.0732 13.2012 35.8404 13.0848C35.7822 13.0267 35.724 13.0267 35.6076 12.9685C35.4912 12.9104 35.3166 12.8523 35.0837 12.8523C34.8509 12.7941 34.7345 12.7941 34.618 12.7941Z" fill="#13377D"/>
<path d="M38.6922 17.5625C38.6341 17.5625 38.1102 17.8533 37.0042 17.1554C35.8982 16.4576 35.0833 16.1668 34.6176 16.0505C34.5012 16.1087 34.443 16.1668 34.3266 16.225C34.2102 16.2831 34.0355 16.3994 33.8609 16.5157C33.8027 16.5739 33.7445 16.5739 33.6863 16.6321C33.6863 16.6321 33.7445 16.6321 33.8027 16.6321C34.8504 16.7483 35.6654 17.3299 35.7236 17.5625H35.7818C35.8982 17.2136 35.7236 16.9228 35.7236 16.9228C35.7236 16.9228 36.1893 17.2136 37.1206 17.7369C38.1102 18.3767 38.5176 17.7951 38.6922 17.5625Z" fill="#13377D"/>
<path d="M33.1632 14.7131C33.105 14.6549 33.0468 14.5386 32.9886 14.4804C32.9304 14.3641 32.9304 14.306 32.9304 14.2478C32.6976 14.2478 32.4065 14.306 32.0572 14.3641C31.999 14.3641 31.8827 14.3641 31.8245 14.3641C31.999 14.7131 32.2901 15.062 32.8722 15.1783C32.9304 15.1783 32.9304 15.1783 32.9886 15.1783C33.0468 15.1783 33.0468 15.1783 33.105 15.1783C33.3379 15.2364 33.6289 15.2364 33.8035 15.2364C34.211 15.2364 34.6767 15.1783 35.1423 15.062C35.2588 14.9457 35.317 14.7712 35.4333 14.6549C35.4333 14.6549 35.3752 14.5968 35.317 14.5968C35.2005 14.5386 34.9095 14.3641 34.7349 14.306C34.6767 14.4804 34.5602 14.6549 34.4438 14.7712C34.2692 14.8875 34.0363 14.9457 33.8035 14.9457C33.5707 14.9457 33.3379 14.8875 33.2214 14.7712C33.1632 14.7712 33.1632 14.7131 33.1632 14.7131Z" fill="#13377D"/>
<path d="M36.2478 13.8408C35.8985 14.7713 35.3164 15.4692 34.9089 15.8181C37.5283 15.1202 37.994 16.4578 37.994 16.5159C37.994 16.5741 37.994 16.5741 38.0522 16.5159C38.1104 16.4578 38.9836 15.5273 38.3432 14.655C37.8193 13.9571 36.6552 13.8408 36.2478 13.8408ZM36.2478 14.5387C36.3641 14.4224 36.4223 14.1898 36.4223 14.1898C36.597 14.1898 36.9462 14.2479 36.9462 14.4805C36.7134 14.4224 36.4223 14.4224 36.2478 14.5387Z" fill="#13377D"/>
<path d="M16.5735 14.4805C16.5735 14.3642 16.5735 14.2479 16.5735 14.1316C16.3407 14.1316 16.1078 14.1316 15.9332 14.1316C15.9914 14.4805 16.166 14.7713 16.3407 14.8876C16.457 14.7713 16.5153 14.655 16.5735 14.4805Z" fill="#13377D"/>
<path d="M19.5421 13.201C19.4839 13.201 19.4839 13.201 19.5421 13.201C19.4839 13.201 19.4839 13.201 19.4839 13.201C19.4839 13.201 19.4839 13.201 19.4258 13.201C19.3676 13.201 19.3676 13.201 19.3094 13.201C19.2511 13.201 19.2511 13.201 19.1929 13.201C19.1347 13.201 19.0765 13.201 19.0183 13.201C18.9019 13.201 18.8437 13.201 18.7273 13.201C18.2034 13.201 17.7377 13.0847 17.272 12.9684C16.7482 12.9102 16.2825 12.7939 15.8168 12.7939C15.7586 12.7939 15.7586 12.7939 15.7004 12.7939C15.7004 12.7939 15.7004 12.7939 15.6422 12.7939C15.5258 12.7939 15.4094 12.7939 15.3512 12.7939C15.1183 12.7939 14.9437 12.852 14.8273 12.9102C14.7691 12.9684 14.6526 12.9684 14.5944 13.0266C14.4198 13.1428 14.3034 13.201 14.187 13.3173C14.2452 13.6081 14.4198 13.957 14.5362 14.1896C14.8273 14.0152 15.584 13.6662 16.1078 13.6662H16.2243C16.5735 13.6662 16.8646 13.6081 18.3198 13.8407C19.6004 14.0152 20.5317 13.6081 20.8228 13.4918C20.9974 13.3755 21.172 13.2591 21.2885 13.1428C21.3467 13.0847 21.4048 13.0266 21.463 12.9684C21.5795 12.7939 21.6959 12.6776 21.8123 12.5613C21.2885 12.7358 20.5899 13.0847 19.5421 13.201Z" fill="#13377D"/>
<path d="M11.3928 17.5627C11.5674 17.7371 11.9749 18.3768 12.9062 17.8535C13.8375 17.3301 14.3032 17.0393 14.3032 17.0393C14.3032 17.0393 14.1286 17.3301 14.245 17.679C14.245 17.679 14.245 17.679 14.3032 17.679C14.4196 17.4464 15.2346 16.8067 16.2241 16.7485C16.2823 16.7485 16.2823 16.7485 16.3405 16.7485C16.2823 16.6904 16.2241 16.6904 16.1659 16.6322C15.9913 16.5159 15.8166 16.3996 15.7002 16.3414C15.5838 16.2833 15.5256 16.2251 15.4092 16.167C14.9435 16.2251 14.1286 16.5741 13.0226 17.2719C11.9749 17.8535 11.451 17.5627 11.3928 17.5627Z" fill="#13377D"/>
<path d="M15.3509 14.306C15.2345 14.3641 14.8853 14.5386 14.7689 14.5968C14.7107 14.5968 14.7107 14.6549 14.6525 14.6549C14.7689 14.8293 14.8271 14.9457 14.9435 15.062C15.4092 15.1783 15.8748 15.2364 16.2823 15.2364C16.5151 15.2364 16.7479 15.2364 16.9808 15.1783C17.039 15.1783 17.039 15.1783 17.0973 15.1783C17.1554 15.1783 17.1554 15.1783 17.2136 15.1783C17.7957 15.062 18.145 14.6549 18.2614 14.3641C18.2032 14.3641 18.0868 14.3641 18.0286 14.3641C17.6793 14.306 17.3883 14.2478 17.1554 14.2478C17.1554 14.306 17.0973 14.4223 17.0973 14.4804C17.039 14.5968 16.9808 14.6549 16.9226 14.7131L16.8644 14.7712C16.6898 14.8875 16.5151 14.9457 16.2823 14.9457C16.0495 14.9457 15.8166 14.8875 15.642 14.7712C15.4674 14.6549 15.4092 14.4804 15.3509 14.306Z" fill="#13377D"/>
<path d="M11.6835 14.655C11.0432 15.5273 11.9163 16.4578 11.9746 16.5159C12.0328 16.5741 12.0328 16.5159 12.0328 16.5159C12.0328 16.4578 12.4984 15.1202 15.1178 15.8181C14.7103 15.4692 14.1283 14.7713 13.779 13.8408C13.4298 13.8408 12.2074 13.9571 11.6835 14.655ZM13.8372 14.5387C13.6626 14.4224 13.3715 14.4224 13.1387 14.4805C13.1387 14.2479 13.488 14.1898 13.6626 14.1898C13.6626 14.1898 13.7208 14.4224 13.8372 14.5387Z" fill="#13377D"/>
<path d="M22.0448 14.6549C21.9866 14.6549 21.8703 14.6549 21.8121 14.6549C21.23 14.6549 20.7643 14.4805 20.2986 14.1897C20.124 14.2478 19.7747 14.3059 19.4837 14.3059C19.1926 14.3059 18.9016 14.3059 18.7852 14.3059C18.727 14.5386 18.5523 14.9457 18.1449 15.2364C17.7374 15.5853 17.2135 15.6435 16.7479 15.6435C16.5151 15.6435 16.3404 15.6435 16.224 15.6435H16.1658C16.0494 15.6435 15.8165 15.5853 15.5837 15.5853C15.7583 15.7017 15.8748 15.7598 15.9912 15.8761C16.1076 15.9343 16.2822 16.0506 16.4569 16.1669C17.3882 16.8066 18.0867 17.7371 18.2031 18.3767C18.2613 18.6094 18.2613 18.842 18.2613 18.842C18.3777 18.7838 18.4942 18.5512 18.5523 18.3186C18.6688 18.6094 19.0762 19.5398 18.9016 20.4703C18.727 21.5752 18.436 22.0986 18.1449 22.3894C18.0285 22.5057 17.9121 22.622 17.8539 22.6802C18.436 22.3893 19.4255 21.7497 19.9494 20.5866C20.2404 19.9469 20.3568 18.6094 20.3568 18.6094V18.2023L20.7061 18.3767C20.7061 18.3767 21.23 18.6675 21.7538 19.4236C21.9285 19.7143 22.1031 20.0051 22.2195 20.2959C22.2777 20.0632 22.3359 19.8306 22.3941 19.5398C22.4523 18.842 22.2777 18.1441 22.2777 18.1441L22.1613 17.6789L22.6269 17.8533C22.6269 17.8533 23.0926 18.0279 23.6165 18.4349C23.9657 18.6675 24.1986 18.9002 24.3732 19.1327C24.1404 18.5512 23.9075 17.9697 23.5001 17.4463C22.2777 15.5853 21.521 15.1783 21.521 15.1783L21.4046 15.1201C21.4046 15.1201 21.4046 15.1201 21.4628 15.1201C21.6374 14.9457 21.8703 14.7712 22.0448 14.6549Z" fill="#13377D"/>
</svg>
