<svg width="90" height="46" viewBox="0 0 90 46" fill="none" xmlns="http://www.w3.org/2000/svg">
<g clip-path="url(#clip0_820_447)">
<path d="M11.087 13.815C12.165 12.7371 12.5243 10.7608 12.5243 9.50325C12.5243 7.70668 11.9853 6.44908 10.1887 6.44908C8.3922 6.44908 7.67358 7.70668 7.67358 11.2998H1.20605C1.20605 5.91011 3.90084 1.23901 10.3684 1.23901C15.3987 1.23901 18.9918 4.11353 18.9918 9.32359C18.9918 13.0964 17.5546 15.4319 15.758 17.5878C14.1411 19.5641 9.11082 23.1572 8.93117 25.3131H19.5308V30.5232H1.20605C1.20605 21.72 8.0329 17.2285 11.087 13.815Z" fill="#E44513"/>
<path d="M29.9509 1.4187C36.9575 1.4187 38.5744 5.37112 38.5744 9.32354V22.7977C38.5744 26.7501 36.9575 30.7025 29.9509 30.7025C23.3037 30.7025 21.3275 26.7501 21.3275 22.7977V9.32354C21.5071 5.19147 23.3037 1.4187 29.9509 1.4187ZM27.7951 9.14388V22.9773C27.7951 24.7739 28.1544 25.8518 29.9509 25.8518C31.7475 25.8518 32.2865 24.7739 32.2865 22.9773V9.14388C32.2865 7.34734 31.7475 6.2694 29.9509 6.2694C28.1544 6.2694 27.7951 7.16768 27.7951 9.14388Z" fill="#E44513"/>
<path d="M53.1248 10.4007V9.68212C53.1248 5.37039 55.64 1.41797 61.7482 1.41797C66.5989 1.41797 69.8327 4.29245 69.8327 8.60418C69.8327 11.299 69.1141 13.8142 65.8803 14.7124C69.8327 16.3293 70.5513 18.4852 70.5513 22.258C70.5513 28.1866 67.1379 30.7018 61.7482 30.7018C56.8975 30.7018 53.3044 28.007 53.3044 21.719V20.2818H59.4126V21.3597C59.4126 23.5156 59.9516 25.4918 61.7482 25.4918C63.7244 25.4918 64.2633 24.4139 64.2633 21.1801C64.2633 18.1259 63.1854 17.4073 60.1313 17.4073H58.694V12.9159H59.5923C62.6465 12.9159 63.7244 12.3769 63.7244 9.14315C63.7244 7.7059 63.1854 6.08901 61.5685 6.08901C60.1313 6.08901 59.233 7.16694 59.233 8.78384V10.2211L53.1248 10.4007Z" fill="#E44513"/>
<path d="M78.2779 12.5589C79.3559 11.3013 80.6134 10.2234 83.3083 10.2234C87.62 10.2234 89.7759 13.4572 89.7759 19.7451C89.7759 28.0093 86.7217 30.5245 81.332 30.5245C75.2237 30.5245 72.7086 27.8297 72.7086 21.1824H78.8169C78.8169 24.5959 79.5355 25.6738 81.1524 25.6738C82.7693 25.6738 83.3083 24.5959 83.3083 20.1045C83.3083 16.152 82.5897 15.0741 80.9728 15.0741C79.5355 15.0741 78.9965 15.9723 78.8169 17.2299H73.0678L73.9661 1.59985L88.8776 1.59985V6.45058H78.9965L78.2779 12.5589Z" fill="#E44513"/>
<path d="M48.6339 24.9519H43.424V30.1619H48.6339V24.9519Z" fill="#E44513"/>
<path d="M5.51983 41.3011C5.16053 42.0197 4.80123 42.7383 4.62157 43.4569C4.26227 44.3551 3.72332 45.2533 2.46577 45.2533H2.2861C2.10645 45.2533 1.92681 45.0737 1.92681 44.894C1.92681 44.7144 2.10645 44.5347 2.2861 44.5347H2.46577C3.00471 44.5347 3.36401 44.1755 3.72331 43.6365L1.5675 38.7861V38.6064C1.5675 38.4268 1.74715 38.2471 1.92681 38.2471C2.10646 38.2471 2.2861 38.4268 2.2861 38.6064L4.08261 42.9179C4.44192 42.1993 4.62157 41.4808 4.98087 40.7622C5.16052 40.2232 5.51984 39.325 5.6995 38.6064C5.6995 38.4268 5.87914 38.2471 6.05879 38.2471C6.4181 38.2471 6.41809 38.4268 6.41809 38.6064C6.41809 38.7861 6.41809 38.7861 6.41809 38.9657C6.05879 39.5046 5.69948 40.4029 5.51983 41.3011Z" fill="black"/>
<path d="M13.7828 38.2461C13.7828 38.0664 13.9625 37.8867 14.3218 37.8867C14.5015 37.8867 14.6811 38.0664 14.6811 38.2461V44.714C14.6811 44.8936 14.5015 45.0733 14.3218 45.0733C14.1421 45.0733 13.7828 44.8936 13.7828 44.714V42.019H10.3691V44.714C10.3691 44.8936 10.1894 45.0733 10.0097 45.0733C9.83006 45.0733 9.65039 44.8936 9.65039 44.714V38.2461C9.65039 38.0664 9.83006 37.8867 10.0097 37.8867C10.1894 37.8867 10.3691 38.0664 10.3691 38.2461V41.1207H13.7828V38.2461Z" fill="black"/>
<path d="M19.352 44.714C19.352 44.8936 19.1724 45.2529 18.9927 45.2529C18.813 45.2529 18.6334 45.0733 18.6334 44.714V38.2461C18.6334 38.0664 18.813 37.8867 18.9927 37.8867C19.1724 37.8867 19.352 38.0664 19.352 38.2461V42.9173L22.7657 38.9647V38.4257C22.7657 38.2461 22.9454 38.0664 23.1251 38.0664C23.3047 38.0664 23.4844 38.2461 23.4844 38.4257V44.8936C23.4844 45.0733 23.3047 45.4326 23.1251 45.4326C22.9454 45.4326 22.7657 45.2529 22.7657 44.8936V40.2224L19.352 44.175V44.714Z" fill="black"/>
<path d="M30.1285 45.0777H27.9726C27.793 45.0777 27.6133 44.8981 27.6133 44.7184V38.4308C27.6133 38.2512 27.793 38.0715 27.9726 38.0715H29.9488C31.386 38.0715 32.1046 38.9698 32.1046 39.868C32.1046 40.5866 31.7453 41.1255 31.2064 41.3052C31.925 41.4848 32.4639 42.2034 32.4639 42.922V43.1016C32.2843 44.3592 31.7453 45.0777 30.1285 45.0777ZM31.2064 39.6883C31.2064 39.1494 30.8471 38.6105 29.9488 38.6105H28.5116V40.9459H29.5895C30.6674 40.9459 31.2064 40.7662 31.2064 39.868V39.6883ZM31.386 42.922C31.386 42.2034 30.8471 41.8441 29.9488 41.8441H28.3319V44.1795H30.1285C31.2064 44.1795 31.386 43.6406 31.386 43.1016V42.922Z" fill="black"/>
<path d="M39.8304 45.0777H36.4169C36.2373 45.0777 36.0576 44.8981 36.0576 44.7184V38.4308C36.0576 38.2512 36.2373 38.0715 36.4169 38.0715H39.6508C39.8304 38.0715 40.0101 38.2512 40.0101 38.4308C40.0101 38.6105 39.8304 38.7901 39.6508 38.7901H36.7763V41.1255H39.2915C39.4711 41.1255 39.6508 41.3052 39.6508 41.4848C39.6508 41.6645 39.4711 41.8441 39.2915 41.8441H36.7763V44.1795H39.8304C40.0101 44.1795 40.1897 44.3592 40.1897 44.5388C40.1897 44.8981 40.0101 45.0777 39.8304 45.0777Z" fill="black"/>
<path d="M46.299 42.2034H44.6822V44.7184C44.6822 44.8981 44.5026 45.0777 44.3229 45.0777C44.1433 45.0777 43.9636 44.8981 43.9636 44.7184V38.4308C43.9636 38.2512 44.1433 38.0715 44.3229 38.0715H46.1194C47.7362 38.0715 48.4548 39.1494 48.4548 40.0476V40.5866C48.4548 41.4848 47.7362 42.2034 46.299 42.2034ZM47.5565 39.868C47.5565 39.3291 47.1972 38.7901 46.1194 38.7901H44.6822V41.4848H46.1194C47.0176 41.4848 47.3769 40.9459 47.3769 40.4069L47.5565 39.868Z" fill="black"/>
<path d="M54.3843 38.6054C53.3062 38.6054 52.7673 39.324 52.7673 40.941V42.019C52.7673 43.636 53.3062 44.3546 54.3843 44.3546C54.7436 44.3546 55.1029 44.175 55.4623 43.9953C55.642 43.8156 55.642 43.8156 55.8216 43.8156C56.0013 43.8156 56.181 43.9953 56.181 44.175C56.181 44.3546 56.181 44.3546 56.0013 44.5343C55.4623 45.0733 54.9233 45.0733 54.2046 45.0733C52.4079 45.0733 51.6892 43.8156 51.6892 42.019V40.941C51.6892 39.1444 52.4079 37.8867 54.2046 37.8867C54.7436 37.8867 55.4623 38.0664 55.8216 38.4257C56.0013 38.6054 56.0013 38.6054 56.0013 38.7851C56.0013 38.9647 55.8216 39.1444 55.642 39.1444C55.4623 39.1444 55.4623 39.1444 55.2826 38.9647C55.1029 38.7851 54.7436 38.6054 54.3843 38.6054Z" fill="black"/>
<path d="M60.8509 44.714C60.8509 44.8936 60.6712 45.2529 60.4916 45.2529C60.3119 45.2529 60.1323 45.0733 60.1323 44.714V38.2461C60.1323 38.0664 60.3119 37.8867 60.4916 37.8867C60.6712 37.8867 60.8509 38.0664 60.8509 38.2461V42.9173L64.2643 38.9647V38.4257C64.2643 38.2461 64.444 38.0664 64.6237 38.0664C64.8033 38.0664 64.983 38.2461 64.983 38.4257V44.8936C64.983 45.0733 64.8033 45.4326 64.6237 45.4326C64.444 45.4326 64.2643 45.2529 64.2643 44.8936V40.2224L60.8509 44.175V44.714Z" fill="black"/>
<path d="M71.4505 38.7901V44.7184C71.4505 44.8981 71.2709 45.0777 71.0912 45.0777C70.9116 45.0777 70.7319 44.8981 70.7319 44.7184V38.7901H68.9352C68.7556 38.7901 68.5759 38.6105 68.5759 38.4308C68.5759 38.2512 68.7556 38.0715 68.9352 38.0715H73.6065C73.7862 38.0715 73.9658 38.2512 73.9658 38.4308C73.9658 38.6105 73.7862 38.7901 73.6065 38.7901H71.4505Z" fill="black"/>
<path d="M80.6146 45.0777H77.2013C77.0216 45.0777 76.8419 44.8981 76.8419 44.7184V38.4308C76.8419 38.2512 77.0216 38.0715 77.2013 38.0715H80.435C80.6146 38.0715 80.7943 38.2512 80.7943 38.4308C80.7943 38.6105 80.6146 38.7901 80.435 38.7901H77.5605V41.1255H80.2553C80.4349 41.1255 80.6146 41.3052 80.6146 41.4848C80.6146 41.6645 80.4349 41.8441 80.2553 41.8441H77.7402V44.1795H80.6146C80.7943 44.1795 80.9739 44.3592 80.9739 44.5388C81.1536 44.8981 80.9739 45.0777 80.6146 45.0777Z" fill="black"/>
<path d="M86.9014 38.7901V44.7184C86.9014 44.8981 86.7217 45.0777 86.5421 45.0777C86.3625 45.0777 86.1828 44.8981 86.1828 44.7184V38.7901H84.3864C84.2067 38.7901 84.0271 38.6105 84.0271 38.4308C84.0271 38.2512 84.2067 38.0715 84.3864 38.0715H89.0572C89.2368 38.0715 89.4164 38.2512 89.4164 38.4308C89.4164 38.6105 89.2368 38.7901 89.0572 38.7901H86.9014Z" fill="black"/>
</g>
<defs>
<clipPath id="clip0_820_447">
<rect width="89.2482" height="45.1255" fill="white" transform="translate(0.606445 0.693359)"/>
</clipPath>
</defs>
</svg>
