<svg width="179" height="27" viewBox="0 0 179 27" fill="none" xmlns="http://www.w3.org/2000/svg">
<path d="M5.6607 26.7519H1V17.8116C1 16.9973 1.30853 16.4357 1.8122 15.92C2.30974 15.4126 2.95439 15.0911 3.6634 15.0911H8.32307V24.0314C8.32307 24.8446 8.01556 25.4073 7.51087 25.922C7.01436 26.4304 6.36971 26.7519 5.6607 26.7519ZM1 5.56724V1H5.6607C6.36971 1 7.01436 1.32153 7.51087 1.82993C8.01556 2.34459 8.32307 2.90728 8.32307 3.72155V12.6618H3.6634C2.95439 12.6618 2.30974 12.3403 1.8122 11.8319C1.30853 11.3173 1 10.7556 1 9.94134V5.56724ZM15.5501 20.7273V23.9343H12.3177C11.859 23.9343 11.4135 23.7808 11.0365 23.3956C10.8631 23.2281 10.7248 23.0264 10.6299 22.8027C10.5442 22.5747 10.5035 22.3317 10.5104 22.0876V15.6736H13.7439C14.2016 15.6736 14.647 15.8271 15.024 16.2123C15.2273 16.419 15.3529 16.609 15.4316 16.8052C15.5103 17.0015 15.5511 17.228 15.5511 17.5203V20.7273H15.5501Z" fill="#888888" stroke="#888888" stroke-width="0.353575"/>
<path d="M20.1162 4.30444H24.9669V17.3265H25.157L31.1478 4.30444H37.9008V24.0318H33.0501V11.0097H32.9551L27.1543 24.0318H20.1162V4.30444ZM57.8707 4.30444V24.0318H52.736V16.3546H45.983V24.0318H40.8482V4.30444H45.984V11.7874H52.736V4.30444H57.8707ZM74.7032 23.9336H69.5684V22.088H66.905C65.6688 22.088 64.4327 21.9909 63.5765 21.6996C62.6264 21.5044 61.9603 21.019 61.3902 20.4364C60.8192 19.8518 60.4391 18.9781 60.2481 17.9101C60.058 16.8401 59.868 15.674 59.868 14.1196C59.868 12.0787 60.058 10.5242 60.5341 9.35815C61.0092 8.19207 61.6753 7.31725 62.7204 6.83182C63.7676 6.34534 65.1928 6.15117 66.905 6.15117H69.5684V4.30444H74.7032V6.15222H77.2716C78.9828 6.15222 80.41 6.34639 81.4551 6.83286C82.5013 7.3183 83.1674 8.09603 83.6425 9.3592C84.1185 10.6224 84.3086 12.0797 84.3086 14.1196C84.3086 15.675 84.2136 16.9382 83.9285 18.0072C83.7385 18.9791 83.2624 19.7568 82.7874 20.5335C82.2163 21.1181 81.5512 21.6025 80.6 21.7967C79.6489 21.9919 78.6027 22.1861 77.2716 22.1861H74.7032V23.9347V23.9336ZM67.7612 17.5207H69.4734V10.6203H67.7601C67.095 10.6203 66.619 10.7184 66.1439 11.0097C65.7628 11.2038 65.4778 11.5932 65.2878 12.0787C65.1582 12.7508 65.0946 13.4345 65.0978 14.1196C65.0978 15.0904 65.1928 15.675 65.2878 16.2576C65.3828 16.743 65.7628 17.1324 66.1439 17.3265C66.619 17.4236 67.094 17.5207 67.7601 17.5207H67.7612ZM74.7032 17.5207H76.4154C77.0805 17.5207 77.5566 17.4236 77.9377 17.3265C78.3177 17.1324 78.6017 16.743 78.7928 16.2576C78.9828 15.7711 78.9828 15.0915 78.9828 14.1196C78.9828 12.8564 78.7928 11.9816 78.4127 11.398C78.0316 10.9126 77.3666 10.7184 76.3204 10.7184H74.6082L74.7032 17.5207ZM94.5791 24.2259C93.1529 24.2259 91.9167 24.1289 90.8705 24.0318C89.8938 23.8547 88.9581 23.4921 88.1121 22.9628C87.257 22.4763 86.6859 21.7967 86.3059 20.7277C85.8298 19.7558 85.6398 18.5897 85.6398 17.0353V11.4961C85.6398 10.0378 85.8298 8.77459 86.3059 7.80268C86.7809 6.83182 87.352 6.15117 88.1121 5.56865C88.8732 4.98405 89.8244 4.69383 90.8705 4.40153C91.9167 4.20736 93.1529 4.01318 94.5791 4.01318C96.0053 4.01318 97.2425 4.11027 98.2876 4.20736C99.2644 4.38444 100.2 4.74703 101.046 5.27635C101.902 5.76283 102.472 6.53952 102.853 7.51143C103.328 8.48333 103.518 9.64941 103.518 11.2038V16.743C103.518 18.2014 103.328 19.4645 102.853 20.4354C102.377 21.4073 101.807 22.088 101.046 22.6705C100.19 23.254 99.3338 23.6424 98.2876 23.7395C97.0769 24.0632 95.8305 24.2266 94.5791 24.2259ZM94.5791 19.5616C95.5302 19.5616 96.2913 19.4645 96.7664 19.3664C97.2425 19.2693 97.6225 18.881 97.8125 18.3955C98.0025 17.9091 98.1926 17.2295 98.1926 16.2576V11.7874C98.1926 11.1068 98.0976 10.5242 98.0026 10.0378C97.9075 9.64941 97.6225 9.35815 97.4325 9.0669C97.2425 8.87168 96.8614 8.67751 96.3863 8.58042C95.9102 8.58042 95.3402 8.48333 94.6741 8.48333C93.724 8.48333 92.9628 8.58042 92.4878 8.67751C92.0117 8.77459 91.6316 9.16398 91.4406 9.64941C91.2506 10.1348 91.0606 10.8155 91.0606 11.7874V16.2576C91.0606 17.2284 91.1556 17.9091 91.4406 18.3955C91.6306 18.881 92.0117 19.0751 92.4867 19.2693C92.7728 19.4645 93.5329 19.5616 94.5791 19.5616Z" fill="#57A216"/>
<path d="M113.661 13.0369L116.871 4.79191H121.682L114.696 19.3444V19.3465C114.139 20.4834 113.59 21.3227 113.049 21.9668C112.507 22.6141 111.992 23.0421 111.416 23.2947C110.818 23.5557 109.932 23.7405 109.035 23.7405C108.495 23.7405 107.746 23.6737 106.943 23.5922V20.3477C107.286 20.3999 107.698 20.4374 108.179 20.4374H108.189C108.467 20.4374 108.74 20.4374 108.967 20.4239C109.082 20.4176 109.197 20.4072 109.301 20.3894C109.368 20.3779 109.445 20.3612 109.522 20.3341C109.809 20.3028 110.22 20.1462 110.405 19.7046C110.439 19.6541 110.467 19.6006 110.491 19.5449C110.524 19.4718 110.555 19.3883 110.585 19.3121C110.588 19.3015 110.592 19.291 110.596 19.2808C110.655 19.1263 110.715 18.9676 110.792 18.8078L110.895 18.5991L110.799 18.3871L104.644 4.79191H109.379L112.587 13.0369L112.707 13.3428H113.543L113.661 13.0369ZM128.643 23.4492H124.442V4.69482H133.666C134.785 4.69482 135.779 4.78982 136.667 5.06229L136.685 5.06751L136.701 5.07169C137.44 5.23872 138.017 5.65838 138.436 6.172C138.894 6.73364 139.309 7.33808 139.476 8.19098C139.665 9.15662 139.848 10.187 139.848 11.4001C139.848 12.8229 139.756 13.964 139.662 14.9223C139.524 15.6601 139.2 16.3484 138.722 16.9194C138.325 17.4058 137.759 17.7462 136.986 17.9215C136.153 18.1115 135.047 18.2994 133.761 18.2994H128.834L128.816 18.7671L128.643 23.4492ZM128.626 14.3147V14.8012H132.62C133.336 14.8012 133.852 14.6958 134.257 14.5924C134.548 14.5173 134.787 14.3596 134.962 14.1206C135.126 13.8972 135.217 13.6278 135.272 13.3522C135.329 13.1079 135.354 12.8031 135.366 12.4868C135.378 12.1621 135.378 11.7894 135.378 11.4063V11.3677C135.378 10.7142 135.378 10.1859 135.274 9.65249L135.271 9.64206L135.269 9.62953C135.204 9.37352 135.076 9.13858 134.898 8.94679C134.815 8.85551 134.728 8.76841 134.637 8.68581C134.581 8.63152 134.53 8.58246 134.478 8.52922L134.385 8.43526L134.257 8.40185C133.852 8.29746 133.336 8.19307 132.62 8.19307H128.626V14.3158V14.3147ZM143.809 22.5514L143.798 22.5452L143.787 22.5389C143.051 22.1213 142.542 21.4459 142.191 20.5481C141.832 19.6294 141.559 18.5239 141.559 17.0363V11.4971C141.559 10.0722 141.747 8.89564 142.175 8.02082C142.612 7.12825 143.127 6.51024 143.816 5.97783C144.636 5.51432 145.434 5.15729 146.4 4.97878C147.395 4.79295 148.583 4.79087 150.023 4.79087C151.419 4.79087 152.631 4.88587 153.667 4.98191C154.577 5.14932 155.449 5.48809 156.238 5.98096L156.248 5.98827L156.259 5.99349C156.995 6.41106 157.504 7.08753 157.855 7.98428L157.862 8.00307L157.871 8.02186C158.301 8.89773 158.486 9.97716 158.486 11.4971V17.0363C158.486 18.4602 158.299 19.6367 157.871 20.5116C157.434 21.4052 156.918 22.0221 156.231 22.5545C155.422 23.0118 154.635 23.3646 153.688 23.5463C153.198 23.5494 152.672 23.5912 152.13 23.634L151.984 23.6444C151.367 23.6935 150.717 23.7405 150.023 23.7405C148.628 23.7405 147.415 23.6465 146.379 23.5505C145.469 23.3833 144.597 23.0445 143.809 22.5514ZM153.913 10.0408L153.911 10.0304L153.907 10.0189C153.843 9.77355 153.734 9.54246 153.588 9.33722C153.535 9.25922 153.48 9.18264 153.423 9.10756L153.412 9.0919C153.363 9.02794 153.317 8.96249 153.272 8.89564C153.09 8.61795 152.805 8.47389 152.566 8.39768C152.327 8.32487 152.079 8.28864 151.829 8.29015C151.687 8.29015 151.493 8.27449 151.243 8.25362L151.119 8.24318C150.024 8.14059 148.92 8.19223 147.838 8.39664C147.178 8.53235 146.695 9.05014 146.46 9.53035L146.451 9.5481L146.443 9.56689C146.234 10.1014 146.029 10.8436 146.029 11.8855V16.3556C146.029 17.3192 146.117 18.1063 146.458 18.7108C146.7 19.2901 147.164 19.5678 147.558 19.8048L147.687 19.8821L147.799 19.951H147.931C148.056 19.951 148.213 19.9624 148.435 19.9791L148.695 19.999C149.046 20.023 149.485 20.048 150.023 20.048C151.004 20.048 151.796 19.9478 152.304 19.8445C152.975 19.7077 153.464 19.1743 153.698 18.5771C153.907 18.0426 154.113 17.3004 154.113 16.2585V11.8844C154.113 11.1579 154.011 10.5388 153.913 10.0398V10.0408ZM177.815 4.79191L171.51 13.7395L171.305 14.0308L171.516 14.3168L178.357 23.5463H173.185L167.907 16.0717L167.765 15.8702H165.524V23.5463H161.34V4.79191H165.524V12.2738H167.774L167.915 12.0609L172.719 4.79191H177.815Z" fill="#888888" stroke="#888888" stroke-width="0.353575"/>
</svg>
