<svg width="168" height="70" viewBox="0 0 168 70" fill="none" xmlns="http://www.w3.org/2000/svg">
<g clip-path="url(#clip0_820_407)">
<path d="M53.0664 32.8595L52.5277 30.8841H52.3481L51.8093 32.8595L50.9115 35.7327H53.9643L53.0664 32.8595ZM55.2214 39.1447C55.0418 39.1447 55.0418 39.1447 54.8622 38.9651L54.3234 36.9897H50.5523L49.8339 38.7855C49.8339 38.9651 49.6544 38.9651 49.4748 38.9651H48.5769C48.3973 38.9651 48.3973 38.7855 48.3973 38.7855L51.4501 29.9862C51.6297 29.4475 51.6297 29.4475 51.9889 29.4475H52.5277C53.0664 29.4475 53.0664 29.6271 53.2459 29.9862L56.2988 38.7855C56.4784 38.9651 56.2988 38.9651 56.1192 38.9651L55.2214 39.1447Z" fill="#13377D"/>
<path d="M58.6317 38.7854C58.6317 38.965 58.4521 38.965 58.6317 38.7854L57.9134 38.965C57.7338 38.965 57.5543 38.965 57.5543 38.7854V31.9615C57.5543 30.7045 58.093 29.4475 59.8887 29.4475H63.4799C63.6595 29.4475 63.6595 29.6271 63.6595 29.8067V30.3454C63.6595 30.5249 63.6595 30.7045 63.4799 30.7045H59.7091C58.9908 30.7045 58.6317 31.0637 58.6317 31.782V38.7854Z" fill="#13377D"/>
<path d="M70.8417 39.1447H67.0708C65.4546 39.1447 64.7363 38.0671 64.7363 36.8101V31.9615C64.7363 30.7045 65.275 29.4475 67.0708 29.4475H70.8417C71.0213 29.4475 71.0213 29.6271 71.0213 29.8067V30.3454C71.0213 30.5249 71.0213 30.5249 70.8417 30.5249H67.0708C66.3524 30.5249 65.9933 30.8841 65.9933 31.6024V33.2186H70.3031C70.4826 33.2186 70.4827 33.3982 70.4827 33.5777V34.1165C70.4827 34.2961 70.4826 34.2961 70.3031 34.2961H65.9933V36.8101C65.9933 37.3489 66.3524 37.8876 67.0708 37.8876H70.8417C71.0213 37.8876 71.0213 38.0671 71.0213 38.2467V38.7855C71.0213 38.9651 71.0213 39.1447 70.8417 39.1447Z" fill="#13377D"/>
<path d="M78.9257 29.809C78.9257 29.6294 79.1053 29.6294 78.9257 29.809L79.8235 29.6294C80.0031 29.6294 80.0031 29.6294 80.0031 29.809V38.9672C80.0031 39.1468 79.8235 39.1468 79.8235 39.1468H79.1053C78.9257 39.1468 78.9257 39.1468 78.9257 38.9672V34.6575H74.0772V38.9672C74.0772 39.1468 73.8976 39.1468 73.8976 39.1468H73.1792C72.9998 39.1468 72.9998 39.1468 72.9998 38.9672V29.809C72.9998 29.6294 73.1792 29.6294 73.1792 29.6294H73.8976C74.0772 29.6294 74.0772 29.6294 74.0772 29.809V33.58H78.9257V29.809Z" fill="#13377D"/>
<path d="M84.1308 30.705H81.4373C81.2577 30.705 81.2577 30.5254 81.2577 30.5254V29.9867C81.2577 29.8071 81.2577 29.8071 81.4373 29.8071H88.2609C88.4405 29.8071 88.4405 29.9867 88.4405 29.9867V30.5254C88.4405 30.705 88.4405 30.705 88.2609 30.705H85.5674V38.7857C85.5674 38.9653 85.3878 38.9653 85.3878 38.9653H84.6696C84.49 38.9653 84.49 38.9653 84.49 38.7857L84.1308 30.705Z" fill="#13377D"/>
<path d="M95.0871 37.5284C95.2667 37.3488 95.2667 37.5284 95.4462 37.708L95.6258 38.2467C95.8054 38.4262 95.8054 38.4262 95.4462 38.6058C94.728 39.1446 93.6506 39.3242 92.7527 39.3242C90.0593 39.3242 88.6227 37.708 88.6227 34.4756C88.6227 31.4228 90.2388 29.4475 92.7527 29.4475C93.471 29.4475 94.3688 29.6271 95.2667 29.9862C95.4463 30.1658 95.4462 30.1658 95.4462 30.3454L94.9076 31.0637C94.728 31.2433 94.728 31.2433 94.728 31.2433C94.1893 31.0637 93.471 30.7045 92.7527 30.7045C90.7775 30.7045 89.8797 32.6799 89.8797 34.4756C89.8797 36.451 90.4184 38.0671 92.9323 38.0671C93.8302 38.0671 94.5484 37.8876 95.0871 37.5284Z" fill="#13377D"/>
<path d="M99.5763 30.705H96.7028C96.5232 30.705 96.5232 30.5254 96.5232 30.5254V29.9867C96.5232 29.8071 96.5232 29.8071 96.7028 29.8071H103.527C103.707 29.8071 103.707 29.9867 103.707 29.9867V30.5254C103.707 30.705 103.707 30.705 103.527 30.705H100.833V38.7857C100.833 38.9653 100.654 38.9653 100.654 38.9653H99.9355C99.7559 38.9653 99.7559 38.9653 99.7559 38.7857L99.5763 30.705Z" fill="#13377D"/>
<path d="M108.736 34.2983H106.221V37.8898H108.736C110.352 37.8898 110.711 36.8123 110.711 36.0941C110.531 35.1961 109.993 34.2983 108.736 34.2983ZM106.221 33.4004H108.736C109.274 33.4004 110.352 33.2209 110.352 31.9638C110.352 31.2456 109.813 30.7068 108.915 30.7068H106.221V33.4004ZM110.352 33.9392C111.429 34.4779 111.968 35.3757 111.968 36.4532C111.968 38.0693 110.531 39.1468 108.915 39.1468H105.683C105.144 39.1468 105.144 38.9672 105.144 38.608V30.1682C105.144 29.6294 105.323 29.6294 105.683 29.6294H108.736C110.352 29.6294 111.609 30.1682 111.609 32.1434C111.609 32.6822 111.07 33.4004 110.352 33.9392Z" fill="#13377D"/>
<path d="M116.998 30.5273C115.022 30.5273 114.304 32.1435 114.304 34.2985C114.304 36.633 114.843 38.0696 116.998 38.0696C119.153 38.0696 119.692 36.2739 119.692 34.2985C119.871 32.3231 119.332 30.5273 116.998 30.5273ZM116.818 39.3267C114.124 39.3267 112.867 37.7105 112.867 34.4781C112.867 31.2457 114.483 29.6294 116.818 29.6294C119.512 29.6294 120.949 31.4253 120.949 34.4781C121.128 37.531 119.692 39.3267 116.818 39.3267Z" fill="#13377D"/>
<path d="M54.8621 50.6348C55.0417 50.4552 55.2212 50.6348 55.4008 50.8144L55.9395 51.7123C56.1191 51.8919 56.1191 52.0714 55.76 52.251C54.8621 52.7898 53.7846 52.9694 52.7072 52.9694C49.8339 52.9694 48.3973 51.1736 48.3973 48.1208C48.3973 45.2476 50.0135 43.2722 52.7072 43.2722C53.605 43.2722 54.5029 43.4518 55.4008 43.811C55.5804 43.9905 55.5804 43.9905 55.5804 44.3496L55.0417 45.2476C54.8621 45.4272 54.8621 45.6067 54.5029 45.4272C53.9642 45.2476 53.2459 45.068 52.7072 45.068C51.091 45.068 50.3727 46.325 50.3727 48.1208C50.3727 49.737 50.9114 50.994 52.8867 50.994C53.7846 51.1736 54.3233 50.8144 54.8621 50.6348Z" fill="#13377D"/>
<path d="M63.6585 45.068H61.1445V52.4305C61.1445 52.6101 60.9649 52.7897 60.7853 52.7897H59.3487C59.1691 52.7897 58.9895 52.6101 58.9895 52.4305V45.068H56.4755C56.2959 45.068 56.2959 44.8884 56.2959 44.8884V43.6314C56.2959 43.4518 56.4755 43.2722 56.4755 43.2722H63.4789C63.6585 43.2722 63.6585 43.4518 63.6585 43.6314V45.068C64.0177 45.068 63.8381 45.068 63.6585 45.068Z" fill="#13377D"/>
<path d="M68.8681 45.071H67.2519V47.7647H68.8681C69.766 47.7647 70.1251 47.2259 70.1251 46.5076C70.3047 45.9689 69.9456 45.071 68.8681 45.071ZM67.0723 52.6131C67.0723 52.7927 66.8929 52.9723 66.7133 52.9723H65.2767C65.0971 52.9723 64.9175 52.7927 64.9175 52.6131V44.3527C64.9175 43.814 65.0971 43.4548 65.6358 43.4548H69.0477C71.023 43.4548 72.1004 44.7119 72.1004 46.328C72.1004 47.2259 71.5617 49.3808 68.5089 49.3808H66.7133L67.0723 52.6131Z" fill="#13377D"/>
<path d="M74.9737 49.1983H77.1287L76.5899 47.5821L76.0512 45.6068L75.1533 47.4025L74.9737 49.1983ZM77.4878 50.8145H74.435L73.8963 52.4308C73.7167 52.6103 73.7167 52.6103 73.5371 52.6103H71.9209C71.7413 52.6103 71.7413 52.4308 71.7413 52.4308L74.435 43.9906C74.6145 43.4518 74.9737 43.2722 75.3329 43.2722H76.0512C76.5899 43.2722 76.9491 43.4518 77.1287 43.9906L79.8223 52.4308C79.8223 52.6103 79.8223 52.6103 79.6428 52.6103H78.0265C77.847 52.6103 77.6674 52.6103 77.4878 52.4308V50.8145Z" fill="#13377D"/>
<path d="M87.1851 45.068H84.6711V52.4305C84.6711 52.6101 84.4916 52.7897 84.312 52.7897H82.8755C82.6959 52.7897 82.5163 52.6101 82.5163 52.4305V45.068H80.0022C79.8228 45.068 79.8228 44.8884 79.8228 44.8884V43.6314C79.8228 43.4518 80.0022 43.2722 80.0022 43.2722H86.826C87.0055 43.2722 87.0055 43.4518 87.0055 43.6314L87.1851 45.068C87.3647 45.068 87.3647 45.068 87.1851 45.068Z" fill="#13377D"/>
<path d="M95.0877 52.7897H91.1368C89.1614 52.7897 88.6227 51.5327 88.6227 50.2757V45.7863C88.6227 44.5292 89.1614 43.2722 91.1368 43.2722H94.9081C95.0876 43.2722 95.0877 43.4518 95.0877 43.6314V44.8884C95.0877 45.068 94.9081 45.2476 94.9081 45.2476H91.3164C90.7776 45.2476 90.4186 45.6067 90.4186 46.1454V47.2229H94.1897C94.3693 47.2229 94.3693 47.4024 94.3693 47.582V48.6595C94.3693 48.8391 94.3693 49.0186 94.1897 49.0186H90.4186V50.6348C90.4186 51.1735 90.7776 51.3531 91.3164 51.3531H94.9081C95.0876 51.3531 95.0877 51.5327 95.0877 51.7123V52.7897C95.4467 52.6101 95.4467 52.7897 95.0877 52.7897Z" fill="#13377D"/>
<path d="M98.858 52.6102C98.858 52.7898 98.858 52.9694 98.4989 52.9694H97.0622C96.8826 52.9694 96.7034 52.7898 96.7034 52.6102V45.7863C96.7034 44.5292 97.2417 43.2722 99.2172 43.2722H102.989C103.168 43.2722 103.168 43.4518 103.168 43.6314V44.8884C103.168 45.068 102.989 45.2476 102.989 45.2476H99.3968C98.858 45.2476 98.4989 45.6067 98.4989 46.1454L98.858 52.6102Z" fill="#13377D"/>
<path d="M110.53 46.5076L109.273 48.4829L106.938 52.254C106.579 52.7927 106.4 52.7927 106.04 52.7927H105.502C104.963 52.7927 104.604 52.4336 104.604 51.8949V43.6344C104.604 43.4548 104.783 43.4548 104.963 43.4548H106.4C106.579 43.4548 106.759 43.6344 106.759 43.6344V49.7399H106.938L108.195 47.7647L110.709 43.9936C111.068 43.4548 111.247 43.4548 111.607 43.4548H112.145C112.684 43.4548 113.043 43.6344 113.043 44.3527V52.7927C113.043 52.9723 112.864 52.9723 112.684 52.9723H111.247C111.068 52.9723 110.888 52.7927 110.888 52.7927L110.53 46.5076Z" fill="#13377D"/>
<path d="M121.484 52.7897H120.047C119.867 52.7897 119.688 52.6101 119.688 52.6101V49.5573C119.149 49.7369 118.61 49.7369 118.071 49.7369C115.379 49.7369 114.301 48.4799 114.301 46.325V43.6314C114.301 43.4518 114.481 43.4518 114.66 43.4518H116.276C116.455 43.4518 116.635 43.6314 116.635 43.6314V46.1454C116.635 47.4024 117.173 47.7616 118.61 47.7616C119.149 47.7616 119.508 47.7616 119.867 47.582V43.4518C119.867 43.2722 120.047 43.2722 120.226 43.2722H121.843C122.022 43.2722 122.202 43.4518 122.202 43.4518L121.484 52.7897C121.843 52.7897 121.663 52.7897 121.484 52.7897Z" fill="#13377D"/>
<path d="M130.463 52.7897H126.512C124.536 52.7897 123.998 51.5327 123.998 50.2757V45.7863C123.998 44.5292 124.536 43.2722 126.512 43.2722H130.283C130.463 43.2722 130.463 43.4518 130.463 43.6314V44.8884C130.463 45.068 130.283 45.2476 130.283 45.2476H126.691C126.153 45.2476 125.794 45.6067 125.794 46.1454V47.2229H129.565C129.744 47.2229 129.744 47.4024 129.744 47.582V48.6595C129.744 48.8391 129.744 49.0186 129.565 49.0186H125.794V50.6348C125.794 51.1735 126.153 51.3531 126.691 51.3531H130.283C130.463 51.3531 130.463 51.5327 130.463 51.7123V52.7897C130.463 52.7897 130.642 52.6101 130.463 52.7897Z" fill="#13377D"/>
<path d="M138.186 50.6348C138.366 50.4552 138.545 50.6348 138.725 50.8144L139.264 51.7123C139.443 51.8919 139.443 52.0714 139.084 52.251C138.186 52.7898 137.108 52.9694 136.031 52.9694C133.158 52.9694 131.721 51.1736 131.721 48.1208C131.721 45.2476 133.337 43.2722 136.031 43.2722C136.929 43.2722 137.827 43.4518 138.725 43.811C138.904 43.9905 138.904 43.9905 138.904 44.3496L138.366 45.2476C138.186 45.4272 138.186 45.6067 137.827 45.4272C137.288 45.2476 136.57 45.068 136.031 45.068C134.415 45.068 133.696 46.325 133.696 48.1208C133.696 49.737 134.235 50.994 136.211 50.994C136.929 51.1736 137.468 50.8144 138.186 50.6348Z" fill="#13377D"/>
<path d="M145.908 47.7662C146.805 48.1254 147.164 48.6642 147.344 49.3824L148.242 52.4351C148.242 52.6147 148.242 52.6147 148.062 52.6147H146.447C146.267 52.6147 146.267 52.6147 146.267 52.4351L145.369 49.562C145.19 48.6642 144.651 48.4846 143.753 48.4846H142.675V52.4351C142.675 52.6147 142.496 52.6147 142.496 52.6147H140.879C140.7 52.6147 140.7 52.6147 140.7 52.4351V43.2769C140.7 43.0974 140.879 43.0974 140.879 43.0974H142.496C142.675 43.0974 142.675 43.0974 142.675 43.2769V46.8684H143.753C144.292 46.8684 145.01 46.6888 145.369 45.6114L145.908 43.2769C145.908 43.0974 146.087 43.0974 146.087 43.0974H147.703C147.882 43.0974 147.882 43.2769 147.882 43.2769L147.344 45.7909C146.984 46.8684 146.805 47.4071 145.908 47.7662Z" fill="#13377D"/>
<path d="M155.602 46.5076L154.345 48.4829L152.011 52.254C151.652 52.7927 151.472 52.7927 151.114 52.7927H150.575C150.036 52.7927 149.677 52.4336 149.677 51.8949V43.6344C149.677 43.4548 149.857 43.4548 150.036 43.4548H151.472C151.652 43.4548 151.831 43.6344 151.831 43.6344V49.7399H152.011L153.268 47.7647L155.782 43.9936C156.141 43.4548 156.321 43.4548 156.68 43.4548H157.219C157.757 43.4548 158.117 43.6344 158.117 44.3527V52.7927C158.117 52.9723 157.937 52.9723 157.757 52.9723H156.321C156.141 52.9723 155.962 52.7927 155.962 52.7927L155.602 46.5076Z" fill="#13377D"/>
<path d="M162.967 49.5603L161.351 52.4336C161.171 52.6131 161.171 52.7927 160.812 52.7927H159.196C159.016 52.7927 159.016 52.6131 159.016 52.6131L161.89 47.9442L159.196 43.6344C159.016 43.4548 159.196 43.4548 159.375 43.4548H160.992C161.351 43.4548 161.53 43.6344 161.53 43.814L163.147 46.5076L164.763 43.814C164.943 43.6344 164.943 43.4548 165.302 43.4548H166.738C166.918 43.4548 166.918 43.6344 166.918 43.6344L164.224 48.1238L167.098 52.7927C167.277 52.9723 167.098 52.9723 166.918 52.9723H165.302C164.943 52.9723 164.763 52.7927 164.763 52.6131L162.967 49.5603Z" fill="#13377D"/>
<path d="M55.0399 60.1565L53.7827 62.1317L51.4482 65.9028C51.089 66.4415 50.9094 66.4415 50.5503 66.4415H50.0116C49.4728 66.4415 49.1136 66.0824 49.1136 65.5436V57.2833C49.1136 57.1038 49.2932 57.1038 49.4728 57.1038H50.9094C51.089 57.1038 51.2686 57.2833 51.2686 57.2833V63.3888H51.4482L52.7052 61.4135L55.2193 57.6425C55.5785 57.1038 55.7581 57.1038 56.1173 57.1038H56.656C57.1948 57.1038 57.554 57.2833 57.554 58.0016V66.2619C57.554 66.4415 57.3744 66.4415 57.1948 66.4415H55.7581C55.5785 66.4415 55.3989 66.2619 55.3989 66.2619L55.0399 60.1565Z" fill="#13377D"/>
<path d="M66.7138 66.6222H65.2772C65.0976 66.6222 64.918 66.4426 64.918 66.263V62.492H61.147V66.263C61.147 66.4426 60.9675 66.6222 60.7879 66.6222H59.3514C59.1718 66.6222 58.9922 66.4426 58.9922 66.263V57.2845C58.9922 57.1049 59.1718 56.9253 59.3514 56.9253H60.7879C60.9675 56.9253 61.147 57.1049 61.147 57.2845V60.6963H64.918V57.2845C64.918 57.1049 65.0976 56.9253 65.2772 56.9253H66.7138C66.8934 56.9253 67.0729 57.1049 67.0729 57.2845V66.263C67.0729 66.4426 67.0729 66.6222 66.7138 66.6222Z" fill="#13377D"/>
<path d="M74.9741 60.1565L73.7171 62.1317L71.5621 65.9028C71.203 66.4415 71.0234 66.4415 70.6643 66.4415H70.1256C69.5868 66.4415 69.2277 66.0824 69.2277 65.5436V57.2833C69.2277 57.1038 69.4072 57.1038 69.5868 57.1038H71.0234C71.203 57.1038 71.3826 57.2833 71.3826 57.2833V63.3888H71.5621L72.8191 61.4135L75.3333 57.6425C75.6923 57.1038 75.8719 57.1038 76.2311 57.1038H76.7698C77.3085 57.1038 77.6677 57.2833 77.6677 58.0016V66.2619C77.6677 66.4415 77.4881 66.4415 77.3085 66.4415H75.8719C75.6923 66.4415 75.5128 66.2619 75.5128 66.2619L74.9741 60.1565Z" fill="#13377D"/>
<path d="M86.8247 64.8255L87.3635 65.005C87.9021 65.005 87.9021 65.1846 87.9021 65.5437L87.7227 68.5965C87.7227 68.7761 87.5431 68.7761 87.5431 68.7761H86.286C86.1065 68.7761 86.1065 68.5965 86.1065 68.4169L85.9269 66.4416H79.8213C79.2825 66.4416 78.9233 66.0825 78.9233 65.5437V57.2833C78.9233 57.1038 79.1029 57.1038 79.2825 57.1038H80.8987C81.0783 57.1038 81.2579 57.2833 81.2579 57.2833V65.005H85.0289V57.4629C85.0289 57.2833 85.2085 57.2833 85.2085 57.2833H86.8247C87.0043 57.2833 87.1839 57.4629 87.1839 57.4629L86.8247 64.8255Z" fill="#13377D"/>
<path d="M95.0868 60.1565L93.8298 62.1317L91.4953 65.9028C91.1362 66.4415 90.9566 66.4415 90.5975 66.4415H90.0587C89.5201 66.4415 89.1609 66.0824 89.1609 65.5436V57.2833C89.1609 57.1038 89.3405 57.1038 89.5201 57.1038H90.9566C91.1362 57.1038 91.3158 57.2833 91.3158 57.2833V63.3888H91.4953L92.7524 61.4135L95.2664 57.6425C95.6256 57.1038 95.8052 57.1038 96.1643 57.1038H96.703C97.2415 57.1038 97.6007 57.2833 97.6007 58.0016V66.2619C97.6007 66.4415 97.4211 66.4415 97.2415 66.4415H95.8052C95.6256 66.4415 95.446 66.2619 95.446 66.2619L95.0868 60.1565Z" fill="#13377D"/>
<path d="M101.371 63.0297H103.526L102.988 61.4135L102.449 59.4382H102.09L101.551 61.4135L101.371 63.0297ZM104.065 64.6458H101.012L100.473 66.2619C100.294 66.4415 100.294 66.4415 100.114 66.4415H98.4979C98.3184 66.4415 98.3184 66.2619 98.3184 66.2619L101.012 57.8221C101.192 57.2833 101.551 57.1038 101.91 57.1038H102.628C103.167 57.1038 103.526 57.2833 103.706 57.8221L106.4 66.2619C106.4 66.4415 106.4 66.4415 106.22 66.4415H104.604C104.424 66.4415 104.245 66.4415 104.065 66.2619V64.6458Z" fill="#13377D"/>
<path d="M113.583 58.8995H111.068V66.2622C111.068 66.4417 110.889 66.6212 110.709 66.6212H109.273C109.093 66.6212 108.913 66.4417 108.913 66.2622V58.8995H106.4C106.221 58.8995 106.221 58.72 106.221 58.72V57.4629C106.221 57.2833 106.4 57.1038 106.4 57.1038H113.403C113.583 57.1038 113.583 57.2833 113.583 57.4629V58.8995C113.762 58.8995 113.762 58.8995 113.583 58.8995Z" fill="#13377D"/>
<path d="M120.947 60.1565L119.69 62.1317L117.355 65.9028C116.996 66.4415 116.816 66.4415 116.457 66.4415H115.919C115.381 66.4415 115.021 66.0824 115.021 65.5436V57.2833C115.021 57.1038 115.201 57.1038 115.381 57.1038H116.816C116.996 57.1038 117.175 57.2833 117.175 57.2833V63.3888H117.355L118.612 61.4135L121.126 57.6425C121.486 57.1038 121.665 57.1038 122.024 57.1038H122.563C123.102 57.1038 123.461 57.2833 123.461 58.0016V66.2619C123.461 66.4415 123.281 66.4415 123.102 66.4415H121.486C121.306 66.4415 121.126 66.2619 121.126 66.2619L120.947 60.1565Z" fill="#13377D"/>
<path d="M129.027 62.3124H127.051V64.8264H129.027C130.104 64.8264 130.284 64.2877 130.284 63.5695C130.464 62.8511 129.925 62.3124 129.027 62.3124ZM127.231 60.6963H129.027C129.566 60.6963 129.925 60.5168 129.925 59.7984C129.925 59.2597 129.566 58.9006 129.027 58.9006H127.051L127.231 60.6963ZM131.002 61.4146C132.08 61.9533 132.439 62.8511 132.439 63.749C132.439 65.3652 131.002 66.6222 129.206 66.6222H125.794C125.256 66.6222 125.076 66.4426 125.076 65.7243V57.8231C125.076 57.2845 125.256 56.9253 125.794 56.9253H129.206C130.823 56.9253 132.08 57.464 132.08 59.4393C132.08 60.1576 131.721 61.0554 131.002 61.4146Z" fill="#13377D"/>
<g opacity="0.59">
<path opacity="0.71" d="M43.9077 14.9048L52.3477 10.0563L26.848 5.02815L1.52783 0L18.4079 9.87675L26.848 5.02815L43.9077 14.9048Z" fill="#768DA3"/>
<path opacity="0.71" d="M35.2869 29.4483L43.7269 24.5997L18.2274 19.5715L35.2869 29.4483Z" fill="#768DA3"/>
</g>
<path d="M52.3477 9.87964L43.9077 24.4255V14.5486L52.3477 9.87964Z" fill="#768DA3"/>
<path d="M43.9077 24.6001L35.2878 39.1456V29.269L43.9077 24.6001Z" fill="#768DA3"/>
<path d="M26.8492 5.02612L18.4092 19.5718V9.87471L26.8492 5.02612Z" fill="#768DA3"/>
</g>
<defs>
<clipPath id="clip0_820_407">
<rect width="167.103" height="69.1461" fill="white" transform="translate(0.802979)"/>
</clipPath>
</defs>
</svg>
