<svg width="162" height="30" fill="none" xmlns="http://www.w3.org/2000/svg"><g clip-path="url(#clip0_820_389)" fill="#F57913"><path d="M106.671 16.776h3.06c-.54-1.44-.9-2.88-1.441-4.32l-1.619 4.32zm-34.204-5.941c-1.62 0-2.16 1.08-2.16 2.52v3.6c0 1.44.54 2.52 2.16 2.52s2.16-1.08 2.16-2.52v-3.6c0-1.44-.54-2.52-2.16-2.52zm11.52.179h-1.98v3.6h2.16c1.26 0 1.62-.72 1.62-1.44v-.72c0-.72-.36-1.44-1.8-1.44zm-23.041 1.259v5.58c1.8 0 2.34-1.08 2.34-2.52v-.54c0-1.44-.72-2.52-2.34-2.52zm-4.859 2.701v.54c0 1.44.72 2.52 2.34 2.52v-5.58c-1.62-.18-2.34.9-2.34 2.52zm-20.7 1.801h3.06c-.54-1.44-.9-2.88-1.44-4.32-.72 1.44-1.26 2.88-1.62 4.32z"/><path d="M157.075.753H4.964c-1.26 0-2.34.54-3.06 1.26-.9.9-1.26 1.98-1.26 3.06v19.801c0 1.08.54 2.34 1.26 3.06.9.9 1.98 1.26 3.06 1.26h152.111c.541 0 1.081-.18 1.621-.36a3.92 3.92 0 001.44-.9c.36-.36.72-.9.9-1.44.18-.54.36-1.08.36-1.62V5.073c0-.54-.18-1.08-.36-1.62a3.92 3.92 0 00-.9-1.44c-.36-.36-.9-.72-1.44-.9-.36-.36-1.08-.36-1.621-.36zM18.105 20.554c0 .36-.18.54-.36.9-.18.18-.54.36-.9.36s-.54-.18-.9-.36c-.18-.18-.36-.54-.36-.9v-9.54h-4.68v9.54c0 .36-.18.54-.36.9-.18.18-.54.36-.9.36h-.54c-.18 0-.36-.18-.36-.18-.18-.18-.18-.18-.18-.36s-.18-.36-.18-.54v-10.62c0-.36.18-.54.36-.9.18-.18.54-.36.9-.36h7.74c.18 0 .36.18.36.18.18.18.18.18.18.36s.18.36.18.36v10.8zm12.241 0c0 .36-.18.54-.36.9-.18.18-.54.36-.9.36s-.72-.18-.9-.36c-.18-.18-.36-.54-.36-.9v-9.36h-4.14v2.88c0 1.8-.18 4.68-1.08 6.3-.54.9-1.08 1.44-1.8 1.44-.36 0-.54-.18-.9-.36-.18-.18-.36-.54-.36-.9 0-.72.72-1.26 1.08-2.34.36-1.08.36-2.34.36-4.14v-3.96c0-.36.18-.54.36-.9.18-.18.54-.36.9-.36h7.019c.18 0 .36.18.36.18.18.18.18.18.18.36s.18.36.18.36v10.8h.36zm10.26 1.08c-.36 0-.54 0-.72-.18-.18-.18-.36-.36-.36-.72-.18-.72-.36-1.26-.54-1.8h-4.14c-.18.54-.36 1.26-.54 1.8 0 .18-.18.54-.36.72-.18.18-.54.18-.72.18-.18 0-.36 0-.54-.18-.18 0-.36-.18-.36-.36-.18-.18-.18-.36-.18-.54v-.54c.9-3.6 1.98-7.02 3.24-10.44.36-1.08 1.08-1.26 1.62-1.26s1.26.18 1.62 1.26c1.44 3.42 2.52 6.84 3.24 10.44.18 1.08-.54 1.62-1.26 1.62zm10.622-10.62h-2.7v9.36c0 .36-.18.54-.36.9s-.54.36-.9.36-.54-.18-.9-.36-.36-.54-.36-.9v-9.36h-3.061c-.18 0-.36-.18-.36-.18-.18-.18-.18-.18-.18-.36s-.18-.36-.18-.36c0-.36.18-.54.36-.9.18-.18.54-.36.9-.36h7.92c.18 0 .36 0 .54.18.18 0 .36.18.36.18.18.18.18.18.18.36v.72c0 .18-.18.36-.18.36-.18.18-.18.18-.36.18-.36.18-.54.18-.72.18zm14.4 4.32c0 2.34-1.26 4.68-4.86 4.68v.9c0 .18-.18.36-.18.36l-.36.36c-.18.18-.36.18-.54.18-.18 0-.36 0-.54-.18-.18 0-.36-.18-.36-.36-.18-.18-.18-.18-.18-.36v-.9c-3.42 0-4.86-2.34-4.86-4.68v-.54c0-2.34 1.26-4.68 4.86-4.68v-.9c0-.18.18-.36.18-.36l.36-.36c.18 0 .36-.18.54-.18.18 0 .36 0 .54.18.18 0 .36.18.36.36.18.18.18.18.18.36v.9c3.42 0 4.86 2.34 4.86 4.68v.54zm11.342 1.62c0 2.34-1.26 4.68-4.68 4.68-3.421 0-4.681-2.34-4.681-4.68v-3.6c0-2.34 1.08-4.68 4.68-4.68 3.6 0 4.68 2.34 4.68 4.68v3.6zm11.16-3.6c0 2.16-1.44 3.6-3.96 3.6h-2.16v3.6c0 .36-.18.54-.36.9-.18.18-.54.36-.9.36s-.54-.18-.9-.36c-.18-.18-.36-.54-.36-.9V9.934c0-.36.18-.54.36-.9.18-.18.54-.36.9-.36h3.42c3.06 0 3.96 1.8 3.96 3.6v1.08zm13.682 7.2c0 .36-.18.54-.361.72-.179.18-.54.36-.719.36-.36 0-.541-.18-.721-.36-.18-.18-.36-.54-.36-.72v-6.66l-2.34 5.04c-.18.18-.18.36-.54.54-.36.18-.36.18-.72.18-.18 0-.54 0-.72-.18-.18-.18-.36-.36-.36-.54l-2.34-5.04v6.66c0 .36-.18.54-.36.72-.18.18-.54.36-.72.36-.36 0-.54-.18-.72-.36-.18-.18-.36-.54-.36-.72V9.394c0-.18.18-.18.18-.36.18-.18.18-.18.36-.18h.36c.54 0 .9.18 1.26.72l3.42 6.84 3.42-7.02c.18-.54.72-.72 1.08-.72h.36c.18 0 .18.18.361.18.179.18.179.18.179.36v.36l.361 10.98zm10.081 1.08c-.361 0-.541 0-.721-.18-.179-.18-.36-.36-.36-.72-.18-.72-.36-1.26-.54-1.8h-4.14c-.18.54-.36 1.26-.541 1.8 0 .18-.179.54-.359.72-.181.18-.54.18-.72.18-.18 0-.361 0-.54-.18a.386.386 0 01-.36-.36c-.18-.18-.18-.36-.18-.54v-.54c.9-3.6 1.98-7.02 3.24-10.44.36-1.08 1.08-1.26 1.62-1.26s1.26.18 1.62 1.26c1.441 3.42 2.52 6.84 3.241 10.44.179 1.08-.541 1.62-1.26 1.62zm17.821-1.08c0 .36-.181.54-.36.9-.18.18-.54.36-.9.36-.361 0-.54-.18-.9-.36-.18-.18-.361-.54-.361-.9v-4.14h-4.5v4.14c0 .36-.18.54-.36.9-.18.18-.54.36-.9.36s-.54-.18-.9-.36c-.18-.18-.36-.54-.36-.9V9.394c0-.18.18-.36.18-.36.18-.18.18-.18.36-.18s.36-.18.54-.18h.54c.18 0 .36.18.36.18.18.18.18.18.18.36s.18.36.18.54v4.32h4.68v-4.86c0-.18.181-.36.181-.36l.359-.36c.181 0 .36-.18.541-.18.18 0 .359 0 .54.18.179 0 .36.18.36.36.18.18.18.18.18.36v.54l.36 10.8zm10.621-9.54h-2.7v9.36c0 .36-.181.54-.361.9-.18.18-.539.36-.9.36-.36 0-.539-.18-.9-.36-.18-.18-.36-.54-.36-.9v-9.36h-3.24c-.18 0-.36-.18-.36-.18-.181-.18-.181-.18-.181-.36s-.179-.36-.179-.36c0-.36.179-.54.36-.9.18-.18.54-.36.9-.36h7.921c.179 0 .36 0 .54.18.179 0 .36.18.36.18.179.18.179.18.179.36v.72c0 .18-.179.36-.179.36-.181.18-.181.18-.36.18-.18.18-.361.18-.54.18zm12.6 9.54c0 .36-.179.54-.36.9-.179.18-.54.36-.9.36s-.719-.18-.9-.36c-.18-.18-.36-.54-.36-.9v-6.48l-4.861 5.4v1.08c0 .36-.179.54-.359.9-.18.18-.541.36-.9.36-.36 0-.72-.18-.9-.36-.18-.18-.36-.54-.36-.9V9.394c0-.18.18-.36.18-.36.18-.18.18-.18.36-.18.179 0 .36-.18.54-.18.36 0 .72.18.9.36.18.18.36.54.36.9v6.48l4.86-5.4v-1.62c0-.18.18-.36.18-.36l.36-.36c.181 0 .36-.18.54-.18.18 0 .36 0 .541.18.179 0 .36.18.36.36.18.18.18.18.18.36v.54l.539 10.62z"/></g><defs><clipPath id="clip0_820_389"><path fill="#fff" transform="translate(.12 .016)" d="M0 0h161.406v29.181H0z"/></clipPath></defs></svg>