<svg width="166" height="47" fill="none" xmlns="http://www.w3.org/2000/svg"><g clip-path="url(#clip0_856_89)" fill="#fff"><path d="M5.848 9.156c-1.272 0-2.324-.42-3.156-1.26-.824-.84-1.236-1.872-1.236-3.096s.412-2.256 1.236-3.096C3.524.864 4.576.444 5.848.444c.768 0 1.472.184 2.112.552a3.973 3.973 0 011.512 1.488l-.972.564c-.24-.464-.6-.832-1.08-1.104a3.023 3.023 0 00-1.572-.42c-.968 0-1.76.312-2.376.936-.608.624-.912 1.404-.912 2.34 0 .928.304 1.704.912 2.328.616.624 1.408.936 2.376.936.576 0 1.1-.136 1.572-.408.48-.28.84-.648 1.08-1.104l.972.552a3.971 3.971 0 01-1.5 1.5 4.227 4.227 0 01-2.124.552zm5.86-5.148c.343-.744.967-1.116 1.871-1.116v1.092c-.512-.024-.952.112-1.32.408-.368.296-.552.772-.552 1.428V9h-1.044V3h1.044v1.008zm3.296 2.472c.104.536.348.952.732 1.248.392.296.872.444 1.44.444.793 0 1.369-.292 1.729-.876l.887.504c-.584.904-1.464 1.356-2.64 1.356-.951 0-1.728-.296-2.328-.888-.591-.6-.887-1.356-.887-2.268 0-.904.292-1.656.876-2.256.583-.6 1.34-.9 2.268-.9.88 0 1.596.312 2.148.936.56.616.84 1.36.84 2.232 0 .152-.012.308-.037.468h-5.027zm2.077-2.652c-.56 0-1.024.16-1.393.48-.368.312-.596.732-.684 1.26h4.008c-.088-.568-.311-1-.672-1.296a1.924 1.924 0 00-1.26-.444zM26.224 3h1.044v6h-1.044V7.968c-.52.792-1.276 1.188-2.268 1.188-.84 0-1.556-.304-2.148-.912-.592-.616-.888-1.364-.888-2.244 0-.88.296-1.624.888-2.232.592-.616 1.308-.924 2.148-.924.992 0 1.748.396 2.268 1.188V3zm-2.136 5.148c.608 0 1.116-.204 1.524-.612.408-.416.612-.928.612-1.536s-.204-1.116-.612-1.524c-.408-.416-.916-.624-1.524-.624-.6 0-1.104.208-1.512.624-.408.408-.612.916-.612 1.524s.204 1.12.612 1.536c.408.408.912.612 1.512.612zm8.026-4.14h-1.596V7.26c0 .296.056.508.168.636.12.12.3.184.54.192.24 0 .536-.008.888-.024V9c-.912.12-1.58.048-2.004-.216-.424-.272-.636-.78-.636-1.524V4.008h-1.188V3h1.188V1.632l1.044-.312V3h1.596v1.008zm1.663 2.472c.104.536.348.952.732 1.248.392.296.872.444 1.44.444.792 0 1.368-.292 1.728-.876l.888.504c-.584.904-1.464 1.356-2.64 1.356-.952 0-1.728-.296-2.328-.888-.592-.6-.888-1.356-.888-2.268 0-.904.292-1.656.876-2.256.584-.6 1.34-.9 2.268-.9.88 0 1.596.312 2.148.936.56.616.84 1.36.84 2.232 0 .152-.012.308-.036.468h-5.028zm2.076-2.652c-.56 0-1.024.16-1.392.48-.368.312-.596.732-.684 1.26h4.008c-.088-.568-.312-1-.672-1.296a1.924 1.924 0 00-1.26-.444zM44.998.6h1.044V9h-1.044V7.968c-.52.792-1.276 1.188-2.268 1.188-.84 0-1.556-.304-2.148-.912-.592-.616-.888-1.364-.888-2.244 0-.88.296-1.624.888-2.232.592-.616 1.308-.924 2.148-.924.992 0 1.748.396 2.268 1.188V.6zm-2.136 7.548c.608 0 1.116-.204 1.524-.612.408-.416.612-.928.612-1.536s-.204-1.116-.612-1.524c-.408-.416-.916-.624-1.524-.624-.6 0-1.104.208-1.512.624-.408.408-.612.916-.612 1.524s.204 1.12.612 1.536c.408.408.912.612 1.512.612zm11.074-5.304c.84 0 1.556.308 2.148.924.592.608.888 1.352.888 2.232 0 .88-.296 1.628-.888 2.244-.592.608-1.308.912-2.148.912-.992 0-1.748-.396-2.268-1.188V9h-1.044V.6h1.044v3.432c.52-.792 1.276-1.188 2.268-1.188zm-.132 5.304c.6 0 1.104-.204 1.512-.612.408-.416.612-.928.612-1.536s-.204-1.116-.612-1.524a2.034 2.034 0 00-1.512-.624c-.608 0-1.116.208-1.524.624-.408.408-.612.916-.612 1.524s.204 1.12.612 1.536c.408.408.916.612 1.524.612zM62.171 3h1.116L60.84 9.372c-.256.68-.616 1.196-1.08 1.548a2.23 2.23 0 01-1.584.48v-.972c.736.056 1.276-.352 1.62-1.224l.108-.228L57.287 3h1.116l2.04 4.704L62.171 3zM9.227 22.173h1.219V34.36H9.227v-5.693H2.611v5.693H1.393V22.173H2.61v5.345h6.616v-5.345zm5.218 11.038h5.92v1.149h-7.139V22.173h7.051v1.149h-5.832v4.318h5.397v1.149h-5.397v4.422zm15.5 1.149l-2.856-4.875h-3.412v4.875h-1.219V22.173h4.875c1.01 0 1.869.36 2.577 1.08a3.48 3.48 0 011.08 2.576c0 .824-.25 1.561-.75 2.211a3.543 3.543 0 01-1.88 1.288l2.977 5.032h-1.392zm-6.268-11.038v5.014h3.656a2.32 2.32 0 001.724-.731c.476-.5.713-1.091.713-1.776 0-.696-.238-1.288-.713-1.776a2.321 2.321 0 00-1.724-.731h-3.656zm19.488 9.419c-1.219 1.218-2.71 1.828-4.474 1.828-1.765 0-3.256-.61-4.475-1.828-1.219-1.23-1.828-2.722-1.828-4.475 0-1.752.61-3.238 1.828-4.457 1.219-1.23 2.71-1.845 4.474-1.845 1.765 0 3.256.615 4.475 1.845 1.218 1.22 1.828 2.705 1.828 4.457 0 1.753-.61 3.244-1.828 4.475zm-8.096-.836c.975.987 2.182 1.48 3.621 1.48 1.44 0 2.647-.493 3.622-1.48.975-.998 1.462-2.211 1.462-3.639 0-1.427-.487-2.634-1.462-3.62-.975-1-2.182-1.498-3.621-1.498-1.44 0-2.647.499-3.622 1.497-.975.987-1.462 2.194-1.462 3.621 0 1.428.487 2.64 1.462 3.64zm15.142-10.359h-2.333v13.44h2.333v1.115h-3.482V20.43h3.482v1.115zm1.746.627h1.218V34.36h-1.218V22.173zm11.847 0h1.218V34.36h-1.044l-6.79-9.924v9.924h-1.219V22.173h1.045l6.79 9.924v-9.924zm6.436-1.741V36.1h-3.482v-1.114h2.333v-13.44h-2.333v-1.115h3.482zm13.584 1.74V34.36h-1.218V24.018l-4.266 7.138h-.174l-4.265-7.138V34.36h-1.219V22.173h1.515l4.056 6.79 4.057-6.79h1.514zM94.72 34.36l-1.132-2.995h-5.78l-1.132 2.995h-1.288l4.683-12.187h1.254l4.683 12.187H94.72zm-6.477-4.144h4.91l-2.455-6.529-2.455 6.53zm16.816 4.144l-2.855-4.875h-3.412v4.875h-1.22V22.173h4.876a3.48 3.48 0 012.576 1.08 3.48 3.48 0 011.08 2.576c0 .824-.25 1.561-.749 2.211a3.54 3.54 0 01-1.88 1.288l2.977 5.032h-1.393zm-6.267-11.038v5.014h3.656a2.32 2.32 0 001.723-.731c.476-.5.714-1.091.714-1.776a2.45 2.45 0 00-.714-1.776 2.32 2.32 0 00-1.723-.731h-3.656zM116.73 34.36h-1.602l-5.71-5.902v5.902h-1.219V22.173h1.219v5.571l5.536-5.571h1.602l-5.85 5.92 6.024 6.267zm2.787-1.15h5.919v1.15h-7.138V22.173h7.051v1.149h-5.832v4.318h5.397v1.149h-5.397v4.422zm15.674-11.037v1.149h-3.743V34.36h-1.219V23.322h-3.743v-1.15h8.705zm1.741 0h1.219V34.36h-1.219V22.173zm11.847 0h1.219V34.36h-1.045l-6.789-9.924v9.924h-1.219V22.173h1.044l6.79 9.924v-9.924zm15.646 6.39v.626c0 1.509-.539 2.786-1.619 3.83-1.079 1.033-2.524 1.55-4.335 1.55-1.845 0-3.371-.61-4.579-1.828-1.207-1.219-1.81-2.71-1.81-4.475 0-1.764.603-3.255 1.81-4.474 1.208-1.219 2.734-1.828 4.579-1.828 1.126 0 2.159.273 3.099.818.94.546 1.666 1.271 2.176 2.177l-1.079.626a4.33 4.33 0 00-1.706-1.776 4.844 4.844 0 00-2.49-.661c-1.52 0-2.762.493-3.725 1.48-.964.986-1.446 2.2-1.446 3.638 0 1.44.482 2.653 1.446 3.64.963.986 2.205 1.479 3.725 1.479 1.37 0 2.467-.343 3.291-1.027a3.899 3.899 0 001.41-2.647h-4.84v-1.149h6.093zM3.176 38.84H2.055v6.46h1.121v.536H1.502v-7.533h1.674v.536zm3.1.301c.797 0 1.456.285 1.975.854.524.563.786 1.255.786 2.076 0 .82-.262 1.515-.786 2.084-.52.563-1.178.845-1.976.845h-2.26v-5.859h2.26zm0 5.307c.641 0 1.166-.23 1.573-.687.413-.457.62-1.02.62-1.69 0-.67-.207-1.234-.62-1.691-.407-.458-.932-.687-1.574-.687H4.601v4.755h1.674zm3.764-5.307h.586V45h-.586v-5.859zm7.528 3.072v.301c0 .725-.26 1.34-.778 1.841-.52.497-1.214.745-2.084.745-.888 0-1.621-.293-2.202-.878-.58-.586-.87-1.303-.87-2.151 0-.849.29-1.566.87-2.152.58-.585 1.314-.878 2.202-.878.54 0 1.037.13 1.49.393.451.262.8.611 1.046 1.046l-.52.302a2.08 2.08 0 00-.82-.854 2.328 2.328 0 00-1.196-.318c-.731 0-1.328.237-1.792.711-.463.474-.694 1.058-.694 1.75 0 .691.231 1.275.694 1.749.464.474 1.06.711 1.792.711.658 0 1.185-.164 1.582-.494.396-.334.622-.758.677-1.272H14.64v-.552h2.93zm1.005-3.072h.586V45h-.586v-5.859zm5.612 0v.552h-1.8V45H21.8v-5.307H20v-.552h4.186zM28.505 45l-.543-1.44h-2.78L24.64 45h-.62l2.252-5.859h.603L29.125 45h-.62zm-3.113-1.992h2.36l-1.18-3.139-1.18 3.139zm5.071 1.44h2.679V45h-3.265v-5.859h.586v5.307zm9.51.552l-.543-1.44h-2.78L36.108 45h-.62l2.252-5.859h.603L40.593 45h-.62zm-3.113-1.992h2.36l-1.18-3.139-1.18 3.139zm6.745-3.867c.798 0 1.457.285 1.976.854.524.563.786 1.255.786 2.076 0 .82-.262 1.515-.786 2.084-.52.563-1.178.845-1.976.845h-2.26v-5.859h2.26zm0 5.307c.642 0 1.167-.23 1.574-.687.413-.457.62-1.02.62-1.69 0-.67-.207-1.234-.62-1.691-.407-.458-.932-.687-1.574-.687h-1.674v4.755h1.674zm6.024-5.307c.798 0 1.457.285 1.976.854.524.563.787 1.255.787 2.076 0 .82-.263 1.515-.787 2.084-.52.563-1.178.845-1.976.845h-2.26v-5.859h2.26zm0 5.307c.642 0 1.167-.23 1.574-.687.413-.457.62-1.02.62-1.69 0-.67-.207-1.234-.62-1.691-.407-.458-.932-.687-1.574-.687h-1.674v4.755h1.674zm3.765-5.307h.586V45h-.586v-5.859zm4.666 5.96c-.888 0-1.621-.294-2.202-.88-.58-.585-.87-1.302-.87-2.15 0-.849.29-1.566.87-2.152.58-.585 1.314-.878 2.202-.878.54 0 1.037.13 1.49.393.451.257.8.605 1.046 1.046l-.52.302a2.08 2.08 0 00-.82-.854 2.328 2.328 0 00-1.196-.318c-.731 0-1.328.237-1.792.711-.463.474-.694 1.058-.694 1.75 0 .691.231 1.275.694 1.749.464.474 1.06.711 1.792.711a2.33 2.33 0 001.197-.318 2.08 2.08 0 00.82-.854l.519.293c-.24.441-.589.793-1.046 1.055a2.916 2.916 0 01-1.49.393zm7.1-5.96v.552h-1.8V45h-.585v-5.307h-1.8v-.552h4.185zm.838 0h.585V45h-.585v-5.859zm6.775 5.08c-.586.587-1.303.88-2.151.88-.848 0-1.565-.294-2.151-.88a2.944 2.944 0 01-.88-2.15c0-.843.294-1.557.88-2.143.586-.592 1.303-.887 2.15-.887.849 0 1.566.295 2.152.887.586.586.879 1.3.879 2.143 0 .842-.293 1.56-.88 2.15zm-3.892-.401c.469.474 1.049.711 1.74.711.693 0 1.273-.237 1.742-.711a2.41 2.41 0 00.703-1.75c0-.686-.234-1.266-.703-1.74-.469-.48-1.05-.72-1.741-.72-.692 0-1.272.24-1.741.72-.469.474-.703 1.054-.703 1.74 0 .687.234 1.27.703 1.75zm9.54-4.679h.585V45h-.502l-3.264-4.77V45h-.586v-5.859h.502l3.264 4.77v-4.77zm3.093-.837v7.533h-1.673v-.536h1.121V38.84h-1.121v-.536h1.674zm8.624.837V45h-.586v-4.972l-2.05 3.432h-.084l-2.051-3.432V45h-.586v-5.859h.728l1.95 3.264 1.95-3.264h.729zM95.376 45l-.544-1.44h-2.779L91.509 45h-.62l2.252-5.859h.603L95.995 45h-.62zm-3.114-1.992h2.36l-1.18-3.139-1.18 3.139zM100.347 45l-1.373-2.344h-1.64V45h-.586v-5.859h2.343c.486 0 .899.173 1.239.519.346.34.519.753.519 1.239 0 .396-.12.75-.36 1.063a1.702 1.702 0 01-.904.62L101.016 45h-.669zm-3.013-5.307v2.411h1.757c.324 0 .6-.117.829-.352.229-.24.343-.524.343-.853 0-.335-.114-.62-.343-.854a1.116 1.116 0 00-.829-.352h-1.757zM105.957 45h-.771l-2.745-2.837V45h-.586v-5.859h.586v2.678l2.662-2.678h.77l-2.813 2.846L105.958 45zm1.339-.552h2.846V45h-3.432v-5.859h3.39v.552h-2.804v2.076h2.595v.553h-2.595v2.126zm7.536-5.307v.552h-1.8V45h-.586v-5.307h-1.799v-.552h4.185zm.837 0h.586V45h-.586v-5.859zm5.696 0h.585V45h-.502l-3.264-4.77V45h-.586v-5.859h.502l3.265 4.77v-4.77zm7.522 3.072v.301c0 .725-.26 1.34-.779 1.841-.519.497-1.214.745-2.084.745-.887 0-1.621-.293-2.201-.878-.581-.586-.871-1.303-.871-2.151 0-.849.29-1.566.871-2.152.58-.585 1.314-.878 2.201-.878.541 0 1.038.13 1.49.393.452.262.801.611 1.046 1.046l-.519.302a2.077 2.077 0 00-.82-.854 2.33 2.33 0 00-1.197-.318c-.731 0-1.328.237-1.791.711-.463.474-.695 1.058-.695 1.75 0 .691.232 1.275.695 1.749.463.474 1.06.711 1.791.711.658 0 1.186-.164 1.582-.494.396-.334.622-.758.678-1.272h-2.327v-.552h2.93zM135.885 45l-.544-1.44h-2.779l-.544 1.44h-.619l2.252-5.859h.602L136.505 45h-.62zm-3.113-1.992h2.36l-1.18-3.139-1.18 3.139zm9.872-.795v.301c0 .725-.259 1.34-.778 1.841-.519.497-1.214.745-2.084.745-.888 0-1.621-.293-2.202-.878-.58-.586-.87-1.303-.87-2.151 0-.849.29-1.566.87-2.152.581-.585 1.314-.878 2.202-.878.541 0 1.037.13 1.489.393.452.262.801.611 1.047 1.046l-.519.302a2.08 2.08 0 00-.821-.854 2.324 2.324 0 00-1.196-.318c-.731 0-1.329.237-1.792.711-.463.474-.694 1.058-.694 1.75 0 .691.231 1.275.694 1.749.463.474 1.061.711 1.792.711.658 0 1.185-.164 1.581-.494.397-.334.623-.758.678-1.272h-2.326v-.552h2.929zm1.591 2.235h2.846V45h-3.432v-5.859h3.39v.552h-2.804v2.076h2.595v.553h-2.595v2.126zm7.619-5.307h.586V45h-.502l-3.265-4.77V45h-.586v-5.859h.503l3.264 4.77v-4.77zm4.659 5.96c-.887 0-1.621-.294-2.201-.88-.58-.585-.87-1.302-.87-2.15 0-.849.29-1.566.87-2.152.58-.585 1.314-.878 2.201-.878.542 0 1.038.13 1.49.393a2.69 2.69 0 011.046 1.046l-.518.302a2.086 2.086 0 00-.821-.854 2.325 2.325 0 00-1.197-.318c-.731 0-1.328.237-1.791.711-.463.474-.695 1.058-.695 1.75 0 .691.232 1.275.695 1.749.463.474 1.06.711 1.791.711.436 0 .835-.106 1.197-.318.363-.212.636-.496.821-.854l.518.293a2.665 2.665 0 01-1.046 1.055 2.915 2.915 0 01-1.49.393zm7.604-5.96L162 42.598V45h-.586v-2.419l-2.11-3.44h.662l1.749 2.87 1.741-2.87h.661z"/></g><defs><clipPath id="clip0_856_89"><path fill="#fff" d="M0 0h165.11v46.62H0z"/></clipPath></defs></svg>