<svg width="200" height="56" fill="none" xmlns="http://www.w3.org/2000/svg"><path d="M61.917 20.703H60.87v-6.397h1.047l2.154 2.908 2.154-2.908h1.047v6.397h-1.047v-4.885l-1.863 2.442h-.64l-1.863-2.442.058 4.885zm7.976 0h-.932v-6.397h1.048v4.71l3.667-4.71h.931v6.397H73.56v-4.71l-3.667 4.71zm7.392 0h-1.048v-6.397h1.048v2.559h3.492v-2.56h1.048v6.398h-1.048v-2.966h-3.492v2.966zm7.101 0h-.873v-6.397h1.047v4.71l3.667-4.71h.932v6.397h-1.048v-4.71l-3.725 4.71zm9.604.117c-.99 0-1.862-.292-2.503-.931-.698-.64-.99-1.454-.99-2.385 0-.988.35-1.744.99-2.384.699-.64 1.514-.93 2.503-.93.699 0 1.281.174 1.805.407v.988c-.524-.349-1.106-.523-1.805-.523-.698 0-1.28.233-1.745.698-.466.465-.7.989-.7 1.686 0 .698.234 1.28.7 1.687.465.465 1.047.698 1.804.698.756 0 1.396-.175 1.92-.582v.989a3.56 3.56 0 01-1.979.581zm2.794-5.584v-.93h5.472v.93h-2.212v5.525h-1.048v-5.525h-2.212zm11.467 5.467h-4.889v-6.397h4.773v.93h-3.725v1.629h3.026v.93h-3.026v1.977h3.841v.93zm2.154 0h-.99v-6.397h2.911c.698 0 1.28.174 1.63.523.408.35.64.814.64 1.338 0 .523-.232.988-.64 1.395-.408.35-.932.524-1.63.524h-1.863v2.617h-.058zm0-5.467v1.92h1.746c.408 0 .699-.117.932-.233a.828.828 0 00.349-.698.828.828 0 00-.349-.698c-.233-.174-.524-.232-.932-.232l-1.746-.059zm8.557 5.584c-.99 0-1.863-.292-2.503-.931-.699-.64-.99-1.454-.99-2.385 0-.988.349-1.744.99-2.384.698-.64 1.513-.93 2.503-.93.698 0 1.28.174 1.804.407v.988c-.524-.349-1.106-.523-1.804-.523-.699 0-1.281.233-1.747.698-.465.465-.698.989-.698 1.686 0 .698.233 1.28.698 1.687.466.465 1.048.698 1.805.698.757 0 1.397-.175 1.921-.582v.989c-.582.407-1.223.581-1.979.581zm2.794-5.584v-.93h5.471v.93h-2.211v5.525h-1.048v-5.525h-2.212zm9.838 5.467h-3.26v-6.397h3.027c.641 0 1.048.174 1.455.407.349.29.524.698.524 1.163 0 .29-.116.582-.232.814-.175.233-.35.407-.641.465.408.059.757.291.99.582.233.29.407.698.407 1.163 0 .524-.233.989-.64 1.338-.349.29-.873.465-1.63.465zm-2.212-5.467v1.629h1.805c.349 0 .64-.058.815-.233.174-.174.29-.349.29-.64 0-.29-.116-.465-.29-.64-.175-.174-.466-.232-.815-.232h-1.805v.116zm0 2.501v2.035h2.038c.407 0 .756-.116.931-.29.232-.175.349-.407.349-.756 0-.291-.117-.524-.349-.756-.233-.175-.524-.233-.931-.233h-2.038zm11.35 2.152c-.641.64-1.455.93-2.445.93-.99 0-1.805-.29-2.445-.93-.64-.64-.931-1.454-.931-2.385 0-.93.291-1.744.931-2.326.64-.64 1.455-.988 2.445-.988.99 0 1.804.349 2.445.988.64.64.989 1.454.989 2.326 0 .873-.349 1.745-.989 2.385zm-4.075-.698c.466.465.99.698 1.63.698.64 0 1.223-.233 1.63-.698a2.33 2.33 0 00.698-1.687c0-.697-.233-1.279-.698-1.686-.466-.465-.99-.698-1.63-.698-.64 0-1.223.233-1.63.698-.465.465-.698.989-.698 1.686 0 .698.233 1.222.698 1.687zm10.013 1.512h-1.048v-6.397h1.048v2.559h3.492v-2.56h1.048v6.398h-1.048v-2.966h-3.492v2.966zm6.692 0h-1.105l2.91-6.455h.99l2.91 6.455h-1.106l-.756-1.57h-3.144l-.699 1.57zm2.329-5.176l-1.222 2.675h2.444l-1.222-2.675zm5.414 5.293c-.408 0-.757-.059-.931-.175v-.93c.233.116.466.174.756.174.292 0 .466-.058.699-.233.174-.116.349-.407.582-.872l-2.619-4.536h1.222l1.979 3.49 1.63-3.49h1.106l-2.445 5.06c-.524 1.046-1.164 1.511-1.979 1.511zm6.461-.117h-1.048v-6.397h1.048v2.617l2.735-2.617h1.339l-3.085 2.908 3.609 3.489h-1.397l-3.143-3.082v3.082h-.058zm6.461 0h-.873v-6.397h1.048v4.71l3.667-4.71h.931v6.397h-1.047v-4.71l-3.726 4.71zM61.801 31.81h-.873v-6.397h1.048v4.71l3.667-4.71h.931v6.397h-1.047V27.1L61.8 31.81zm12.166 0h-3.26v-6.397h3.027c.64 0 1.048.175 1.455.407.35.291.524.698.524 1.163 0 .291-.116.582-.233.815a.903.903 0 01-.64.465c.407.058.757.29.99.581.232.291.407.698.407 1.163 0 .524-.233.99-.64 1.338-.408.29-.932.465-1.63.465zm-2.213-5.524v1.628h1.805c.35 0 .64-.058.815-.233.175-.174.29-.349.29-.64 0-.29-.115-.465-.29-.64-.174-.174-.466-.232-.815-.232h-1.805v.117zm0 2.558v2.036h2.038c.408 0 .757-.116.931-.29.233-.175.35-.408.35-.757 0-.29-.117-.523-.35-.756-.233-.174-.523-.233-.93-.233h-2.039zm8.324 2.966h-2.56v-6.397h1.047v2.21h1.513c.757 0 1.398.175 1.863.582.466.407.699.872.699 1.512s-.233 1.105-.699 1.512c-.523.407-1.106.581-1.863.581zm-1.513-3.256v2.326h1.456c.465 0 .814-.116 1.105-.29.291-.175.408-.466.408-.873s-.117-.698-.408-.873c-.29-.174-.64-.29-1.105-.29h-1.456zm5.937 3.256h-1.047v-6.397h1.047v6.397zm4.831.117c-.989 0-1.862-.29-2.503-.93-.698-.64-.989-1.454-.989-2.385 0-.988.35-1.744.99-2.384.698-.64 1.513-.93 2.502-.93.7 0 1.281.174 1.805.407v.988c-.524-.349-1.106-.523-1.805-.523-.698 0-1.28.232-1.746.698-.465.465-.698.988-.698 1.686s.233 1.28.698 1.687c.466.465 1.048.697 1.805.697.756 0 1.397-.174 1.92-.581v.988c-.582.408-1.222.582-1.979.582zm11.41-.117h-8.15v-6.397h1.048v5.525h2.503v-5.525h1.048v5.525h2.503v-5.525h1.048v6.397zm6.461 0h-4.89v-6.397h4.774v.93h-3.726v1.571h3.027v.93h-3.027v2.036h3.842v.93zm2.212 0h-1.048v-6.397h4.715v.93h-3.667v5.467zm10.128-.813c-.641.64-1.455.93-2.445.93-.99 0-1.805-.29-2.445-.93-.64-.64-.931-1.454-.931-2.385 0-.93.291-1.744.931-2.326.64-.64 1.455-.989 2.445-.989.99 0 1.804.35 2.445.989.64.64.989 1.454.989 2.326 0 .873-.349 1.745-.989 2.385zm-4.133-.698c.466.465.989.698 1.63.698.64 0 1.222-.233 1.629-.698a2.327 2.327 0 00.699-1.687c0-.698-.233-1.28-.699-1.686-.465-.465-.989-.698-1.629-.698-.641 0-1.223.232-1.63.698-.466.465-.699.988-.699 1.686.059.698.233 1.221.699 1.687zm14.61.698c-.64.64-1.455.93-2.444.93-.99 0-1.805-.29-2.445-.93-.641-.64-.931-1.454-.931-2.385 0-.93.29-1.744.931-2.326.64-.64 1.455-.989 2.445-.989.989 0 1.804.35 2.444.989.641.64.99 1.454.99 2.326a3.39 3.39 0 01-.99 2.385zm-4.132-.698c.466.465.989.698 1.629.698.641 0 1.223-.233 1.63-.698a2.327 2.327 0 00.699-1.687c0-.698-.233-1.28-.699-1.686-.466-.465-.989-.698-1.63-.698-.64 0-1.222.232-1.629.698-.466.465-.699.988-.699 1.686.058.698.291 1.221.699 1.687zm9.255 1.511h-2.794v-6.397h4.715v.93h-3.667v1.338h1.805c.756 0 1.338.175 1.804.582.407.349.698.872.698 1.512s-.232 1.105-.698 1.512c-.466.349-1.106.523-1.863.523zm-1.805-3.198v2.268h1.688c.466 0 .815-.116 1.107-.29.233-.234.407-.466.407-.815 0-.35-.116-.64-.407-.872-.292-.233-.641-.291-1.107-.291h-1.688zm6.52 3.198h-1.047v-6.397h2.852c.698 0 1.281.175 1.63.524.407.349.64.814.64 1.337 0 .524-.233.989-.64 1.396-.407.349-.932.523-1.63.523h-1.862v2.617h.057zm0-5.524v1.919h1.747c.407 0 .699-.117.932-.233.232-.116.349-.407.349-.698a.83.83 0 00-.349-.698c-.233-.174-.525-.232-.932-.232l-1.747-.058zm5.064 5.524h-1.106l2.91-6.455h.99l2.91 6.455h-1.048l-.756-1.57h-3.143l-.757 1.57zm2.328-5.233l-1.222 2.675h2.444l-1.222-2.675zm6.578 5.35c-.931 0-1.689-.175-2.329-.524v-.988c.291.174.64.349 1.048.407.407.116.757.174 1.164.174.524 0 .99-.116 1.339-.29.35-.233.466-.466.466-.815 0-.29-.175-.523-.466-.756-.291-.174-.698-.29-1.222-.29h-.757v-.93h.931c.408 0 .757-.117.932-.233.233-.175.349-.35.349-.64 0-.291-.116-.466-.408-.64-.233-.174-.64-.233-1.047-.233-.699 0-1.397.175-2.038.466v-.93c.641-.35 1.339-.466 2.096-.466.756 0 1.338.174 1.746.465.466.291.699.756.699 1.28 0 .349-.117.64-.349.872-.233.233-.466.407-.699.465.349.116.64.291.931.582.291.29.408.64.408 1.047 0 .581-.233 1.046-.757 1.453-.582.35-1.223.524-2.037.524zm9.604-.93c-.64.64-1.455.93-2.444.93-.99 0-1.805-.29-2.445-.93-.641-.64-.931-1.454-.931-2.385 0-.93.29-1.744.931-2.326.64-.64 1.455-.989 2.445-.989.989 0 1.804.35 2.444.989.641.64.99 1.454.99 2.326a3.39 3.39 0 01-.99 2.385zm-4.132-.698c.465.465.989.698 1.63.698.64 0 1.222-.233 1.629-.698a2.327 2.327 0 00.699-1.687c0-.698-.233-1.28-.699-1.686-.466-.407-.989-.698-1.629-.698-.641 0-1.223.232-1.63.698-.466.465-.699.988-.699 1.686.058.698.291 1.221.699 1.687zm9.72 1.511h-3.259v-6.397h3.027c.64 0 1.048.175 1.455.407.349.291.524.698.524 1.163 0 .291-.116.582-.233.815-.175.232-.349.407-.64.465.407.058.757.29.989.581.233.291.408.698.408 1.163 0 .524-.233.99-.64 1.338-.408.29-.99.465-1.631.465zm-2.27-5.524v1.628h1.805c.349 0 .641-.058.815-.233.175-.174.291-.349.291-.64 0-.29-.116-.465-.291-.64-.174-.174-.466-.232-.815-.232h-1.805v.117zm0 2.558v2.036h2.038c.408 0 .757-.116.931-.29.233-.175.349-.408.349-.757 0-.29-.116-.523-.349-.756-.233-.174-.523-.233-.931-.233h-2.038zm6.228 2.966h-1.106l2.911-6.455h.989l2.91 6.455h-1.106l-.756-1.57h-3.143l-.699 1.57zm2.328-5.233l-1.222 2.675h2.445l-1.223-2.675zm5.531 5.233h-1.048v-6.397h1.048v2.501h3.492v-2.559h1.048v6.397h-1.048v-2.966h-3.492v3.024zm7.042 0h-.873v-6.397h1.048v4.71l3.667-4.71h.932v6.397h-1.048V27.1l-3.726 4.71zm7.102 0h-1.28l2.154-2.791c-.466-.116-.815-.29-1.107-.64-.291-.29-.407-.698-.407-1.105 0-.523.175-.989.582-1.337.407-.35.932-.466 1.63-.466h3.027v6.397h-1.048v-2.791h-1.572l-1.979 2.733zm1.63-3.605h1.98v-1.92h-1.98c-.349 0-.699.117-.873.233-.233.175-.291.407-.291.698 0 .29.116.523.291.698.233.174.524.29.873.29zM61.917 42.918H60.87V36.52h2.91c.698 0 1.28.174 1.63.523.407.35.64.814.64 1.338 0 .523-.233.988-.64 1.395-.408.35-.931.524-1.63.524h-1.863v2.617zm0-5.525v1.92h1.747c.407 0 .698-.117.931-.233a.829.829 0 00.35-.698.829.829 0 00-.35-.698c-.233-.175-.524-.233-.931-.233l-1.747-.058zm10.886 4.652c-.64.64-1.455.93-2.445.93-.99 0-1.805-.29-2.445-.93-.64-.64-.931-1.454-.931-2.384 0-.93.29-1.745.931-2.326.64-.64 1.455-.989 2.445-.989.99 0 1.804.35 2.445.989.64.64.99 1.454.99 2.326 0 .93-.35 1.745-.99 2.384zm-4.075-.698c.466.466.99.698 1.63.698.64 0 1.222-.232 1.63-.698a2.33 2.33 0 00.698-1.686c0-.64-.233-1.28-.698-1.687-.466-.465-.99-.697-1.63-.697-.64 0-1.223.232-1.63.697-.466.466-.699.99-.699 1.687 0 .698.233 1.28.699 1.686zm9.72 1.687c-.989 0-1.862-.29-2.503-.93-.698-.64-.989-1.454-.989-2.385 0-.988.35-1.744.99-2.384.698-.64 1.513-.93 2.502-.93.7 0 1.281.174 1.805.407v.988c-.524-.349-1.106-.523-1.805-.523-.698 0-1.28.232-1.745.698-.466.465-.7.988-.7 1.686s.234 1.28.7 1.687c.465.465 1.047.697 1.804.697.756 0 1.397-.174 1.92-.581v.989c-.581.407-1.221.581-1.979.581zm6.346 0c-.99 0-1.862-.29-2.503-.93-.698-.64-.99-1.454-.99-2.385 0-.988.35-1.744.99-2.384.698-.64 1.513-.93 2.503-.93.698 0 1.28.174 1.804.407v.988c-.524-.349-1.106-.523-1.804-.523-.699 0-1.28.232-1.746.698-.466.465-.7.988-.7 1.686s.234 1.28.7 1.687c.465.465 1.047.697 1.804.697.757 0 1.397-.174 1.92-.581v.989a3.56 3.56 0 01-1.978.581zm4.073-.116h-.872V36.52h1.048v4.71l3.666-4.71h.931v6.397h-1.047v-4.71l-3.726 4.71zm7.277 0h-.873V36.52h1.047v4.71l3.668-4.71h.931v6.397h-1.048v-4.71l-3.725 4.71zm1.921-6.863c-.466 0-.932-.174-1.222-.407a1.487 1.487 0 01-.466-1.105h.873c0 .233.059.407.233.524a.747.747 0 00.582.232c.233 0 .466-.058.582-.232a.71.71 0 00.233-.523h.873c0 .465-.174.814-.466 1.104-.29.291-.698.407-1.222.407zm7.684 6.979c-.99 0-1.862-.29-2.503-.93-.699-.64-.99-1.454-.99-2.385 0-.988.35-1.744.99-2.384.698-.64 1.513-.93 2.503-.93.698 0 1.28.174 1.804.407v.988c-.524-.349-1.106-.523-1.804-.523-.699 0-1.281.232-1.746.698-.466.465-.699.988-.699 1.686s.233 1.28.699 1.687c.465.465 1.047.697 1.804.697.757 0 1.397-.174 1.921-.581v.989c-.582.407-1.222.581-1.979.581zm4.307-.116h-1.048V36.52h1.048v2.617l2.735-2.617h1.339l-3.085 2.907 3.609 3.49h-1.455l-3.143-3.082v3.082zm10.477-.873c-.64.64-1.455.93-2.444.93-.99 0-1.804-.29-2.445-.93-.64-.64-.931-1.454-.931-2.384 0-.93.291-1.745.931-2.326.641-.64 1.455-.989 2.445-.989.989 0 1.804.35 2.444.989.641.64.99 1.454.99 2.326-.058.93-.349 1.745-.99 2.384zm-4.132-.698c.465.466.989.698 1.629.698.641 0 1.223-.232 1.631-.698a2.33 2.33 0 00.698-1.686c0-.64-.233-1.28-.698-1.687-.466-.465-.99-.697-1.631-.697-.64 0-1.222.232-1.629.697-.466.466-.698.99-.698 1.687.057.698.232 1.28.698 1.686zm7.334 1.571h-.931V36.52h1.047v4.71l3.667-4.71h.932v6.397h-1.048v-4.71l-3.667 4.71zm1.862-6.863c-.466 0-.931-.174-1.222-.407a1.489 1.489 0 01-.466-1.105h.873c0 .233.059.407.233.524a.748.748 0 00.582.232c.233 0 .466-.058.582-.232a.709.709 0 00.233-.523h.873c0 .465-.174.814-.466 1.104-.349.291-.698.407-1.222.407zm11.061 7.037h-1.048v-.698c-1.048-.058-1.863-.29-2.445-.814-.524-.523-.815-1.163-.815-1.92 0-.348.058-.697.233-.988.117-.349.349-.64.582-.872.233-.29.64-.465 1.048-.64.407-.174.931-.232 1.455-.29v-.64h1.048v.64c.524 0 .989.116 1.455.232.407.175.757.349 1.048.64.291.29.465.523.582.872.116.349.232.698.232.989 0 .29-.057.697-.232.988-.175.291-.35.64-.582.873-.291.29-.641.465-1.048.64-.408.174-.931.232-1.455.232l-.058.756zm-1.048-1.57v-3.78c-.699 0-1.281.174-1.63.523-.349.35-.524.814-.524 1.338 0 .523.175.988.524 1.337.349.35.931.524 1.63.582zm1.048-3.78v3.78c.756 0 1.28-.175 1.63-.524.349-.349.523-.814.523-1.337 0-.524-.174-.989-.523-1.338-.35-.407-.932-.581-1.63-.581zm9.371 5.176h-4.89V36.52h4.773v.93h-3.725v1.629h3.027v.93h-3.027v2.035h3.842v.873zm1.863 1.337h-.99v-2.268h.641c.349-.523.64-1.105.756-1.803.175-.697.233-1.628.233-2.79v-.873h4.424v5.524h.931v2.268h-.989v-1.395h-5.065l.059 1.337zm.756-2.326h3.26v-4.594h-2.387c0 1.047-.057 1.977-.233 2.675-.057.814-.29 1.454-.64 1.92zm11.235.989h-4.89V36.52h4.773v.93h-3.725v1.629h3.027v.93h-3.027v2.035h3.842v.873zm2.211 0h-1.047V36.52h2.91c.698 0 1.281.174 1.63.523.407.35.64.814.64 1.338 0 .523-.233.988-.64 1.395-.408.35-.932.524-1.63.524h-1.863v2.617zm0-5.525v1.92h1.746c.408 0 .699-.117.932-.233a.828.828 0 00.349-.698.828.828 0 00-.349-.698c-.233-.175-.524-.233-.932-.233l-1.746-.058zm5.065 5.525h-1.106l2.91-6.455h.989l2.911 6.455h-1.106l-.757-1.57h-3.143l-.698 1.57zm2.328-5.234l-1.223 2.675h2.446l-1.223-2.675zm10.828 6.571h-.99V42.86h-5.356v-6.397h1.048v5.524h3.26v-5.524h1.048v5.524h.931v2.268h.059zm1.978-1.337h-.873V36.52h1.047v4.71l3.667-4.71h.932v6.397h-1.048v-4.71l-3.725 4.71zm7.276 0h-.873V36.52h1.047v4.71l3.667-4.71h.932v6.397h-1.048v-4.71l-3.725 4.71z" fill="#58595B"/><path d="M39.274 41.639c-.174 0-.29.116-.29.29s.116.29.29.29.29-.116.29-.29c0-.116-.116-.29-.29-.29zm.991 2.849c0 .174.116.29.29.29.175 0 .29-.116.29-.29s-.115-.29-.29-.29c-.174 0-.29.116-.29.29zm-.991-.291c-.174 0-.29.117-.29.29 0 .175.116.291.29.291s.29-.116.29-.29-.116-.29-.29-.29zm2.271.291c0 .174.116.29.29.29.175 0 .29-.116.29-.29s-.115-.29-.29-.29c-.174 0-.29.116-.29.29zm-2.678-5.699l.058.756-.64-.059v.815l.64-.117-.058.756h.815l-.058-.756.64.117v-.815l-.64.059.058-.756h-.815zm.932 2.617v2.617h2.503c-.175-1.338-1.222-2.384-2.503-2.617zm-.525 1.512c-.174 0-.29.116-.29.29s.116.29.29.29.29-.116.29-.29-.116-.29-.29-.29zm1.048 3.315c-.058 0-.29.64-.058 1.105.116.232.35.349.582.29.233-.058.291-.29.291-.407-.058-.523-.465-.988-.815-.988zm-2.095 0c-.35 0-.757.465-.757.988 0 .175.058.35.291.407.233.059.466-.058.582-.29.116-.466-.058-1.105-.116-1.105zm1.048-.35c-.233 0-.931 1.338-.408 1.978a.529.529 0 00.408.174c.175 0 .35-.058.407-.174.466-.64-.174-1.977-.407-1.977z" fill="#13377D"/><path d="M36.19 44.488c0-.29.058-.523.058-.523h2.503v-2.617a3.188 3.188 0 00-2.503 2.384c-.058.116-.291.175-.466.116-.93-.116-2.794-.465-2.794-.872 0-.581.408-.814.757-.814.524 0 1.106.29 1.572-.407-1.688.058-.408-2.385-1.805-2.85.058.64 0 1.745-.233 2.326 0 0-.523-.523-1.047-.756.058.466-.059 1.396-.233 1.861 0 0-.582-.581-1.223-.756.583.815.583 2.036.408 2.734-.058.232.116.465.524.465.698-.058 3.027.058 4.016.465.291.116.582.29.699.523.116.291.349.756.698.99.175-.524.757-1.106 1.164-1.048.117 0 .233.233.291.407.059-.174.35-.697.64-.697.292 0 .583.407.7.756.057-.233.174-.466.29-.466.408 0 .932.35 1.106.989.175-.175.873-1.105.932-1.745H36.19v-.465z" fill="#13377D"/><path d="M37.703 44.488c0 .174.116.29.29.29.175 0 .29-.116.29-.29s-.115-.29-.29-.29c-.174 0-.29.116-.29.29zm-1.223 0c0 .174.117.29.291.29.175 0 .29-.116.29-.29s-.115-.29-.29-.29c-.174 0-.29.116-.29.29zm-24.098 1.279c-.117.116-.35.756-.233 1.163.058.175.117.233.291.233.175 0 .233-.116.291-.291.058-.407-.233-1.047-.35-1.105zm2.154 1.803c-.116.175-.29.233-.349.29a.665.665 0 00.407.175.445.445 0 00.292-.116c.174-.349 0-.64-.059-.756-.058.116-.116.29-.29.407zm-.815-.814c.233-.233.291-.407.233-.524-.058-.174-.582-.698-1.164-1.337 0 .116-.058.232-.058.349.407.581.582 1.163.465 1.686.059.058.059.058.117.058.116.117.29-.058.407-.232zm.815.058c0-.116 0-.174-.058-.233h-.058c-.059 0-.117.117-.175.175-.058.058-.116.174-.233.29l-.29.291c-.117.059-.175.175-.175.233v.058c.058.059.058.059.116.059s.233-.059.524-.35c.29-.29.35-.407.35-.523zm-3.842-3.083s-.058.059-.116.175c.116 0 .29 0 .407.058v-.407c-.117 0-.233.116-.291.174z" fill="#13377D"/><path d="M12.266 43.907s1.222 1.047 1.63 1.454c.116.116.232.116.349.058.058-.058.175-.058.29-.117 1.223-.407 3.202-.465 3.9-.465.466 0 .583-.233.525-.465-.117-.698-.175-1.92.407-2.733-.64.232-1.222.756-1.222.756-.233-.407-.291-1.396-.233-1.861-.582.174-1.048.756-1.048.756-.233-.582-.29-1.687-.233-2.326-1.397.465-.116 2.965-1.804 2.85.466.697 1.048.406 1.572.406.349 0 .814.233.756.814-.058.407-2.328.873-3.26.873-.64 0-1.105-.175-1.396-.64-.175-.233-.292-.29-.466-.29-.233.057-.466.232-.466.813 0 .35.175 1.163.582 1.163.233.059.233-.64.117-1.046zm-2.328-.35h.174c-.174.233-.174.408-.116.466.116.116.175-.117.466-.407.29-.291.465-.407.407-.524-.058-.058-.233-.058-.466.117 0-.059.059-.117 0-.175-.116-.29-.523-.64-.814-.64h-.117c.117-.174.058-.29 0-.407-.058-.058-.116 0-.233.117 0-.058 0-.175-.058-.291-.35-.582-2.328-2.443-2.794-2.617-.291-.116-.35.058-.35.058s-.174.117-.057.349c.174.465 2.095 2.384 2.619 2.733.116.059.233.117.291.059-.116.116-.175.116-.058.232.058.058.174.116.35 0v.116c.115.233.465.698.756.814zm1.396 1.396c0-.175-.349-.524-.814-.524-.64 0-.932.407-.932.64 0 .407.408.465.524.465.408 0 1.164-.465 1.222-.581zm-.581.989c-.175.233-.233.465-.175.64.058.232.291.349.524.349a.716.716 0 00.582-.291c.233-.407.233-1.28.175-1.338-.233 0-.815.233-1.106.64zM5.048 36.87c-.175-.175-.582.116-.815-.058.116-.582.524 0 .873-.35.175-.174.058-.406 0-.465-.175.175-.408.117-.466 0 .408-1.046-.407-2.151-1.222-2.035.175.233.233.989.116 1.163.291.233.117.756-.233.582-.232-.117-.64-.698-.174-1.047 0-.175-.291-.174-.524.174.175-.64-1.048-.465-1.28-.29-.117.29-.292 1.512.349 1.279-.35.29-.291.581-.175.581.407-.465.931-.116 1.048.117.174.349-.35.581-.582.29-.175.059-.932.059-1.106-.116-.117.815 1.047 1.687 2.037 1.221.116 0 .175.291 0 .466.058.116.35.174.466 0 .407-.407-.175-.814.349-.93.116.232-.116.639.058.813.291.291.64-.29 1.048-.29 0-.465.524-.815.233-1.105zM2.02 35.532s-.175-.116.058-.407c.233-.233.35-.058.35-.058s.232.465.29.698c-.232 0-.698-.233-.698-.233zm1.863 1.454c-.117 0-.408.29-.524.116l-.64-.64.349-.348.349-.35.64.64c.058.175-.174.466-.174.582zm1.34 1.047c-.058 0-.117 0-.175.058-.058.058-.058.175-.058.29 0 .117.116.233.233.35.058.174.233.232.35.232.057 0 .115 0 .174-.058.116-.116.058-.465-.117-.64-.116-.116-.29-.232-.407-.232z" fill="#13377D"/><path d="M3.36 36.114l-.175.174-.175.175s.35.465.64.29c.175-.29-.29-.64-.29-.64zm33.994-1.744c0 .116-.465.348-.815-.291a3.516 3.516 0 01-.931-.291c.407.814.757 1.512 1.339 1.86.873.524 2.212.408 2.62-.174-.758-.407-1.63-1.454-2.096-2.442-.117.232-.291.64-.408.93.058.116.175.29.291.407zm8.091-12.736c.931-.407 2.27-1.338 2.91-1.92.058.117.291.64-.407 1.222-.524.407-1.572.93-2.329 1.221-.349.523-1.047 1.105-1.979 1.745 1.863-.291 4.075-1.047 5.18-2.094 2.038-2.035.99-4.478.7-5.06-1.34 1.687-3.9 3.432-6.287 4.362.815.117 1.63.291 2.212.524zm-1.514-3.722c1.223-.989 2.503-2.966 2.736-3.664.291.174.407.756.058 1.396-.64 1.105-1.804 2.093-2.794 2.907-.058.698-.349 1.57-.698 2.21 1.455-.988 3.143-2.442 3.9-3.43.99-1.28 1.397-2.56 1.222-3.839.058-1.454-.99-2.908-1.397-3.257-.291 1.57-1.863 4.246-3.26 5.758.117.523.233 1.279.233 1.919zM43 27.1c.291.349.582.756.815 1.105 1.106.232 2.445.174 2.445.174s-.058.582-.815.64c-.35 0-1.397-.174-1.805-.29-.174.057-.99.29-1.804.406 1.164.407 2.852.814 3.9.814h.29c1.689-.174 2.562-1.744 2.62-2.617-.524.117-1.397.175-2.27.175-.815 0-2.27-.058-3.376-.407zm7.044-4.42c-1.514.814-4.191 1.628-6.345 1.628.524.35 1.048.698 1.397 1.047.873-.058 2.095-.349 2.794-.582 0 .117 0 .698-.815.93-.582.175-1.397.175-2.037.175-.524.35-1.28.64-1.921.873a21.3 21.3 0 001.979.116c1.106 0 2.154-.116 2.794-.349.582-.174 2.503-.989 2.154-3.838zm-8.15 8.026c.64.29 1.339.523 1.92.581 0 0-.116.582-.989.465-.524-.058-1.106-.465-1.222-.523-.408.058-1.223.058-1.514 0 .99.698 2.503 1.512 3.784 1.628h.175c1.338 0 2.386-1.337 2.677-1.977-1.339 0-3.667-.581-5.064-1.337.058.232.175.697.233 1.163zm-2.328 1.802c.349.408.93.64.93.64s-.174.29-.523.29c-.116 0-.233-.057-.35-.115-.232-.117-.581-.524-.581-.524-.466-.058-.873-.116-1.28-.232.698.872 1.862 1.977 3.142 2.268.175.058.35.058.582.058 1.106 0 2.038-.814 2.27-1.338-1.28-.174-3.143-1.163-4.074-2.093 0 .349-.058.756-.116 1.046zm-8.324 14.248c.64 0 1.048-.233 1.339-.872-.873.407-1.805.174-3.55-.35 0 0-.641.292-1.049.35 1.048.29 2.562.814 2.794 1.396.117.465-.174.581-.174.581-.582-.698-1.28-1.105-2.794-1.57 0 .29-.058.465-.058.465s-.291.058-.99-.058c.582.465 1.98 1.686 2.154 2.966.116.872-.524.93-.524.93-.058-1.337-.64-2.151-1.921-3.489 0 0-.233.29-.466.465 0 0-.465-.058-.815-.349.175 1.745.233 5.932.117 6.572-.058.465-.35.698-.35.698s-.29-.175-.349-.698c-.116-.698 0-4.885.117-6.572a4.153 4.153 0 01-.815.35c-.291-.175-.466-.466-.466-.466-1.222 1.338-1.804 2.21-1.92 3.49 0 0-.583-.059-.525-.931.175-1.28 1.572-2.5 2.154-2.966-.64.116-.99.058-.99.058s-.058-.174-.058-.465c-1.513.465-2.153.872-2.794 1.57 0 0-.29-.058-.174-.581.232-.582 1.746-1.047 2.794-1.396-.35-.058-1.048-.35-1.048-.35-1.688.524-2.678.757-3.55.35.232.64.698.872 1.338.872-.815.29-1.572 1.105-1.805 1.92.583 2.151 2.445 2.79 2.445 2.79-.465-1.046-.29-3.082 2.503-4.477-1.688 1.686-2.386 3.256-1.92 4.71.407 1.338 1.804 1.861 2.793 1.92-.698-2.21-.407-4.246 1.106-5.816-.64 1.745-1.571 7.153 1.048 8.025 2.62-.872 1.688-6.28 1.048-8.025 1.513 1.628 1.804 3.605 1.106 5.815 1.048 0 2.386-.581 2.794-1.919.466-1.454-.175-3.024-1.921-4.71 2.794 1.395 2.968 3.489 2.503 4.478 0 0 1.863-.64 2.445-2.792 0-.814-.815-1.57-1.572-1.919zM13.197 35.649c.582-.35.932-1.047 1.339-1.861a3.513 3.513 0 01-.931.29c-.35.64-.815.408-.815.291a1.77 1.77 0 00.29-.407c-.116-.29-.29-.698-.407-.93-.465 1.047-1.397 2.035-2.095 2.442.407.582 1.746.698 2.62.175zM6.445 23.901c-.99-.64-1.63-1.22-1.979-1.744-.815-.291-1.862-.814-2.328-1.221-.699-.582-.466-1.105-.408-1.222.582.64 1.921 1.512 2.91 1.92.583-.233 1.398-.408 2.213-.524-2.387-.872-4.948-2.675-6.287-4.303-.29.523-1.397 3.024.699 5.059 1.047.989 3.318 1.745 5.18 2.035zm.408-3.198c-.35-.64-.64-1.454-.699-2.21-.99-.756-2.095-1.744-2.794-2.907-.349-.64-.233-1.222.059-1.396.232.698 1.513 2.675 2.735 3.664 0-.64.117-1.396.291-1.92-1.397-1.511-3.026-4.187-3.26-5.757-.407.35-1.455 1.803-1.396 3.257-.175 1.28.233 2.559 1.222 3.838.699.989 2.387 2.5 3.842 3.431zm-.583 7.502c.175-.35.525-.756.816-1.105-1.106.29-2.562.349-3.318.349-.932 0-1.805-.058-2.27-.175.058.93.93 2.5 2.619 2.617h.291c1.048 0 2.736-.407 3.9-.814-.815-.116-1.63-.29-1.805-.407-.465.233-1.513.407-1.862.349-.757-.058-.815-.64-.815-.64s1.339.058 2.445-.174zm-4.074-1.629c.64.233 1.63.35 2.794.35.698 0 1.397-.059 1.979-.117-.64-.233-1.397-.523-1.921-.872-.64 0-1.514-.058-2.037-.175-.815-.232-.815-.814-.815-.93.698.29 1.92.581 2.794.581.349-.29.815-.698 1.397-1.046-2.096 0-4.832-.815-6.345-1.629-.35 2.792 1.572 3.606 2.154 3.838zM6.095 32.8h.175c1.28-.117 2.794-.931 3.784-1.63-.292.06-1.165.06-1.514 0-.116.117-.757.466-1.222.524-.932.117-.99-.465-.99-.465.582-.058 1.28-.29 1.921-.581.058-.466.175-.931.291-1.222-1.455.814-3.783 1.396-5.122 1.396.29.64 1.339 1.977 2.677 1.977zm2.504 2.093c.174 0 .407 0 .582-.058 1.222-.291 2.445-1.396 3.143-2.268-.408.116-.815.232-1.28.232 0 0-.292.35-.583.524-.116.058-.233.116-.349.116-.35 0-.524-.29-.524-.29s.582-.292.932-.64a5.758 5.758 0 01-.117-1.047c-.99.988-2.794 1.919-4.075 2.093.233.524 1.106 1.338 2.27 1.338zM24.548 3.082c0 .29.233.465.466.465a.5.5 0 00.465-.465.459.459 0 00-.465-.465c-.233-.058-.466.174-.466.465zm.175-1.047h.64l-.058-.814.698.117v-.64l-.698.058.058-.756h-.64l.058.756-.699-.058v.64l.699-.117-.058.814zm-2.271 7.677c.058 0 .175.058.233.058h4.657c.116 0 .174 0 .233-.058.174-.058.232-.174.29-.349h-5.704c.058.233.175.291.291.35zm5.123-.698c.058 0 .058-.058.058-.058v-.35c0-.057-.058-.057-.058-.057H22.51c-.058 0-.058.058-.058.058v.349c0 .058.058.058.058.058h5.064zm.523-.872c.117-.175.757-1.396.757-2.675 0-1.163-1.455-1.803-2.27-1.803-.117 1.628-.757 4.187-1.572 4.187-.756 0-1.455-2.559-1.571-4.187-.873 0-2.27.64-2.27 1.803 0 1.28.64 2.559.756 2.675h6.17z" fill="#13377D"/><path d="M25.014 7.037c.407 0 .873-1.221 1.048-2.442 0-.233-.408-.582-1.048-.64-.64 0-1.048.349-1.048.64.175 1.104.699 2.442 1.048 2.442zm7.392 19.074c0-.174-.117-.29-.291-.29H17.97c-.174 0-.29.116-.29.29v9.828s0 .524.232 1.105c.29.698 1.513 1.861 3.027 2.675 2.154 1.105 3.434 1.978 4.074 2.501.64-.523 1.921-1.396 4.075-2.5 1.572-.815 2.736-1.978 3.027-2.676.29-.64.233-1.105.233-1.105l.058-9.828zm-4.773 3.548v.058c.174.698.349 1.454.407 2.152.582.465 1.106.93 1.572 1.395.873-.988 1.339-1.919 1.339-2.675a.77.77 0 01-.757-.756.84.84 0 01.116-.407c-.407-.174-.873-.232-1.28-.232-.35 0-.699.058-1.106.116h-.058l-.117.058.058-.058c.059-.116.059-.175.117-.291 1.164-.233 2.095-.116 2.677.233.117-.058.233-.117.35-.117a.77.77 0 01.756.756.714.714 0 01-.407.64c0 .814-.466 1.86-1.455 3.024l.174.175.117.116v.058l-.175.174h-.116c-.059-.058-.059-.058-.059-.116-.058-.058-.058-.116-.116-.174l-.35.349-.116.174c-.174.116-.349.175-.465.116h-.059l.059-.058c.29-.233.523-.523.756-.698-.349-.407-.815-.814-1.28-1.22.058.406.058.813.058 1.22 0 .35 0 .756-.058 1.163-.058.059-.175.117-.233.175l-.058.058v-.058c.058-.465.058-.93.058-1.338v-.523c0-.29-.058-1.105-.116-1.628-.059-.466-.175-.93-.291-1.396v-.058l.174-.175-.116-.232zm-4.773-1.047c.582-1.396 1.397-2.152 2.212-2.152.815 0 1.63.756 2.211 2.152v.058h-.058c-.058 0-.116.058-.233.116h-.058v-.058c-.524-1.221-1.222-1.919-1.92-1.919-.7 0-1.398.698-1.921 1.92v.057h-.059c-.058-.116-.174-.116-.174-.174zm-.233.349c.174.116.698.407 1.28.233.524-.175 1.106-.175 1.106-.175s.64 0 1.106.175c.582.174 1.106-.117 1.28-.233.06 0 .06 0 .06.058-.06.233-.234.814-1.107 1.047-.815.174-1.222 1.105-1.339 1.512 0 .058-.058.058-.116 0-.116-.407-.524-1.338-1.339-1.512-.873-.175-1.048-.814-1.106-1.047.117-.058.175-.058.175-.058zm1.397 2.326c.116 0 .29-.058.407-.116.058.116.117.29.175.407a.984.984 0 01-.582.174c-.64 0-1.106-.523-1.106-1.105 0-.174.058-.29.116-.407.117.058.233.117.408.175-.058.058-.058.174-.058.232-.059.35.29.64.64.64zm-.291-.698v-.116c.174.058.349.233.465.349-.058.058-.116.058-.174.058-.175 0-.291-.116-.291-.29zm.29 1.512c.234 0 .525-.058.758-.232.058.058.174.29.232.29.117 0 .175-.232.233-.29.233.116.524.232.757.232.407 0 .757-.174 1.048-.407v.058c.116.466.174 1.047.116 1.28 0 .232-.116.465-.175.698-.116.29-.174.523-.174.523s0 .058-.058.174c-.059.233-.233.64-.466 1.047-.466-.29-.931-.407-1.514-.407-.523 0-.99.116-1.396.349-.175-.407-.35-.756-.408-.93-.058-.117-.058-.175-.058-.175s-.117-.233-.233-.581a2.09 2.09 0 01-.116-.64c0-.175-.059-.756.116-1.28 0-.058.058-.116.058-.174.408.233.873.465 1.28.465zm2.038-.814c.408 0 .699-.29.699-.698 0-.116 0-.174-.059-.232.117-.059.291-.117.408-.175.058.116.116.29.116.407 0 .64-.524 1.105-1.106 1.105a.983.983 0 01-.582-.174 2.82 2.82 0 00.175-.407c.058.116.233.174.35.174zm-.174-.465a.904.904 0 01.465-.35v.117c0 .175-.116.29-.29.29-.06 0-.117 0-.175-.057zm-6.753-1.628c.175 0 .291.058.408.116.407-.233.873-.35 1.513-.35.35 0 .699.059 1.106.117h.058c0 .058.058.175.117.29l.058.06-.116-.06h-.117c-.35-.057-.698-.115-1.048-.115-.407 0-.931.058-1.28.29.058.117.116.233.116.407a.77.77 0 01-.757.756c0 .698.466 1.629 1.34 2.676.465-.466.989-.99 1.57-1.396.06-.698.234-1.454.408-2.152v-.058l.059.058.174.175.058.058v.058c-.116.465-.232.872-.29 1.338v.058a7.998 7.998 0 00-.117 1.279c0 .349-.058.64-.058.872 0 .35 0 .698.058 1.163v.059h-.058c-.117-.059-.175-.059-.233-.059h-.058v-.058c0-.29-.059-.698-.059-1.105 0-.407 0-.814.059-1.22-.466.406-.932.813-1.28 1.22.29.35.698.698 1.163 1.105l.058.058h-.058a.497.497 0 01-.407 0c-.35-.349-.64-.581-.931-.872-.059.058-.117.116-.117.174l-.058.059c-.058 0-.117.058-.233.116l-.058-.058s-.058 0-.058-.058h-.059v-.059c.117-.174.233-.29.35-.407-.99-1.104-1.456-2.151-1.456-2.965a.715.715 0 01-.407-.64c-.116-.582.233-.93.64-.93zm8.266 9.013c-.408 1.163-.99 1.978-1.63 2.326-.058.35-.35.64-.698.64-.35 0-.64-.29-.699-.64-.64-.348-1.222-1.104-1.63-2.267v-.059l.35-.116v.058c.349.989.814 1.687 1.338 2.036.117-.291.35-.524.699-.524s.582.233.698.465c.524-.348.99-1.046 1.339-1.977v-.058h.058c0 .058.058.058.175.116zm-2.969-.058c0-.232.058-.872.175-1.105.116-.058.29-.116.466-.116a.94.94 0 01.524.174c.058.233.174.815.174 1.047 0 .233-.582.407-.64.465-.175-.058-.699-.174-.699-.465zm7.451-2.326c-.058.058-.117.116-.175.116-.058 0-.116.059-.233.059h-.058c-.116 0-.233 0-.29-.059-.059 0-.059-.058-.117-.058-.175 0-.582.117-.699.175.059 0 .582.058.932.349.174.116.523.174.64.174 0 .058-.582.465-1.688.233l-.291-.058a6.718 6.718 0 00-1.514-.175c.059 0 .117.058.117.058.116.058.29.117.407.175 0 0 .058 0 .058.058h.059c.058 0 .116 0 .116.058.058 0 .116.058.175.058.058.058.174.116.174.175 0 .058.059.058.059.116 0 .116 0 .174-.059.29-.174.233-.407.233-.64 0l-.058-.057c-.058-.059-.117-.117-.175-.233v-.058h-.058c-.116-.058-.175-.175-.291-.175-.175-.058-.407-.116-.582-.174h-.175c.175.116.35.232.408.349v.058c.116.174.116.349.174.523.175.35.233.407.408.524-.175.058-1.048.058-1.455-.582 0 0-.059-.058-.059-.116-.116-.233-.174-.465-.232-.64-.059-.174.058-.349-.059-.407-.116-.058-.174 0-.174 0l-.058.058v.058c0 .059-.059.059-.059.059v.058s0 .058-.058.058h-.233s-.058 0-.058.058c-.058 0-.116.058-.174.058a.125.125 0 01-.117-.116v-.116h-.116c-.058 0-.058 0-.117-.059v-.174c-.058.058-.058.058-.116.058h-.117c-.058 0-.058-.058-.058-.116v-.117h-.116c-.058 0-.175-.058-.233-.058h-.058c-.058 0-.175.058-.233.058h-.116v-.116l.058-.058v-.058h-.117v.058h-.058v.116c0 .058 0 .117-.058.117-.058.058-.058.058-.117 0 0 0-.058 0-.058-.059 0 0-.058 0-.058-.058 0 0 0 .058.058.058v.117c-.058.058-.058.058-.116.058h-.117c0 .058.059.058 0 .116 0 .058-.058.058-.116.058h-.233l-.058-.058h-.116s-.059 0-.059-.058l-.058-.058v-.058c-.116-.117-.291.29-.291.29-.524 1.105-1.804 1.338-1.804 1.28 0 0 .29-.116.407-.523.058-.233.058-.291.175-.524 0-.058.058-.058.058-.116.058-.116.233-.175.35-.29h-.175c-.175.057-.35.057-.583.174-.116.058-.174.116-.29.174h-.059v.058c0 .058-.058.116-.116.233l-.058.058c-.233.233-.408.233-.64 0l-.059-.058a.177.177 0 010-.233c0-.058.058-.116.116-.174.059-.058.117-.058.175-.117.058-.058.117-.058.175-.058.058 0 .058 0 .116-.058h.117s0-.058.058-.058.116-.058.174-.058c.059 0 .117-.059.175-.059 0 0 .058 0 .116-.058-.465 0-.931.059-1.455.175-.058 0-.174.058-.29.058-.583.116-1.689-.175-1.689-.233 0-.058.291-.058.582-.232.233-.116.35-.233.524-.291.291.233.64.233.699.233-.117-.058-.64-.117-.815-.175 0 0-.059.058-.117.058-.116.059-.233.059-.349.059-.058 0-.175 0-.233-.059-.058 0-.116-.058-.174-.116-.059-.058-.059-.116-.059-.29.059-.233.291-.35.582-.291.175.058.291.116.35.174l.058.058c.174 0 .407.116.64.175.233.116.408.174.524.174-.058 0-.116-.058-.175-.058-.058 0-.116-.058-.116-.058-.058-.058-.116-.058-.175-.117-.349-.174-.698-.349-.931-.581-.175-.233-.233-.35-.291-.582-.058-.523-.291-.756-.291-.814.058-.058.873.35 1.164.64.175.233.233.407.291.581v.059c.058.174.233.349.524.523.058 0 .058.058.116.058-.058-.116-.116-.174-.174-.29v-.059l-.058-.058s-.059-.058-.059-.116c-.058-.058-.058-.117-.116-.175-.058-.174-.058-.349 0-.407.058-.058.116-.116.233-.174.233-.059.407.058.466.407v.465c.116.349.407.64.756.872-.407-.349-.64-1.163-.582-1.163.058-.058.408.175.757.35.174.057.349.174.524.29.116.058.232.174.29.233.117.058.175.174.234.232l.174.175.117.116c.116.058.29 0 .29 0 .059 0 .117 0 .175-.058l.059-.058c.058-.058.116-.058.174-.058v-.059c0-.116.058-.174.175-.232 0 0 .058 0 .058-.058h.175c0-.059.058-.059.116-.117a.359.359 0 01.407.058c.059.059.059.117.117.175v.291h.349c.058 0 .117 0 .175.058.058 0 .116-.058.174-.058h.176v-.175c0-.058 0-.116.058-.174 0 0 0-.058.059-.058l.058-.059a.371.371 0 01.349 0c.058 0 .058.059.116.117h.233c.117.058.175.116.175.232h.116s.291 0 .35.059h.29l.117-.117.233-.232c.116-.059.174-.175.29-.233.175-.116.408-.174.583-.233.582-.232.64-.581.698-.581.058.058-.116.988-.524 1.337.291-.232.582-.523.757-.872v-.465c.117-.291.233-.465.466-.407a.802.802 0 01.233.174c.058.117.058.233 0 .407 0 .058-.058.117-.117.175l-.116.116-.058.058v.058c-.059.117-.117.175-.233.291l.116-.116c.291-.233.466-.407.524-.582a1.8 1.8 0 01.291-.581c.291-.291.35-.407.64-.582.059-.058.466-.116.524-.116.058.058-.29.174-.407.756-.058.174-.117.465-.291.698-.233.29-.466.349-.757.523l-.058.058c-.058.058-.116.058-.233.117-.116.058-.175.116-.233.116.175-.058.35-.116.582-.175.175-.116.408-.174.64-.174 0 0 0-.058.059-.058.058-.058.174-.116.35-.175.29-.116.523 0 .581.291.058.175 0 .29-.058.349z" fill="#13377D"/><path d="M42.069 24.134c.873-.407 2.328-1.396 2.91-2.093-.815-.291-2.444-.466-3.376-.466 1.921-1.337 1.98-4.129 1.455-6.164-.465 1.628-1.63 2.966-2.386 3.78.058.814-.175 2.21-.64 3.024.64.233 1.397.581 1.92.988-.349.466-1.105 1.105-1.571 1.512a18.709 18.709 0 011.397 1.629c-.466.349-1.397.698-1.921.872.233.523.582 1.396.699 2.036-.583.116-1.34.174-2.154.174.058.582-.059 1.512-.175 2.094-.757-.059-1.63-.35-2.037-.582-.233.814-.757 1.628-.757 1.686-.698-.814-1.397-1.104-2.037-1.104v-.524c.64 0 1.339.233 1.862.756.233-.407.466-1.163.582-1.628.466.232 1.223.523 1.863.64.058-.582.117-1.338.058-1.92.64.059 1.34.059 2.096-.058-.117-.523-.582-1.395-.873-1.86a9.502 9.502 0 001.862-.757 16.548 16.548 0 00-1.338-1.512c.465-.349 1.222-.93 1.513-1.279a10.591 10.591 0 00-1.804-.93c.815-1.105.99-3.373.815-4.42-.699 2.384-2.794 4.129-4.075 4.943-.058.058-.117.116-.175.116-.058.058-.29.35-.174.698 0 .116.058.174.058.29.116.466.116 1.164-.582 1.804a2.123 2.123 0 01-1.688.523v-1.28c0-.174-.117-.29-.291-.29h-.873l-.408-.407h.873c.466-.058.99-.291.99-.291s-.524 0-.757-.058c-.29.058-.931-.233-1.455-.814-.175-.233-.35-.466-.466-.698-.465-.407-.99-.93-1.338-1.687-.233-.523-.35-1.28-.408-1.744-.175.116-.35.349-.582.64-.408.523-.582 1.279-.582 1.279l-.175.581-.29-.523s-.408-.698-.466-1.57c0-.407 0-.756.058-1.047-.117.058-.291.175-.466.29-.699.524-1.106 1.048-1.106 1.048-.35.465-.582.872-.64 1.046-.058-.232-.291-.581-.64-1.046 0 0-.35-.582-1.107-1.047a5.338 5.338 0 00-.465-.29c.058.29.058.697.058 1.046-.058.872-.466 1.512-.466 1.57l-.29.465-.175-.581s-.233-.756-.582-1.28c-.233-.29-.408-.523-.582-.64-.059.466-.175 1.28-.408 1.745-.35.756-.815 1.338-1.339 1.687-.116.232-.29.465-.465.697-.524.582-1.165.873-1.456.931-.233.058-.756.058-.756.058s.523.233.99.29c.465.059.872 0 .872 0l-.407.408h-.873c-.175 0-.291.116-.291.29v1.28c-.408.058-1.165 0-1.688-.523-.64-.64-.699-1.338-.582-1.803.058-.058.058-.175.058-.29.116-.35-.117-.64-.175-.699-.058-.058-.116-.116-.174-.116-1.281-.814-3.318-2.559-4.075-4.943-.175 1.047.058 3.257.815 4.42-.582.232-1.339.581-1.805.93.291.35 1.048.989 1.514 1.28-.408.348-1.048 1.046-1.339 1.511a9.51 9.51 0 001.863.757c-.291.465-.757 1.337-.873 1.86a8.504 8.504 0 002.095.059c-.058.581 0 1.395.058 1.919.64-.117 1.397-.35 1.863-.64.116.407.35 1.221.582 1.628a2.644 2.644 0 011.863-.756v.524c-.64 0-1.34.29-2.038 1.105 0-.059-.523-.873-.756-1.687-.408.175-1.28.524-2.038.582-.116-.582-.174-1.512-.174-2.094-.815 0-1.572-.058-2.154-.174.117-.64.466-1.512.699-2.036-.524-.174-1.456-.581-1.921-.872.29-.465.99-1.221 1.397-1.628-.466-.35-1.223-1.047-1.572-1.512.524-.407 1.28-.756 1.92-.989-.465-.872-.698-2.268-.64-3.024-.814-.814-1.978-2.152-2.386-3.78-.582 2.035-.466 4.885 1.455 6.164-.931 0-2.56.233-3.376.466.582.697 2.038 1.628 2.91 2.093-.698.233-1.92.93-2.444 1.396.64.407 2.095.872 2.794 1.047-.408.349-1.222 1.279-1.514 1.744.583.175 1.747.35 2.503.35-.232.523-.523 1.395-.582 1.918.35.058 1.572 0 2.212-.174-.058.523-.058 1.396.059 1.803.582-.059 1.455-.35 1.862-.466.117.466.524 1.396.699 1.629.29-.059.582-.117.873-.233.815-.29 1.688.058 2.037.814.582 1.338.35 2.908-.757 2.617-1.28.233-.407 1.861-1.164 2.384.99.698 1.28-.93 2.561-.64-.116.582-.116 1.687 0 2.152.408-.29.99-.523 1.34-.581-.117.349-.175 1.163-.059 1.686.233-.174 1.92-.64 1.92-.64s-.64 1.28-.232 2.56c.233.174 1.746-.582 1.746-.99.058.524-.582 1.687-1.571 1.92 1.047 1.047 1.979.989 2.095.989.175 0 .291 0 .408-.117-.059.29-.117.698-.059.93h.175c.291 0 .524-.057.698-.116.059.291.175.582.35.815l.116.116c.233 0 .815-.29.932-.465.116.174.698.465.93.465.06-.058.117-.058.117-.116.233-.233.35-.582.35-.815.232.117.465.117.698.117h.175c.058-.233.058-.64-.058-.93.116.057.29.116.407.116.116 0 1.048.058 2.096-.99-.99-.232-1.63-1.395-1.572-1.918 0 .465 1.513 1.163 1.746.988.408-1.279-.233-2.558-.233-2.558s1.63.407 1.921.64c.117-.524.058-1.338-.058-1.687.35 0 .931.29 1.339.581.116-.465.116-1.512 0-2.151 1.222-.291 1.513 1.337 2.56.64-.698-.524.175-2.152-1.163-2.385-1.106.349-1.34-1.28-.757-2.617.35-.756 1.28-1.105 2.037-.814.291.116.582.174.873.233.117-.233.583-1.163.699-1.629.407.175 1.28.407 1.863.466.058-.408.116-1.28.058-1.803.582.116 1.862.174 2.212.174-.058-.581-.35-1.454-.582-1.919.756-.058 1.92-.174 2.503-.349-.291-.523-1.106-1.454-1.514-1.744.699-.175 2.154-.64 2.794-1.047-.407-.524-1.63-1.221-2.328-1.454zm-9.43 13.085c-.058.116-.116.174-.175.29 0 .059-.058.059-.058.117a.805.805 0 00-.174.232l-.117.117c-.058.116-.174.174-.233.29a286.923 286.923 0 01-.582.582l-.116.116a2.585 2.585 0 01-.64.465 5.033 5.033 0 01-.932.582l-.349.175c-2.62 1.337-3.9 2.384-4.307 2.675h-.059c-.407-.35-1.688-1.338-4.307-2.675l-.35-.175a5.04 5.04 0 01-.93-.581c-.233-.175-.408-.35-.641-.466-.058-.058-.116-.058-.116-.116-.059-.058-.175-.116-.233-.233l-.175-.174-.174-.175c-.117-.116-.175-.174-.233-.29l-.117-.117c-.058-.058-.116-.116-.174-.232 0-.058-.059-.058-.059-.117-.058-.116-.116-.174-.174-.29-.35-.756-.291-1.396-.291-1.396V25.646c0-.175.116-.29.29-.29h15.369c.174 0 .29.115.29.29v10.177c.06 0 .117.64-.232 1.396zM32.29 9.305c.233 0 .349-.175.349-.407 0-.233-.175-.407-.35-.407-.232 0-.348.174-.348.407 0 .232.174.407.349.407zm0 2.151c.232 0 .465-.989.465-1.454a.459.459 0 00-.465-.465.459.459 0 00-.466.465c0 .465.233 1.454.466 1.454zm-.233-3.546h.524l-.117-.64.64.058v-.524l-.64.117.117-.64h-.524l.058.64-.64-.117v.524l.64-.058-.058.64z" fill="#13377D"/><path d="M30.02 12.62c.174.058.349.058.523.116h.757c.466 0 .931-.117 1.397-.233.466-.116.931-.233 1.455-.233h.35c.116-.523.29-1.104.29-1.453 0-.698-.407-1.454-1.746-1.687 0 .872-.407 2.908-.873 2.908h-.058c-.466 0-.873-2.036-.873-2.908-1.339.233-1.746.989-1.746 1.687 0 .407.174 1.163.349 1.686.175.058.175.058.175.116zm6.985-3.664s-.35-.93.232-1.22c.64-.234-.233-.117.233-1.397.524-1.512 1.688-1.163 1.688-1.163-.815-.64-1.455-.581-1.92-.232-.292.232-.7.697-.99 1.628-.233 1.163.174 2.268.757 2.384z" fill="#13377D"/><path d="M40.031 6.688c.058 1.92 3.26 2.733 3.26 2.733s-1.863-1.337-1.513-2.326c0 0 1.222.523 2.619.29-2.969-.639-1.98-1.57-2.736-2.325-.757-.814-1.92-.873-2.212-.93-.757-.059-.815-.059-1.688.174 2.037.058 2.27 1.105 2.27 2.384zm-.407 3.606c.407-1.512-.35-2.21-.35-2.21-.232-.291-1.455-.233-1.92.058 0 0 1.164 0 .99 1.686-.175 1.687-2.504 2.036-3.144 2.094l-.058.232c1.106 0 4.016-.348 4.482-1.86zm-12.165-.059h-1.164c.582 1.629 2.27 2.152 3.376 2.327l-.058-.175c-1.165-.465-1.747-.93-2.154-2.152zm-9.663-.93c.232 0 .349-.175.349-.407 0-.233-.175-.407-.35-.407-.232 0-.349.174-.349.407-.058.232.117.407.35.407zm0 2.152c.233 0 .466-.989.466-1.454a.459.459 0 00-.466-.465.459.459 0 00-.466.465c0 .465.175 1.454.466 1.454zm-.292-3.547h.524l-.058-.64.64.058v-.524l-.64.117.058-.64h-.524l.117.64-.64-.117v.524l.64-.058-.117.64z" fill="#13377D"/><path d="M15.467 12.27h.349c.524.059 1.048.117 1.456.233.407.116.931.233 1.397.233h.756c.175 0 .35-.059.524-.117 0-.058 0-.058.058-.058.175-.523.35-1.28.35-1.686 0-.698-.35-1.454-1.747-1.687 0 .814-.407 2.908-.873 2.908h-.058c-.466 0-.873-2.036-.873-2.908-1.339.233-1.746.989-1.746 1.687 0 .349.116.93.29 1.454.059-.059.059-.059.117-.059zm-4.598-7.094s1.164-.35 1.688 1.163c.466 1.28-.407 1.163.233 1.395.64.233.233 1.222.233 1.222.64-.117 1.047-1.222.698-2.443-.29-.93-.698-1.396-.99-1.628-.465-.29-1.047-.349-1.862.29z" fill="#13377D"/><path d="M8.25 7.095c.349.989-1.514 2.326-1.514 2.326s3.26-.814 3.26-2.733c.058-1.28.232-2.326 2.211-2.384-.873-.175-.93-.175-1.688-.175-.29 0-1.455.116-2.212.93-.698.757.233 1.687-2.735 2.327a5.35 5.35 0 002.677-.291zm3.492 2.733c-.175-1.687.99-1.687.99-1.687-.408-.29-1.63-.29-1.921-.058 0 0-.757.64-.35 2.21.408 1.512 3.377 1.861 4.482 1.861l-.058-.232c-.64-.059-2.968-.408-3.143-2.094zm12.049.407h-1.164c-.407 1.222-.99 1.687-2.154 2.152l-.058.175c1.164-.175 2.794-.698 3.376-2.327zm2.736 7.153a9.273 9.273 0 00-.873 1.687c.174-.233.465-.466.756-.698.524-.35.99-.582.99-.582l.466-.174-.117.465s-.174.756-.116 1.396c0 .29.116.581.175.756.116-.291.29-.582.465-.873.582-.756 1.048-1.046 1.048-1.046l.35-.175v.407s.116 1.338.407 2.036c.524 1.163 1.513 1.802 2.095 2.093l-.29-.29c-.292-.291-.583-.815-.758-1.92-.116-.93.233-1.86.35-2.151.058.232.174.465.29.523 0 0 0-.233.059-.465.116-.64.815-1.628 1.746-2.21.175-.116.35-.233.466-.29.175-.059.29-.175.407-.292-.174 0-.407.058-.582.058h-.581c-.466 0-.99-.058-1.397-.407-.407-.349-.582-.697-.64-.93h-.699c-.349 0-.64-.116-.815-.116-.465.29-.93.407-1.513.465h-.233c.175.174.408.29.582.407h.058l-.116.058c.058-.058-.757.407-1.98 2.268zm7.625-3.256h-.64v.348a.934.934 0 00.233.408c.174-.117.349-.408.407-.756z" fill="#13377D"/><path d="M34.618 12.794c-.058 0-.058 0 0 0h-.233c-.465 0-.931.116-1.397.233-.465.116-.99.232-1.455.232h-.815a5.912 5.912 0 01-2.095-.64c.058.117.174.233.349.408l.174.174c.117.117.291.233.466.35.233.115 1.223.522 2.503.348 1.455-.233 1.746-.174 2.096-.174h.116c.524.058 1.28.348 1.572.523.116-.29.29-.582.349-.872-.058-.058-.175-.175-.408-.291-.058-.058-.116-.058-.232-.117a1.164 1.164 0 00-.524-.116c-.233-.058-.35-.058-.466-.058zm4.074 4.769c-.058 0-.582.29-1.688-.408-1.106-.697-1.92-.988-2.386-1.105-.117.059-.175.117-.291.175a5.354 5.354 0 00-.466.29c-.058.059-.116.059-.175.117h.117c1.047.116 1.862.698 1.92.93h.059c.116-.348-.058-.64-.058-.64s.465.292 1.397.815c.99.64 1.397.058 1.571-.174zm-5.529-2.85c-.058-.058-.116-.174-.174-.233-.059-.116-.059-.174-.059-.232-.232 0-.523.058-.873.116h-.233c.175.35.466.698 1.048.814h.233c.233.058.524.058.699.058.407 0 .873-.058 1.338-.174.117-.116.175-.29.291-.407 0 0-.058-.058-.116-.058-.117-.058-.407-.233-.582-.291a1.267 1.267 0 01-.291.465 1.174 1.174 0 01-.64.175c-.233 0-.466-.059-.583-.175-.058 0-.058-.058-.058-.058zm3.085-.873c-.35.931-.932 1.63-1.34 1.978 2.62-.698 3.086.64 3.086.698 0 .058 0 .058.058 0s.932-.989.291-1.861c-.524-.698-1.688-.814-2.095-.814zm0 .699c.116-.117.174-.35.174-.35.175 0 .524.059.524.291-.233-.058-.524-.058-.698.059zm-19.675-.059v-.348h-.64c.058.348.233.64.408.756a.938.938 0 00.232-.408zm2.969-1.279c-.058 0-.058 0 0 0h-.814c-.525 0-.99-.116-1.456-.233-.524-.058-.99-.174-1.455-.174h-.465a1.17 1.17 0 00-.525.116c-.058.058-.174.058-.233.117-.174.116-.29.174-.407.29.058.291.233.64.35.873.29-.175 1.047-.524 1.57-.524h.117c.35 0 .64-.058 2.096.175 1.28.174 2.212-.233 2.503-.35.174-.115.349-.232.465-.348l.175-.175c.116-.174.233-.29.35-.407-.524.175-1.223.524-2.27.64zm-8.149 4.362c.174.174.582.814 1.513.29.931-.523 1.397-.814 1.397-.814s-.174.291-.058.64h.058c.117-.233.932-.872 1.921-.93h.116c-.058-.059-.116-.059-.174-.117a5.383 5.383 0 00-.466-.29c-.116-.059-.174-.117-.29-.175-.466.058-1.281.407-2.387 1.105-1.048.582-1.572.29-1.63.29z" fill="#13377D"/><path d="M15.35 14.306l-.581.29c-.058 0-.058.059-.117.059.117.174.175.29.292.407.465.116.93.174 1.338.174.233 0 .466 0 .699-.058h.233c.582-.116.931-.523 1.047-.814h-.232c-.35-.058-.64-.116-.874-.116 0 .058-.058.174-.058.232-.058.117-.116.175-.174.233l-.059.058a.984.984 0 01-.582.175c-.233 0-.465-.059-.64-.175-.175-.116-.233-.29-.291-.465zm-3.666.349c-.64.872.232 1.803.29 1.86.059.06.059 0 .059 0 0-.057.465-1.395 3.085-.697-.408-.349-.99-1.047-1.339-1.977-.35 0-1.572.116-2.095.814zm2.153-.116c-.174-.117-.466-.117-.698-.059 0-.232.349-.29.524-.29 0 0 .058.232.174.349z" fill="#13377D"/><path d="M22.045 14.655h-.233c-.582 0-1.048-.175-1.513-.465a3.04 3.04 0 01-.815.116h-.699c-.058.233-.233.64-.64.93-.408.35-.931.407-1.397.407h-.582c-.117 0-.35-.058-.582-.058.174.117.29.175.407.291.117.058.291.175.466.29.931.64 1.63 1.571 1.746 2.21.058.233.058.466.058.466.117-.058.233-.29.291-.523.117.29.524 1.22.35 2.151-.175 1.105-.466 1.629-.757 1.92l-.291.29c.582-.29 1.572-.93 2.095-2.093.291-.64.408-1.978.408-1.978v-.407l.35.175s.523.29 1.047 1.047c.174.29.35.581.465.872.059-.233.117-.465.175-.756a4.913 4.913 0 00-.116-1.396l-.117-.465.466.174s.466.175.99.582c.349.233.582.465.756.698-.233-.582-.466-1.163-.873-1.687-1.222-1.86-1.979-2.268-1.979-2.268l-.116-.058h.058a4.03 4.03 0 01.582-.465z" fill="#13377D"/></svg>