<svg width="179" height="27" fill="none" xmlns="http://www.w3.org/2000/svg"><path d="M5.66 26.752H1v-8.94c0-.815.309-1.376.812-1.892.498-.507 1.142-.829 1.851-.829h4.66v8.94c0 .814-.307 1.376-.812 1.891-.497.508-1.141.83-1.85.83zM1 5.567V1h4.66c.71 0 1.354.322 1.85.83.506.515.813 1.077.813 1.892v8.94h-4.66c-.709 0-1.353-.322-1.85-.83C1.308 11.317 1 10.756 1 9.942V5.566zm14.55 15.16v3.207h-3.232c-.459 0-.904-.153-1.281-.538a1.803 1.803 0 01-.407-.593 1.882 1.882 0 01-.12-.715v-6.414h3.234c.458 0 .903.153 1.28.538.203.207.329.397.408.593.078.197.12.423.12.715v3.207h-.002z" fill="#888" stroke="#888" stroke-width=".354"/><path d="M20.116 4.304h4.85v13.022h.191l5.99-13.022h6.754v19.728h-4.85V11.01h-.096l-5.8 13.022h-7.039V4.304zm37.755 0v19.728h-5.135v-7.677h-6.753v7.677h-5.135V4.304h5.136v7.483h6.752V4.304h5.135zm16.832 19.63h-5.135v-1.846h-2.663c-1.236 0-2.472-.097-3.328-.388-.95-.196-1.617-.681-2.187-1.264-.57-.584-.95-1.458-1.142-2.526-.19-1.07-.38-2.236-.38-3.79 0-2.041.19-3.596.666-4.762.475-1.166 1.141-2.04 2.186-2.526 1.048-.487 2.473-.68 4.185-.68h2.663V4.303h5.135v1.848h2.569c1.71 0 3.138.194 4.183.68 1.046.486 1.712 1.264 2.188 2.527.475 1.263.666 2.72.666 4.76 0 1.556-.095 2.82-.38 3.888-.19.972-.667 1.75-1.142 2.526-.57.585-1.236 1.07-2.187 1.264-.951.195-1.997.39-3.328.39h-2.569v1.748-.001zm-6.942-6.413h1.712v-6.9H67.76c-.665 0-1.141.097-1.616.389-.381.194-.666.583-.856 1.069a10.52 10.52 0 00-.19 2.04c0 .971.095 1.556.19 2.139.095.485.475.874.856 1.069.475.097.95.194 1.616.194h.001zm6.942 0h1.712a5.82 5.82 0 001.523-.195c.38-.194.664-.583.855-1.068.19-.487.19-1.166.19-2.138 0-1.264-.19-2.138-.57-2.722-.381-.485-1.046-.68-2.093-.68h-1.712l.095 6.803zm19.876 6.705a39.17 39.17 0 01-3.708-.194 7.837 7.837 0 01-2.759-1.07c-.855-.486-1.426-1.165-1.806-2.234-.476-.972-.666-2.138-.666-3.693v-5.539c0-1.458.19-2.721.666-3.693.475-.971 1.046-1.652 1.806-2.234.761-.585 1.712-.875 2.759-1.167 1.046-.195 2.282-.389 3.708-.389 1.426 0 2.664.097 3.709.194.976.177 1.912.54 2.758 1.07.856.486 1.426 1.263 1.807 2.234.475.972.665 2.138.665 3.693v5.539c0 1.458-.19 2.722-.665 3.692-.476.972-1.046 1.653-1.807 2.236-.856.583-1.712.971-2.758 1.069a14.343 14.343 0 01-3.709.486zm0-4.664c.951 0 1.712-.098 2.187-.196.477-.097.856-.485 1.046-.97.19-.487.38-1.166.38-2.138v-4.47c0-.681-.094-1.264-.19-1.75-.094-.389-.38-.68-.57-.971-.19-.195-.57-.39-1.046-.487-.476 0-1.046-.097-1.712-.097-.95 0-1.711.097-2.186.195-.476.097-.856.486-1.047.971-.19.486-.38 1.167-.38 2.138v4.47c0 .971.095 1.652.38 2.138.19.486.57.68 1.046.874.286.196 1.046.293 2.092.293z" fill="#57A216"/><path d="M113.661 13.037l3.21-8.245h4.811l-6.986 14.552v.002c-.557 1.137-1.106 1.977-1.647 2.62-.542.648-1.057 1.076-1.633 1.329-.598.26-1.484.445-2.381.445-.54 0-1.289-.066-2.092-.148v-3.244c.343.052.755.09 1.236.09h.01c.278 0 .551 0 .778-.014a2.99 2.99 0 00.334-.035c.067-.011.144-.028.221-.055.287-.031.698-.188.883-.63a.975.975 0 00.086-.16c.033-.072.064-.156.094-.232a.341.341 0 01.011-.031c.059-.155.119-.313.196-.473l.103-.209-.096-.212-6.155-13.595h4.735l3.208 8.245.12.306h.836l.118-.306zm14.982 10.412h-4.201V4.695h9.224c1.119 0 2.113.095 3.001.367l.018.006.016.004c.739.167 1.316.586 1.735 1.1.458.562.873 1.166 1.04 2.019.189.966.372 1.996.372 3.21 0 1.422-.092 2.563-.186 3.521a4.36 4.36 0 01-.94 1.997c-.397.487-.963.827-1.736 1.003a14.46 14.46 0 01-3.225.377h-4.927l-.018.468-.173 4.682zm-.017-9.134v.486h3.994c.716 0 1.232-.105 1.637-.209a1.23 1.23 0 00.705-.471c.164-.224.255-.493.31-.769a4.8 4.8 0 00.094-.865c.012-.325.012-.698.012-1.08v-.04c0-.653 0-1.181-.104-1.715l-.003-.01-.002-.012a1.573 1.573 0 00-.371-.683 3.852 3.852 0 00-.261-.261 7.929 7.929 0 01-.159-.157l-.093-.094-.128-.033a6.266 6.266 0 00-1.637-.209h-3.994v6.123-.001zm15.183 8.236l-.011-.006-.011-.006c-.736-.418-1.245-1.093-1.596-1.99-.359-.92-.632-2.025-.632-3.513v-5.539c0-1.425.188-2.601.616-3.476.437-.893.952-1.51 1.641-2.043.82-.464 1.618-.82 2.584-1 .995-.185 2.183-.187 3.623-.187 1.396 0 2.608.095 3.644.19a7.37 7.37 0 012.571 1l.01.007.011.005c.736.418 1.245 1.095 1.596 1.991l.007.02.009.018c.43.876.615 1.955.615 3.475v5.54c0 1.423-.187 2.6-.615 3.475-.437.893-.953 1.51-1.64 2.043-.809.457-1.596.81-2.543.991-.49.003-1.016.045-1.558.088l-.146.01a23.9 23.9 0 01-1.961.097c-1.395 0-2.608-.095-3.644-.19a7.349 7.349 0 01-2.57-1zm10.104-12.51l-.002-.01-.004-.012a2.086 2.086 0 00-.319-.682 5.384 5.384 0 00-.165-.23l-.011-.015a3.927 3.927 0 01-.14-.196c-.182-.278-.467-.422-.706-.498a2.475 2.475 0 00-.737-.108c-.142 0-.336-.016-.586-.036l-.124-.01a11.761 11.761 0 00-3.281.153c-.66.135-1.143.653-1.378 1.133l-.009.018-.008.019c-.209.534-.414 1.277-.414 2.319v4.47c0 .963.088 1.75.429 2.355.242.58.706.857 1.1 1.094l.129.077.112.069h.132c.125 0 .282.011.504.028l.26.02c.351.024.79.049 1.328.049.981 0 1.773-.1 2.281-.203.671-.137 1.16-.67 1.394-1.268.209-.534.415-1.277.415-2.319v-4.374a9.36 9.36 0 00-.2-1.844v0zm23.902-5.25l-6.305 8.948-.205.292.211.286 6.841 9.23h-5.172l-5.278-7.475-.142-.202h-2.241v7.676h-4.184V4.792h4.184v7.482h2.25l.141-.213 4.804-7.27h5.096z" fill="#888" stroke="#888" stroke-width=".354"/></svg>