<svg width="36" height="37" fill="none" xmlns="http://www.w3.org/2000/svg"><path d="M6.706 9.233l.266-.128c-.974-1.137-1.016-1.648-.84-1.878.593-.78 2.334-1.565 4.87-1.565 1.468.01 2.925.266 4.305.76a84.682 84.682 0 014.646 1.786 12.79 12.79 0 002.088.74c.413.089.834.136 1.256.141.218 0 .435-.019.65-.057a62.816 62.816 0 00-.364-.773 12.118 12.118 0 00-.63-1.156 4.177 4.177 0 01-.51-.08 11.39 11.39 0 01-1.737-.639c-.974-.4-2.428-1-4.737-1.82a15.035 15.035 0 00-4.964-.872c-2.86 0-5.322.897-6.429 2.334-1.032 1.345-.276 2.875.63 4.018.486-.3.99-.572 1.506-.818m20.095-2.5l.117.252c.539-.46 1.162-.897 1.623-.897a.367.367 0 01.244.083c1.298 1.002 2.354 4.841.815 9.16-.806 2.26-1.397 3.691-1.786 4.637-.31.673-.558 1.372-.744 2.088a5.241 5.241 0 00-.087 1.894l.779-.367c.396-.193.782-.406 1.156-.639 0-.15.042-.32.081-.501.17-.596.387-1.178.65-1.74.399-.959 1-2.422 1.818-4.724 1.776-4.976.62-9.78-1.465-11.38a2.32 2.32 0 00-1.445-.488c-.915 0-1.808.507-2.561 1.095.305.489.583.994.83 1.514m2.462 20.089l-.27.128c.974 1.137 1.02 1.648.845 1.877-.598.777-2.335 1.565-4.87 1.565a12.93 12.93 0 01-4.306-.76c-2.273-.801-3.695-1.392-4.646-1.782a12.29 12.29 0 00-2.088-.744 6.117 6.117 0 00-1.214-.134c-.23 0-.46.021-.685.064l.36.76c.195.398.412.785.65 1.16.169.015.337.041.503.076a11.27 11.27 0 011.737.639c.974.399 2.428 1 4.737 1.82a15.04 15.04 0 004.948.86c2.48 0 5.322-.895 6.429-2.332 1.032-1.345.276-2.875-.63-4.018-.486.3-.99.573-1.507.818m-20.094 2.51c-.049-.103-.094-.195-.14-.297-.57.51-1.159.99-1.525.99a.485.485 0 01-.325-.131c-1.299-1.003-2.348-4.842-.812-9.163a91.912 91.912 0 011.786-4.637c.31-.673.559-1.37.743-2.086a5.242 5.242 0 00.088-1.894c-.25.115-.51.236-.78.367a11.93 11.93 0 00-1.155.64c0 .146-.042.318-.081.494a10.916 10.916 0 01-.633 1.737c-.4.959-1 2.425-1.822 4.727-1.77 4.976-.617 9.783 1.468 11.38.426.342.959.532 1.51.536.922 0 1.7-.514 2.477-1.172-.297-.48-.568-.976-.812-1.485" fill="#fff"/><path d="M3.794 19.782l.11-.32c-1.484-.092-1.86-.242-1.922-.693-.214-1.632 1.766-5.081 5.912-7.048 2.17-1.032 3.601-1.626 4.546-2.022a12.32 12.32 0 002-.958 5.257 5.257 0 001.412-1.278l-.821-.297a12.304 12.304 0 00-1.244-.37 8.47 8.47 0 01-.425.32 11.68 11.68 0 01-1.679.779A88.67 88.67 0 007.047 9.95C2.27 12.22-.313 16.431.03 19.034c.24 1.837 1.815 2.236 3.283 2.364.13-.549.29-1.09.477-1.623M16.23 3.813l.282.102c.116-1.482.444-1.872.73-1.916.081-.005.162-.005.244 0 1.922 0 5.074 2.267 6.818 5.924 1.03 2.169 1.623 3.596 2.023 4.545.253.685.568 1.347.941 1.977a5.193 5.193 0 001.273 1.399c.091-.253.188-.518.286-.799.149-.419.275-.845.38-1.277a4.382 4.382 0 01-.296-.406 11.32 11.32 0 01-.779-1.677c-.403-.958-1.01-2.42-2.062-4.63C23.895 2.477 20.021.008 17.48.008a3.96 3.96 0 00-.5.032c-1.68.224-2.222 1.82-2.397 3.274.55.13 1.092.291 1.623.482M35.966 17c-.22-1.677-1.818-2.22-3.276-2.398a15.46 15.46 0 01-.483 1.657l-.095.265c1.478.118 1.867.447 1.906.735.215 1.632-1.766 5.081-5.912 7.052a93.882 93.882 0 01-4.546 2.018 12.6 12.6 0 00-2 .958 5.21 5.21 0 00-1.412 1.278l.821.293c.408.146.823.268 1.244.368.12-.096.26-.198.428-.32a11.404 11.404 0 011.68-.779 87.76 87.76 0 004.632-2.057c4.773-2.267 7.36-6.48 7.017-9.083M19.768 32.221l-.283-.099c-.117 1.479-.448 1.869-.734 1.917-.08.01-.16.015-.24.015-1.925 0-5.075-2.267-6.818-5.924-1.03-2.165-1.623-3.596-2.023-4.541a12.473 12.473 0 00-.951-2.003 5.104 5.104 0 00-1.257-1.392l-.285.785c-.146.42-.27.846-.37 1.278.09.112.184.246.288.399.306.538.567 1.1.78 1.68.402.958 1.01 2.418 2.058 4.628 2.179 4.573 6.052 7.026 8.594 7.045.168 0 .335-.012.5-.035 1.676-.22 2.218-1.817 2.397-3.27a15.287 15.287 0 01-1.624-.483" fill="#fff"/></svg>