<svg width="120" height="35" fill="none" xmlns="http://www.w3.org/2000/svg"><g clip-path="url(#clip0_820_397)"><path d="M27.304 2.917h5.924c2.06 0 3.735 1.725 3.735 3.847v21.09c0 1.99-1.674 3.715-3.606 3.715h-5.924c-2.06 0-3.735-1.725-3.735-3.847V6.632c0-1.99 1.546-3.715 3.606-3.715zm0 25.203h5.924V6.366h-5.924V28.12zM4.51 2.917h13.651c1.932 0 3.477 1.592 3.477 3.582v21.356c0 1.99-1.545 3.581-3.477 3.581H4.511c-1.932 0-3.478-1.592-3.478-3.581V6.499c0-1.99 1.546-3.582 3.477-3.582zm.258 25.203h13.264V6.366H4.768V28.12zm37.862 3.449h-3.735V2.917h3.735v11.938h5.924V2.917h3.734V31.57h-3.734V18.304H42.63V31.57zm13.265 2.918h-2.447l-.387-6.367h2.06l2.834-21.887h-1.16l-.772-3.449h8.886C66.583 2.784 68 4.111 68 5.835l1.417 22.152h2.06l-.644 6.367H68.13l-.644-2.918H56.538l-.643 3.05zm2.704-6.367h7.212L64.78 6.366h-3.349C60.788 10.876 58.6 28.12 58.6 28.12z" fill="#2D2D3F"/><path d="M82.682 31.569h-3.735V2.917h3.735v11.938h5.924V2.917h3.734V31.57h-3.734V18.304h-5.924V31.57zM93.886 2.917h10.43v3.449h-3.09v25.336h-3.735V6.366h-3.605V2.917zm21.635 9.418l-5.924 19.234h-3.734V2.917h3.734v19.367l5.924-19.367h3.735V31.57h-3.735V12.335z" fill="#D81200"/><path d="M13.281 34.487H9.547l.007-32.862h3.734l-.007 32.862z" fill="#2D2D3F"/></g><defs><clipPath id="clip0_820_397"><path fill="#fff" transform="translate(.226 .257)" d="M0 0h119.631v34.702H0z"/></clipPath></defs></svg>