<svg width="90" height="46" fill="none" xmlns="http://www.w3.org/2000/svg"><g clip-path="url(#clip0_820_447)"><path d="M11.087 13.815c1.078-1.078 1.437-3.054 1.437-4.312 0-1.796-.539-3.054-2.335-3.054-1.797 0-2.515 1.258-2.515 4.85H1.206c0-5.389 2.695-10.06 9.162-10.06 5.03 0 8.624 2.875 8.624 8.085 0 3.772-1.437 6.108-3.234 8.264-1.617 1.976-6.647 5.57-6.827 7.725h10.6v5.21H1.206c0-8.803 6.827-13.294 9.881-16.708zM29.95 1.419c7.008 0 8.624 3.952 8.624 7.905v13.474c0 3.952-1.616 7.905-8.623 7.905-6.647 0-8.623-3.953-8.623-7.905V9.324c.18-4.133 1.976-7.905 8.623-7.905zm-2.155 7.725v13.833c0 1.797.36 2.875 2.156 2.875 1.796 0 2.335-1.078 2.335-2.875V9.144c0-1.797-.539-2.875-2.335-2.875-1.797 0-2.156.899-2.156 2.875zm25.33 1.256v-.718c0-4.312 2.515-8.264 8.623-8.264 4.85 0 8.085 2.874 8.085 7.186 0 2.695-.719 5.21-3.953 6.108 3.953 1.617 4.671 3.773 4.671 7.546 0 5.929-3.413 8.444-8.803 8.444-4.85 0-8.444-2.695-8.444-8.983v-1.437h6.109v1.078c0 2.156.539 4.132 2.335 4.132 1.976 0 2.515-1.078 2.515-4.312 0-3.054-1.078-3.773-4.132-3.773h-1.437v-4.491h.898c3.055 0 4.132-.54 4.132-3.773 0-1.437-.539-3.054-2.155-3.054-1.438 0-2.336 1.078-2.336 2.695v1.437l-6.108.18zm25.153 2.159c1.078-1.258 2.335-2.336 5.03-2.336 4.312 0 6.468 3.234 6.468 9.522 0 8.264-3.054 10.78-8.444 10.78-6.108 0-8.623-2.695-8.623-9.343h6.108c0 3.414.719 4.492 2.335 4.492 1.617 0 2.156-1.078 2.156-5.57 0-3.952-.718-5.03-2.335-5.03-1.438 0-1.977.898-2.156 2.156h-5.75l.9-15.63h14.91v4.85h-9.88l-.72 6.109zM48.634 24.952h-5.21v5.21h5.21v-5.21z" fill="#E44513"/><path d="M5.52 41.301c-.36.719-.719 1.437-.898 2.156-.36.898-.899 1.796-2.156 1.796h-.18c-.18 0-.36-.18-.36-.359 0-.18.18-.36.36-.36h.18c.539 0 .898-.358 1.257-.898l-2.155-4.85v-.18c0-.18.18-.359.359-.359.18 0 .36.18.36.36l1.796 4.31c.359-.718.539-1.436.898-2.155.18-.539.539-1.437.718-2.156 0-.18.18-.359.36-.359.36 0 .36.18.36.36v.359c-.36.539-.72 1.437-.9 2.335zm8.263-3.055c0-.18.18-.36.539-.36.18 0 .36.18.36.36v6.468c0 .18-.18.36-.36.36s-.54-.18-.54-.36v-2.695H10.37v2.695c0 .18-.18.36-.36.36-.179 0-.359-.18-.359-.36v-6.468c0-.18.18-.36.36-.36s.36.18.36.36v2.875h3.413v-2.875zm5.569 6.468c0 .18-.18.539-.36.539-.179 0-.359-.18-.359-.539v-6.468c0-.18.18-.36.36-.36s.359.18.359.36v4.671l3.414-3.952v-.54c0-.179.18-.359.36-.359.179 0 .358.18.358.36v6.468c0 .18-.18.539-.359.539-.18 0-.36-.18-.36-.54v-4.67l-3.413 3.952v.539zm10.776.364h-2.155c-.18 0-.36-.18-.36-.36v-6.287c0-.18.18-.36.36-.36h1.976c1.437 0 2.156.899 2.156 1.797 0 .719-.36 1.258-.899 1.437.719.18 1.258.898 1.258 1.617v.18c-.18 1.257-.719 1.976-2.335 1.976zm1.078-5.39c0-.539-.359-1.078-1.257-1.078h-1.437v2.336h1.078c1.077 0 1.616-.18 1.616-1.078v-.18zm.18 3.234c0-.719-.539-1.078-1.437-1.078h-1.617v2.335h1.796c1.078 0 1.258-.538 1.258-1.077v-.18zm8.444 2.156h-3.413c-.18 0-.36-.18-.36-.36v-6.287c0-.18.18-.36.36-.36h3.234c.18 0 .36.18.36.36s-.18.36-.36.36h-2.875v2.335h2.515c.18 0 .36.18.36.359 0 .18-.18.36-.36.36h-2.515v2.334h3.054c.18 0 .36.18.36.36 0 .36-.18.539-.36.539zm6.469-2.875h-1.617v2.515c0 .18-.18.36-.36.36-.179 0-.358-.18-.358-.36v-6.287c0-.18.18-.36.359-.36h1.796c1.617 0 2.336 1.078 2.336 1.977v.539c0 .898-.719 1.616-2.156 1.616zm1.258-2.335c0-.539-.36-1.078-1.438-1.078h-1.437v2.695h1.437c.899 0 1.258-.54 1.258-1.078l.18-.539zm6.827-1.263c-1.078 0-1.617.719-1.617 2.336v1.078c0 1.617.54 2.336 1.617 2.336.36 0 .719-.18 1.078-.36.18-.18.18-.18.36-.18s.359.18.359.36 0 .18-.18.36c-.539.538-1.078.538-1.796.538-1.797 0-2.516-1.257-2.516-3.054v-1.078c0-1.797.719-3.054 2.516-3.054.539 0 1.257.18 1.617.539.18.18.18.18.18.36 0 .179-.18.358-.36.358s-.18 0-.36-.18a1.374 1.374 0 00-.898-.359zm6.466 6.109c0 .18-.179.539-.358.539-.18 0-.36-.18-.36-.539v-6.468c0-.18.18-.36.36-.36s.359.18.359.36v4.671l3.413-3.952v-.54c0-.179.18-.359.36-.359s.359.18.359.36v6.468c0 .18-.18.539-.36.539-.179 0-.359-.18-.359-.54v-4.67l-3.413 3.952v.539zm10.6-5.924v5.928c0 .18-.18.36-.359.36-.18 0-.36-.18-.36-.36V38.79h-1.796c-.18 0-.36-.18-.36-.36 0-.179.18-.358.36-.358h4.671c.18 0 .36.18.36.359 0 .18-.18.36-.36.36h-2.155zm9.165 6.288H77.2c-.18 0-.36-.18-.36-.36v-6.287c0-.18.18-.36.36-.36h3.234c.18 0 .36.18.36.36s-.18.36-.36.36H77.56v2.335h2.694c.18 0 .36.18.36.359 0 .18-.18.36-.36.36H77.74v2.334h2.875c.18 0 .359.18.359.36.18.36 0 .539-.36.539zm6.286-6.288v5.928c0 .18-.18.36-.359.36-.18 0-.36-.18-.36-.36V38.79h-1.796c-.18 0-.359-.18-.359-.36 0-.179.18-.358.36-.358h4.67c.18 0 .36.18.36.359 0 .18-.18.36-.36.36h-2.156z" fill="#000"/></g><defs><clipPath id="clip0_820_447"><path fill="#fff" transform="translate(.606 .693)" d="M0 0h89.248v45.126H0z"/></clipPath></defs></svg>