<svg width="168" height="70" fill="none" xmlns="http://www.w3.org/2000/svg"><g clip-path="url(#clip0_820_407)"><path d="M53.066 32.86l-.538-1.976h-.18l-.539 1.975-.898 2.874h3.053l-.898-2.873zm2.155 6.285c-.18 0-.18 0-.359-.18l-.539-1.975h-3.77l-.72 1.795c0 .18-.179.18-.358.18h-.898c-.18 0-.18-.18-.18-.18l3.053-8.799c.18-.538.18-.538.539-.538h.539c.538 0 .538.18.718.538l3.053 8.8c.18.18 0 .18-.18.18l-.898.179zm3.411-.36c0 .18-.18.18 0 0l-.719.18c-.18 0-.359 0-.359-.18v-6.823c0-1.258.539-2.514 2.335-2.514h3.59c.18 0 .18.18.18.359v.538c0 .18 0 .36-.18.36h-3.77c-.718 0-1.077.359-1.077 1.077v7.003zm12.21.36H67.07c-1.616 0-2.335-1.078-2.335-2.335v-4.849c0-1.256.539-2.513 2.335-2.513h3.77c.18 0 .18.18.18.359v.538c0 .18 0 .18-.18.18h-3.77c-.719 0-1.078.36-1.078 1.077v1.617h4.31c.18 0 .18.18.18.359v.538c0 .18 0 .18-.18.18h-4.31v2.514c0 .539.36 1.078 1.078 1.078h3.77c.18 0 .18.18.18.359v.538c0 .18 0 .36-.18.36zm8.084-9.336c0-.18.18-.18 0 0l.897-.18c.18 0 .18 0 .18.18v9.158c0 .18-.18.18-.18.18h-.718c-.18 0-.18 0-.18-.18v-4.31h-4.848v4.31c0 .18-.18.18-.18.18h-.718c-.18 0-.18 0-.18-.18V29.81c0-.18.18-.18.18-.18h.719c.18 0 .18 0 .18.18v3.771h4.848V29.81zm5.204.896h-2.693c-.18 0-.18-.18-.18-.18v-.538c0-.18 0-.18.18-.18h6.824c.18 0 .18.18.18.18v.538c0 .18 0 .18-.18.18h-2.694v8.08c0 .18-.18.18-.18.18h-.717c-.18 0-.18 0-.18-.18l-.36-8.08zm10.957 6.823c.18-.18.18 0 .36.18l.179.539c.18.18.18.18-.18.359-.718.539-1.795.718-2.693.718-2.694 0-4.13-1.616-4.13-4.848 0-3.053 1.616-5.028 4.13-5.028.718 0 1.616.18 2.514.538.18.18.18.18.18.36l-.54.718-.179.18c-.539-.18-1.257-.54-1.975-.54-1.975 0-2.873 1.976-2.873 3.772 0 1.975.538 3.591 3.052 3.591.898 0 1.616-.18 2.155-.539zm4.489-6.823h-2.873c-.18 0-.18-.18-.18-.18v-.538c0-.18 0-.18.18-.18h6.824c.18 0 .18.18.18.18v.538c0 .18 0 .18-.18.18h-2.694v8.08c0 .18-.179.18-.179.18h-.718c-.18 0-.18 0-.18-.18l-.18-8.08zm9.16 3.593h-2.515v3.592h2.515c1.616 0 1.975-1.078 1.975-1.796-.18-.898-.718-1.796-1.975-1.796zm-2.515-.898h2.515c.538 0 1.616-.18 1.616-1.436 0-.718-.539-1.257-1.437-1.257h-2.694V33.4zm4.131.54c1.077.538 1.616 1.436 1.616 2.513 0 1.616-1.437 2.694-3.053 2.694h-3.232c-.539 0-.539-.18-.539-.539v-8.44c0-.539.179-.539.539-.539h3.053c1.616 0 2.873.54 2.873 2.514 0 .54-.539 1.257-1.257 1.796zm6.646-3.413c-1.976 0-2.694 1.617-2.694 3.771 0 2.335.539 3.772 2.694 3.772s2.694-1.796 2.694-3.772c.179-1.975-.36-3.77-2.694-3.77zm-.18 8.8c-2.694 0-3.951-1.616-3.951-4.849 0-3.232 1.616-4.849 3.951-4.849 2.694 0 4.131 1.796 4.131 4.85.179 3.052-1.257 4.848-4.131 4.848zM54.862 50.635c.18-.18.36 0 .539.18l.538.897c.18.18.18.36-.179.539-.898.539-1.975.718-3.053.718-2.873 0-4.31-1.795-4.31-4.848 0-2.873 1.617-4.849 4.31-4.849.898 0 1.796.18 2.694.539.18.18.18.18.18.539l-.54.898c-.179.18-.179.359-.538.18-.539-.18-1.257-.36-1.796-.36-1.616 0-2.334 1.257-2.334 3.053 0 1.616.538 2.873 2.514 2.873.898.18 1.436-.18 1.975-.36zm8.796-5.567h-2.514v7.363c0 .18-.18.359-.359.359H59.35c-.18 0-.36-.18-.36-.36v-7.362h-2.514c-.18 0-.18-.18-.18-.18v-1.257c0-.18.18-.359.18-.359h7.004c.18 0 .18.18.18.36v1.436c.359 0 .18 0 0 0zm5.21.003h-1.616v2.694h1.616c.898 0 1.257-.54 1.257-1.257.18-.54-.18-1.437-1.257-1.437zm-1.796 7.542c0 .18-.18.36-.359.36h-1.436c-.18 0-.36-.18-.36-.36v-8.26c0-.539.18-.898.719-.898h3.412c1.975 0 3.052 1.257 3.052 2.873 0 .898-.538 3.053-3.591 3.053h-1.796l.36 3.232zm7.902-3.415h2.155l-.54-1.616-.538-1.975-.898 1.796-.18 1.795zm2.514 1.617h-3.053l-.539 1.616c-.18.18-.18.18-.359.18h-1.616c-.18 0-.18-.18-.18-.18l2.694-8.44c.18-.54.539-.719.898-.719h.718c.539 0 .898.18 1.078.719l2.693 8.44c0 .18 0 .18-.18.18h-1.615c-.18 0-.36 0-.54-.18v-1.616zm9.697-5.747h-2.514v7.363c0 .18-.18.359-.359.359h-1.436c-.18 0-.36-.18-.36-.36v-7.362h-2.514c-.18 0-.18-.18-.18-.18v-1.257c0-.18.18-.359.18-.359h6.824c.18 0 .18.18.18.36l.18 1.436c.179 0 .179 0 0 0zm7.903 7.722h-3.951c-1.976 0-2.514-1.257-2.514-2.514v-4.49c0-1.257.538-2.514 2.514-2.514h3.771c.18 0 .18.18.18.36v1.256c0 .18-.18.36-.18.36h-3.592c-.538 0-.897.359-.897.897v1.078h3.77c.18 0 .18.18.18.359v1.078c0 .18 0 .359-.18.359h-3.77v1.616c0 .538.359.718.897.718h3.592c.18 0 .18.18.18.36v1.077c.359-.18.359 0 0 0zm3.77-.18c0 .18 0 .36-.36.36h-1.436a.386.386 0 01-.359-.36v-6.824c0-1.257.539-2.514 2.514-2.514h3.772c.179 0 .179.18.179.36v1.256c0 .18-.179.36-.179.36h-3.592c-.539 0-.898.359-.898.897l.359 6.465zm11.672-6.102l-1.257 1.975-2.335 3.771c-.359.539-.538.539-.898.539h-.538c-.539 0-.898-.36-.898-.898v-8.26c0-.18.179-.18.359-.18h1.437c.179 0 .359.18.359.18v6.105h.179l1.257-1.975 2.514-3.771c.359-.54.538-.54.898-.54h.538c.539 0 .898.18.898.899v8.44c0 .18-.179.18-.359.18h-1.437c-.179 0-.359-.18-.359-.18l-.358-6.285zm10.954 6.282h-1.437c-.18 0-.359-.18-.359-.18v-3.053c-.539.18-1.078.18-1.617.18-2.692 0-3.77-1.257-3.77-3.412v-2.694c0-.18.18-.18.359-.18h1.616c.179 0 .359.18.359.18v2.514c0 1.257.538 1.617 1.975 1.617.539 0 .898 0 1.257-.18v-4.13c0-.18.18-.18.359-.18h1.617c.179 0 .359.18.359.18l-.718 9.338c.359 0 .179 0 0 0zm8.979 0h-3.951c-1.976 0-2.514-1.257-2.514-2.514v-4.49c0-1.257.538-2.514 2.514-2.514h3.771c.18 0 .18.18.18.36v1.256c0 .18-.18.36-.18.36h-3.592c-.538 0-.897.359-.897.897v1.078h3.771c.179 0 .179.18.179.359v1.078c0 .18 0 .359-.179.359h-3.771v1.616c0 .538.359.718.897.718h3.592c.18 0 .18.18.18.36v1.077s.179-.18 0 0zm7.723-2.155c.18-.18.359 0 .539.18l.539.897c.179.18.179.36-.18.539-.898.539-1.976.718-3.053.718-2.873 0-4.31-1.795-4.31-4.848 0-2.873 1.616-4.849 4.31-4.849.898 0 1.796.18 2.694.539.179.18.179.18.179.539l-.538.898c-.18.18-.18.359-.539.18-.539-.18-1.257-.36-1.796-.36-1.616 0-2.335 1.257-2.335 3.053 0 1.616.539 2.873 2.515 2.873.718.18 1.257-.18 1.975-.36zm7.722-2.869c.897.36 1.256.898 1.436 1.616l.898 3.053c0 .18 0 .18-.18.18h-1.615c-.18 0-.18 0-.18-.18l-.898-2.873c-.179-.898-.718-1.077-1.616-1.077h-1.078v3.95c0 .18-.179.18-.179.18h-1.617c-.179 0-.179 0-.179-.18v-9.158c0-.18.179-.18.179-.18h1.617c.179 0 .179 0 .179.18v3.591h1.078c.539 0 1.257-.18 1.616-1.257l.539-2.334c0-.18.179-.18.179-.18h1.616c.179 0 .179.18.179.18l-.538 2.514c-.36 1.077-.539 1.616-1.436 1.975zm9.694-1.258l-1.257 1.975-2.334 3.771c-.359.539-.539.539-.897.539h-.539c-.539 0-.898-.36-.898-.898v-8.26c0-.18.18-.18.359-.18h1.436c.18 0 .359.18.359.18v6.105h.18l1.257-1.975 2.514-3.771c.359-.54.539-.54.898-.54h.539c.538 0 .898.18.898.899v8.44c0 .18-.18.18-.36.18h-1.436c-.18 0-.359-.18-.359-.18l-.36-6.285zm7.365 3.052l-1.616 2.874c-.18.18-.18.359-.539.359h-1.616c-.18 0-.18-.18-.18-.18l2.874-4.669-2.694-4.31c-.18-.18 0-.18.179-.18h1.617c.359 0 .538.18.538.36l1.617 2.694 1.616-2.694c.18-.18.18-.36.539-.36h1.436c.18 0 .18.18.18.18l-2.694 4.49 2.874 4.669c.179.18 0 .18-.18.18h-1.616c-.359 0-.539-.18-.539-.36l-1.796-3.053zM55.04 60.157l-1.257 1.975-2.335 3.77c-.359.54-.539.54-.898.54h-.538c-.54 0-.898-.36-.898-.898v-8.26c0-.18.18-.18.359-.18h1.436c.18 0 .36.18.36.18v6.105h.18l1.256-1.976 2.514-3.77c.36-.54.54-.54.898-.54h.539c.539 0 .898.18.898.899v8.26c0 .18-.18.18-.36.18h-1.436c-.18 0-.36-.18-.36-.18l-.358-6.105zm11.674 6.465h-1.437a.386.386 0 01-.359-.359v-3.771h-3.771v3.771c0 .18-.18.36-.36.36h-1.436c-.18 0-.359-.18-.359-.36v-8.979c0-.18.18-.359.36-.359h1.436c.18 0 .359.18.359.36v3.411h3.771v-3.411c0-.18.18-.36.36-.36h1.436c.18 0 .359.18.359.36v8.978c0 .18 0 .36-.36.36zm8.26-6.465l-1.257 1.975-2.155 3.77c-.359.54-.539.54-.898.54h-.538c-.54 0-.898-.36-.898-.898v-8.26c0-.18.18-.18.359-.18h1.436c.18 0 .36.18.36.18v6.105h.18l1.256-1.976 2.514-3.77c.36-.54.539-.54.898-.54h.539c.538 0 .898.18.898.899v8.26c0 .18-.18.18-.36.18h-1.436c-.18 0-.36-.18-.36-.18l-.538-6.105zm11.851 4.669l.538.179c.54 0 .54.18.54.539l-.18 3.053c0 .18-.18.18-.18.18h-1.257c-.18 0-.18-.18-.18-.36l-.18-1.975h-6.105c-.538 0-.898-.36-.898-.898v-8.26c0-.18.18-.18.36-.18h1.616c.18 0 .359.18.359.18v7.721h3.77v-7.542c0-.18.18-.18.18-.18h1.617c.18 0 .359.18.359.18l-.36 7.363zm8.262-4.669l-1.257 1.975-2.335 3.77c-.359.54-.538.54-.898.54h-.538c-.539 0-.898-.36-.898-.898v-8.26c0-.18.18-.18.36-.18h1.436c.18 0 .359.18.359.18v6.105h.18l1.256-1.976 2.514-3.77c.36-.54.54-.54.898-.54h.539c.538 0 .898.18.898.899v8.26c0 .18-.18.18-.36.18h-1.436c-.18 0-.359-.18-.359-.18l-.36-6.105zm6.284 2.873h2.155l-.538-1.617-.539-1.975h-.359l-.539 1.975-.18 1.617zm2.694 1.616h-3.053l-.539 1.616c-.179.18-.179.18-.359.18h-1.616c-.18 0-.18-.18-.18-.18l2.694-8.44c.18-.539.539-.718.898-.718h.718c.539 0 .898.18 1.078.718l2.694 8.44c0 .18 0 .18-.18.18h-1.616c-.18 0-.359 0-.539-.18v-1.616zm9.518-5.746h-2.515v7.362c0 .18-.179.36-.359.36h-1.436c-.18 0-.36-.18-.36-.36V58.9H106.4c-.179 0-.179-.18-.179-.18v-1.257c0-.18.179-.36.179-.36h7.003c.18 0 .18.18.18.36V58.9c.179 0 .179 0 0 0zm7.364 1.257l-1.257 1.975-2.335 3.77c-.359.54-.539.54-.898.54h-.538c-.538 0-.898-.36-.898-.898v-8.26c0-.18.18-.18.36-.18h1.435c.18 0 .359.18.359.18v6.105h.18l1.257-1.976 2.514-3.77c.36-.54.539-.54.898-.54h.539c.539 0 .898.18.898.899v8.26c0 .18-.18.18-.359.18h-1.616c-.18 0-.36-.18-.36-.18l-.179-6.105zm8.08 2.155h-1.976v2.514h1.976c1.077 0 1.257-.538 1.257-1.256.18-.719-.359-1.258-1.257-1.258zm-1.796-1.616h1.796c.539 0 .898-.18.898-.898 0-.538-.359-.897-.898-.897h-1.976l.18 1.795zm3.771.719c1.078.538 1.437 1.436 1.437 2.334 0 1.616-1.437 2.873-3.233 2.873h-3.412c-.538 0-.718-.18-.718-.898v-7.9c0-.54.18-.899.718-.899h3.412c1.617 0 2.874.539 2.874 2.514 0 .719-.359 1.616-1.078 1.976z" fill="#13377D"/><g opacity=".59"><path opacity=".71" d="M43.908 14.905l8.44-4.849-25.5-5.028L1.528 0l16.88 9.877 8.44-4.849 17.06 9.877zm-8.621 14.543l8.44-4.848-25.5-5.029 17.06 9.877z" fill="#768DA3"/></g><path d="M52.348 9.88l-8.44 14.545V14.55l8.44-4.67zm-8.44 14.72l-8.62 14.546v-9.877l8.62-4.669zM26.85 5.026l-8.44 14.546V9.875l8.44-4.849z" fill="#768DA3"/></g><defs><clipPath id="clip0_820_407"><path fill="#fff" transform="translate(.803)" d="M0 0h167.103v69.146H0z"/></clipPath></defs></svg>