<svg width="52" height="52" fill="none" xmlns="http://www.w3.org/2000/svg"><g clip-path="url(#clip0_698_256)"><path d="M43.15 28.227c-.841-1.061-.601-1.534 0-2.483.01-.01 6.95-9.6 7.665-12.852l.004-.002c.355-1.186 0-2.056-1.718-2.056h-5.685c-1.448 0-2.115.747-2.472 1.583 0 0-2.895 6.93-6.99 11.42-1.322 1.299-1.933 1.715-2.654 1.715-.356 0-.908-.416-.908-1.601V12.89c0-1.422-.405-2.056-1.604-2.056h-8.94c-.907 0-1.447.662-1.447 1.28 0 1.348 2.048 1.657 2.26 5.45v8.226c0 1.803-.327 2.134-1.053 2.134-1.932 0-6.623-6.957-9.403-14.92-.561-1.544-1.11-2.168-2.567-2.168H1.95c-1.623 0-1.95.747-1.95 1.583 0 1.478 1.933 8.825 8.987 18.532 4.702 6.626 11.323 10.216 17.347 10.216 3.62 0 4.062-.797 4.062-2.169 0-6.331-.327-6.929 1.486-6.929.841 0 2.288.416 5.668 3.612 3.864 3.79 4.498 5.486 6.66 5.486h5.686c1.62 0 2.442-.797 1.97-2.37-1.081-3.309-8.388-10.114-8.717-10.57z" fill="#fff"/></g><defs><clipPath id="clip0_698_256"><path fill="#fff" d="M0 0h52v52H0z"/></clipPath></defs></svg>